M48
; DRILL file {KiCad 6.0.11-2627ca5db0~126~ubuntu20.04.1} date Tue 21 Feb 2023 05:10:17 PM CST
; FORMAT={-:-/ absolute / inch / decimal}
; #@! TF.CreationDate,2023-02-21T17:10:17+08:00
; #@! TF.GenerationSoftware,Kicad,Pcbnew,6.0.11-2627ca5db0~126~ubuntu20.04.1
; #@! TF.FileFunction,Plated,1,4,PTH
FMAT,2
INCH
; #@! TA.AperFunction,Plated,PTH,ViaDrill
T1C0.0157
; #@! TA.AperFunction,Plated,PTH,ComponentDrill
T2C0.0315
; #@! TA.AperFunction,Plated,PTH,ComponentDrill
T3C0.0394
; #@! TA.AperFunction,Plated,PTH,ComponentDrill
T4C0.0748
%
G90
G05
T1
X6.1024Y-3.2677
X6.1024Y-3.3031
X6.1024Y-3.3701
X6.1024Y-3.4055
X6.1024Y-3.4843
X6.1024Y-3.5197
X6.1102Y-3.8937
X6.1102Y-3.9291
X6.1378Y-3.2677
X6.1378Y-3.3031
X6.1378Y-3.3701
X6.1378Y-3.4055
X6.1378Y-3.4843
X6.1378Y-3.5197
X6.1457Y-3.8937
X6.1457Y-3.9291
X6.1732Y-3.2677
X6.1732Y-3.3031
X6.1732Y-3.3701
X6.1732Y-3.4055
X6.1732Y-3.4843
X6.1732Y-3.5197
X6.1811Y-3.8937
X6.1811Y-3.9291
X6.2087Y-3.2677
X6.2087Y-3.3031
X6.2087Y-3.3701
X6.2087Y-3.4055
X6.2087Y-3.4843
X6.2087Y-3.5197
X6.2165Y-3.8937
X6.2165Y-3.9291
X6.3386Y-3.6772
X6.3386Y-3.7126
X6.3465Y-3.0394
X6.374Y-3.6772
X6.374Y-3.7126
X6.3858Y-3.0394
X6.3898Y-4.2402
X6.3898Y-4.2756
X6.3898Y-4.311
X6.3898Y-4.3465
X6.4094Y-3.6772
X6.4094Y-3.7126
X6.4252Y-4.2402
X6.4252Y-4.2756
X6.4252Y-4.311
X6.4252Y-4.3465
X6.4449Y-3.6772
X6.4449Y-3.7126
X6.5039Y-3.3858
X6.5354Y-4.189
X6.5551Y-4.0236
X6.5551Y-4.063
X6.5551Y-4.1063
X6.5551Y-4.1457
X6.5866Y-3.0748
X6.622Y-3.0748
X6.6378Y-4.2874
X6.6378Y-4.3228
X6.6575Y-3.0748
X6.6654Y-3.2795
X6.6732Y-4.2874
X6.6732Y-4.3228
X6.688Y-3.1998
X6.7087Y-4.2874
X6.7087Y-4.3228
X6.7402Y-3.7047
X6.7402Y-3.7402
X6.7441Y-4.2874
X6.7441Y-4.3228
X6.7756Y-3.7047
X6.7756Y-3.7402
X6.7835Y-3.4055
X6.811Y-3.7047
X6.811Y-3.7402
X6.8465Y-3.7047
X6.8465Y-3.7402
X6.8543Y-3.3386
X6.8543Y-3.374
X6.8583Y-3.0157
X6.8583Y-3.0709
X6.8661Y-4.0866
X6.8661Y-4.122
X6.8791Y-2.9824
X6.8898Y-3.3386
X6.8898Y-3.374
X6.9016Y-4.0866
X6.9016Y-4.122
X6.9252Y-2.9685
X6.9252Y-3.3386
X6.9252Y-3.374
X6.9252Y-3.5354
X6.937Y-4.0866
X6.937Y-4.122
X6.9409Y-3.498
X6.9606Y-3.3386
X6.9606Y-3.374
X6.9724Y-4.0866
X6.9724Y-4.122
X7.0354Y-3.2047
X7.0505Y-4.2431
X7.0591Y-4.2047
X7.0866Y-3.1457
X7.0866Y-3.1811
X7.0866Y-3.2165
X7.0866Y-3.252
X7.0866Y-3.8307
X7.1067Y-3.3651
X7.122Y-3.1457
X7.122Y-3.1811
X7.122Y-3.2165
X7.122Y-3.252
X7.1457Y-3.3071
X7.1457Y-4.3071
X7.1457Y-4.3425
X7.1575Y-3.1063
X7.1638Y-3.3601
X7.1654Y-3.4488
X7.1654Y-3.7047
X7.1737Y-3.3981
X7.1811Y-4.3071
X7.1811Y-4.3425
X7.189Y-3.8307
X7.2165Y-4.3071
X7.2165Y-4.3425
X7.2244Y-2.8976
X7.252Y-4.3071
X7.252Y-4.3425
X7.2526Y-3.0552
X7.2559Y-3.1457
X7.2559Y-3.1811
X7.2874Y-3.6693
X7.2874Y-3.7047
X7.2913Y-3.1457
X7.2913Y-3.1811
X7.3228Y-3.6693
X7.3228Y-3.7047
X7.3268Y-3.1457
X7.3268Y-3.1811
X7.3543Y-4.0669
X7.3543Y-4.1024
X7.3583Y-3.6693
X7.3583Y-3.7047
X7.3622Y-3.1457
X7.3622Y-3.1811
X7.3898Y-4.0669
X7.3898Y-4.1024
X7.3937Y-3.6693
X7.3937Y-3.7047
X7.3937Y-3.878
X7.3937Y-3.9764
X7.4252Y-4.0669
X7.4252Y-4.1024
X7.4606Y-4.0669
X7.4606Y-4.1024
X7.4764Y-2.874
X7.4764Y-2.9094
X7.4764Y-2.9449
X7.4764Y-2.9803
X7.5118Y-2.874
X7.5118Y-2.9094
X7.5118Y-2.9449
X7.5118Y-2.9803
X7.5236Y-3.2323
X7.5236Y-3.2677
X7.5236Y-3.3937
X7.5236Y-3.4291
X7.5236Y-3.5472
X7.5236Y-3.5827
X7.5591Y-3.2323
X7.5591Y-3.2677
X7.5591Y-3.3937
X7.5591Y-3.4291
X7.5591Y-3.5472
X7.5591Y-3.5827
X7.5945Y-3.2323
X7.5945Y-3.2677
X7.5945Y-3.3937
X7.5945Y-3.4291
X7.5945Y-3.5472
X7.5945Y-3.5827
X7.6299Y-3.2323
X7.6299Y-3.2677
X7.6299Y-3.3937
X7.6299Y-3.4291
X7.6299Y-3.5472
X7.6299Y-3.5827
X7.6654Y-3.9055
X7.6654Y-3.9409
X7.7008Y-3.9055
X7.7008Y-3.9409
X7.7362Y-3.9055
X7.7362Y-3.9409
X7.7717Y-3.9055
X7.7717Y-3.9409
T2
X6.6159Y-3.8189
X6.7537Y-3.8189
T3
X6.2067Y-3.189
X6.2067Y-3.622
X7.69Y-3.189
X7.69Y-3.622
T4
X6.4035Y-3.3071
X6.4035Y-3.5039
X7.2963Y-3.3071
X7.2963Y-3.5039
T0
M30
