%TF.GenerationSoftware,KiCad,Pcbnew,6.0.11-2627ca5db0~126~ubuntu20.04.1*%
%TF.CreationDate,2023-02-21T17:10:03+08:00*%
%TF.ProjectId,cityscope-can-module,63697479-7363-46f7-9065-2d63616e2d6d,v1.0*%
%TF.SameCoordinates,Original*%
%TF.FileFunction,Copper,L2,Inr*%
%TF.FilePolarity,Positive*%
%FSLAX46Y46*%
G04 Gerber Fmt 4.6, Leading zero omitted, Abs format (unit mm)*
G04 Created by KiCad (PCBNEW 6.0.11-2627ca5db0~126~ubuntu20.04.1) date 2023-02-21 17:10:03*
%MOMM*%
%LPD*%
G01*
G04 APERTURE LIST*
%TA.AperFunction,ComponentPad*%
%ADD10C,1.400000*%
%TD*%
%TA.AperFunction,ComponentPad*%
%ADD11R,3.500000X3.500000*%
%TD*%
%TA.AperFunction,ComponentPad*%
%ADD12C,3.500000*%
%TD*%
%TA.AperFunction,ComponentPad*%
%ADD13R,1.600000X1.600000*%
%TD*%
%TA.AperFunction,ComponentPad*%
%ADD14C,1.600000*%
%TD*%
%TA.AperFunction,ViaPad*%
%ADD15C,0.800000*%
%TD*%
G04 APERTURE END LIST*
D10*
%TO.N,*%
%TO.C,J3*%
X157650000Y-92000000D03*
X157650000Y-81000000D03*
D11*
%TO.N,+5V*%
X162650000Y-89000000D03*
D12*
%TO.N,GND*%
X162650000Y-84000000D03*
%TD*%
D10*
%TO.N,*%
%TO.C,J2*%
X195325000Y-92000000D03*
X195325000Y-81000000D03*
D11*
%TO.N,+5V*%
X185325000Y-89000000D03*
D12*
%TO.N,GND*%
X185325000Y-84000000D03*
%TD*%
D13*
%TO.N,+5V*%
%TO.C,C10*%
X168044698Y-97000000D03*
D14*
%TO.N,GND*%
X171544698Y-97000000D03*
%TD*%
D15*
%TO.N,+5V*%
X168200000Y-78100000D03*
X166500000Y-103200000D03*
X166500000Y-102200000D03*
X167300000Y-78100000D03*
X169100000Y-78100000D03*
X166500000Y-104300000D03*
X166500000Y-105300000D03*
%TO.N,GND*%
X156800000Y-88500000D03*
X173900000Y-94100000D03*
X157700000Y-88500000D03*
X193800000Y-82100000D03*
X173000000Y-95000000D03*
X156800000Y-85600000D03*
X186800000Y-103300000D03*
X180900000Y-82600000D03*
X180900000Y-81700000D03*
X162300000Y-107700000D03*
X192000000Y-87100000D03*
X186900000Y-93200000D03*
X155000000Y-89400000D03*
X171300000Y-109800000D03*
X190800000Y-74800000D03*
X188600000Y-103300000D03*
X172100000Y-94100000D03*
X161000000Y-93400000D03*
X174400000Y-103800000D03*
X157000000Y-99800000D03*
X171300000Y-108900000D03*
X161900000Y-94300000D03*
X170400000Y-108900000D03*
X193800000Y-91000000D03*
X186000000Y-94100000D03*
X192900000Y-82100000D03*
X162300000Y-109500000D03*
X191100000Y-87100000D03*
X191100000Y-90100000D03*
X163200000Y-110400000D03*
X187800000Y-94100000D03*
X156100000Y-98900000D03*
X156100000Y-99800000D03*
X181500000Y-109400000D03*
X195600000Y-99200000D03*
X174100000Y-84800000D03*
X155000000Y-83900000D03*
X190800000Y-73900000D03*
X187800000Y-93200000D03*
X185200000Y-80800000D03*
X182400000Y-109400000D03*
X188600000Y-104200000D03*
X173000000Y-94100000D03*
X192000000Y-83000000D03*
X189900000Y-73000000D03*
X180000000Y-81700000D03*
X175300000Y-103800000D03*
X192900000Y-90100000D03*
X157900000Y-99800000D03*
X176800000Y-85700000D03*
X157700000Y-89400000D03*
X155900000Y-83900000D03*
X157700000Y-86500000D03*
X193800000Y-83000000D03*
X180000000Y-80800000D03*
X176200000Y-104700000D03*
X176800000Y-84800000D03*
X155200000Y-98900000D03*
X189500000Y-104200000D03*
X180000000Y-79900000D03*
X183300000Y-110300000D03*
X155000000Y-83000000D03*
X156800000Y-86500000D03*
X191100000Y-83000000D03*
X189900000Y-74800000D03*
X190800000Y-73000000D03*
X175000000Y-84800000D03*
X155900000Y-89400000D03*
X193800000Y-90100000D03*
X186100000Y-79900000D03*
X186900000Y-94100000D03*
X173900000Y-95000000D03*
X156800000Y-89400000D03*
X192900000Y-91000000D03*
X191100000Y-86200000D03*
X192900000Y-86200000D03*
X163200000Y-107700000D03*
X157700000Y-83900000D03*
X185200000Y-79900000D03*
X157700000Y-83000000D03*
X193800000Y-86200000D03*
X192000000Y-86200000D03*
X186800000Y-104200000D03*
X192000000Y-82100000D03*
X185100000Y-93200000D03*
X157000000Y-98900000D03*
X176200000Y-103800000D03*
X177100000Y-103800000D03*
X169500000Y-108900000D03*
X162800000Y-93400000D03*
X155000000Y-88500000D03*
X190800000Y-75700000D03*
X157900000Y-98900000D03*
X184300000Y-79900000D03*
X184200000Y-110300000D03*
X168600000Y-109800000D03*
X192000000Y-91000000D03*
X169500000Y-109800000D03*
X185100000Y-94100000D03*
X186100000Y-80800000D03*
X155200000Y-99800000D03*
X163700000Y-94300000D03*
X171200000Y-94100000D03*
X156800000Y-83900000D03*
X192900000Y-83000000D03*
X175300000Y-104700000D03*
X191100000Y-82100000D03*
X194700000Y-100100000D03*
X155900000Y-85600000D03*
X155900000Y-83000000D03*
X156800000Y-83000000D03*
X170400000Y-109800000D03*
X155900000Y-86500000D03*
X180900000Y-80800000D03*
X161900000Y-93400000D03*
X192900000Y-87100000D03*
X180900000Y-79900000D03*
X163200000Y-109500000D03*
X189900000Y-75700000D03*
X171200000Y-95000000D03*
X195600000Y-100100000D03*
X193800000Y-87100000D03*
X157700000Y-85600000D03*
X174400000Y-104700000D03*
X187000000Y-79900000D03*
X177100000Y-104700000D03*
X175900000Y-85700000D03*
X194700000Y-99200000D03*
X187000000Y-80800000D03*
X155000000Y-86500000D03*
X189500000Y-103300000D03*
X162800000Y-94300000D03*
X192000000Y-90100000D03*
X174100000Y-85700000D03*
X189900000Y-73900000D03*
X180000000Y-82600000D03*
X182400000Y-110300000D03*
X172100000Y-95000000D03*
X187700000Y-103300000D03*
X181500000Y-110300000D03*
X163700000Y-93400000D03*
X197400000Y-99200000D03*
X184300000Y-80800000D03*
X174200000Y-78000000D03*
X163200000Y-108600000D03*
X168600000Y-108900000D03*
X161000000Y-94300000D03*
X191100000Y-91000000D03*
X196500000Y-99200000D03*
X186000000Y-93200000D03*
X183300000Y-109400000D03*
X175000000Y-85700000D03*
X196500000Y-100100000D03*
X197400000Y-100100000D03*
X187700000Y-104200000D03*
X155000000Y-85600000D03*
X162300000Y-110400000D03*
X184200000Y-109400000D03*
X162300000Y-108600000D03*
X155900000Y-88500000D03*
X175900000Y-84800000D03*
%TO.N,+3.3V*%
X175900000Y-75400000D03*
X178700000Y-81400000D03*
X169875000Y-81275000D03*
%TO.N,/NRST*%
X172300000Y-86500000D03*
X184217219Y-77602460D03*
X182000000Y-94100000D03*
X182000000Y-87600000D03*
X169300000Y-83300000D03*
%TO.N,/SWCLK*%
X182600000Y-97300000D03*
X181500000Y-84000000D03*
%TO.N,/HC_TRIG*%
X179300000Y-106800000D03*
X176300000Y-88849500D03*
%TO.N,/HC_ECHO*%
X175900000Y-89800000D03*
X179083177Y-107775701D03*
%TO.N,/CAN_H*%
X162200000Y-77200000D03*
X174200000Y-76600000D03*
%TO.N,/CAN_L*%
X187800000Y-98500000D03*
X161200000Y-77200000D03*
X174729735Y-75752424D03*
X187800000Y-101000000D03*
%TO.N,/SWDIO*%
X180510063Y-85474500D03*
X180000000Y-97300000D03*
%TO.N,Net-(J4-Pad2)*%
X165200000Y-86000000D03*
X166000000Y-106400000D03*
%TO.N,/CAN_TX*%
X181959563Y-85345278D03*
X181800000Y-78900000D03*
%TO.N,/CAN_RX*%
X182212299Y-86312299D03*
X183500000Y-73600000D03*
%TD*%
%TA.AperFunction,Conductor*%
%TO.N,+5V*%
G36*
X169642121Y-77520002D02*
G01*
X169688614Y-77573658D01*
X169700000Y-77626000D01*
X169700000Y-80281368D01*
X169679998Y-80349489D01*
X169626342Y-80395982D01*
X169600197Y-80404615D01*
X169592712Y-80406206D01*
X169586682Y-80408891D01*
X169586681Y-80408891D01*
X169424278Y-80481197D01*
X169424276Y-80481198D01*
X169418248Y-80483882D01*
X169263747Y-80596134D01*
X169135960Y-80738056D01*
X169040473Y-80903444D01*
X168981458Y-81085072D01*
X168961496Y-81275000D01*
X168981458Y-81464928D01*
X169040473Y-81646556D01*
X169135960Y-81811944D01*
X169263747Y-81953866D01*
X169418248Y-82066118D01*
X169424276Y-82068802D01*
X169424278Y-82068803D01*
X169586681Y-82141109D01*
X169592712Y-82143794D01*
X169600186Y-82145383D01*
X169600197Y-82145385D01*
X169600734Y-82145675D01*
X169605452Y-82147208D01*
X169605172Y-82148071D01*
X169662671Y-82179114D01*
X169696992Y-82241263D01*
X169700000Y-82268632D01*
X169700000Y-82300629D01*
X169679998Y-82368750D01*
X169626342Y-82415243D01*
X169556068Y-82425347D01*
X169547803Y-82423876D01*
X169401944Y-82392872D01*
X169401939Y-82392872D01*
X169395487Y-82391500D01*
X169204513Y-82391500D01*
X169198061Y-82392872D01*
X169198056Y-82392872D01*
X169111113Y-82411353D01*
X169017712Y-82431206D01*
X169011682Y-82433891D01*
X169011681Y-82433891D01*
X168849278Y-82506197D01*
X168849276Y-82506198D01*
X168843248Y-82508882D01*
X168688747Y-82621134D01*
X168560960Y-82763056D01*
X168465473Y-82928444D01*
X168406458Y-83110072D01*
X168386496Y-83300000D01*
X168406458Y-83489928D01*
X168465473Y-83671556D01*
X168560960Y-83836944D01*
X168688747Y-83978866D01*
X168843248Y-84091118D01*
X168849276Y-84093802D01*
X168849278Y-84093803D01*
X169011681Y-84166109D01*
X169017712Y-84168794D01*
X169111113Y-84188647D01*
X169198056Y-84207128D01*
X169198061Y-84207128D01*
X169204513Y-84208500D01*
X169395487Y-84208500D01*
X169401939Y-84207128D01*
X169401944Y-84207128D01*
X169547803Y-84176124D01*
X169618594Y-84181526D01*
X169675226Y-84224343D01*
X169699720Y-84290980D01*
X169700000Y-84299371D01*
X169700000Y-105674000D01*
X169679998Y-105742121D01*
X169626342Y-105788614D01*
X169574000Y-105800000D01*
X166738362Y-105800000D01*
X166670241Y-105779998D01*
X166644731Y-105758315D01*
X166611253Y-105721134D01*
X166456752Y-105608882D01*
X166450724Y-105606198D01*
X166450722Y-105606197D01*
X166288319Y-105533891D01*
X166288318Y-105533891D01*
X166282288Y-105531206D01*
X166179247Y-105509304D01*
X166099803Y-105492417D01*
X166037329Y-105458688D01*
X166003008Y-105396539D01*
X166000000Y-105369170D01*
X166000000Y-86465120D01*
X166016881Y-86402120D01*
X166031223Y-86377279D01*
X166031224Y-86377278D01*
X166034527Y-86371556D01*
X166093542Y-86189928D01*
X166113504Y-86000000D01*
X166093542Y-85810072D01*
X166034527Y-85628444D01*
X166016881Y-85597880D01*
X166000000Y-85534880D01*
X166000000Y-77626000D01*
X166020002Y-77557879D01*
X166073658Y-77511386D01*
X166126000Y-77500000D01*
X169574000Y-77500000D01*
X169642121Y-77520002D01*
G37*
%TD.AperFunction*%
%TD*%
%TA.AperFunction,Conductor*%
%TO.N,+5V*%
G36*
X164439718Y-86520002D02*
G01*
X164465230Y-86541687D01*
X164588747Y-86678866D01*
X164743248Y-86791118D01*
X164749276Y-86793802D01*
X164749278Y-86793803D01*
X164909799Y-86865271D01*
X164917712Y-86868794D01*
X165011112Y-86888647D01*
X165098056Y-86907128D01*
X165098061Y-86907128D01*
X165104513Y-86908500D01*
X165295487Y-86908500D01*
X165301939Y-86907128D01*
X165301944Y-86907128D01*
X165388887Y-86888647D01*
X165482288Y-86868794D01*
X165490201Y-86865271D01*
X165650722Y-86793803D01*
X165650724Y-86793802D01*
X165656752Y-86791118D01*
X165811253Y-86678866D01*
X165934768Y-86541688D01*
X165995213Y-86504450D01*
X166028403Y-86500000D01*
X171273045Y-86500000D01*
X171341166Y-86520002D01*
X171387659Y-86573658D01*
X171398355Y-86612830D01*
X171404780Y-86673959D01*
X171406458Y-86689928D01*
X171465473Y-86871556D01*
X171468776Y-86877278D01*
X171468777Y-86877279D01*
X171486803Y-86908500D01*
X171560960Y-87036944D01*
X171688747Y-87178866D01*
X171843248Y-87291118D01*
X171849276Y-87293802D01*
X171849278Y-87293803D01*
X172011681Y-87366109D01*
X172017712Y-87368794D01*
X172111112Y-87388647D01*
X172198056Y-87407128D01*
X172198061Y-87407128D01*
X172204513Y-87408500D01*
X172395487Y-87408500D01*
X172401939Y-87407128D01*
X172401944Y-87407128D01*
X172488888Y-87388647D01*
X172582288Y-87368794D01*
X172588319Y-87366109D01*
X172750722Y-87293803D01*
X172750724Y-87293802D01*
X172756752Y-87291118D01*
X172911253Y-87178866D01*
X173039040Y-87036944D01*
X173113197Y-86908500D01*
X173131223Y-86877279D01*
X173131224Y-86877278D01*
X173134527Y-86871556D01*
X173193542Y-86689928D01*
X173195221Y-86673959D01*
X173201645Y-86612830D01*
X173228658Y-86547173D01*
X173286879Y-86506543D01*
X173326955Y-86500000D01*
X173636415Y-86500000D01*
X173687663Y-86510893D01*
X173811676Y-86566107D01*
X173811679Y-86566108D01*
X173817712Y-86568794D01*
X173859340Y-86577642D01*
X173998056Y-86607128D01*
X173998061Y-86607128D01*
X174004513Y-86608500D01*
X174195487Y-86608500D01*
X174201939Y-86607128D01*
X174201944Y-86607128D01*
X174288887Y-86588647D01*
X174382288Y-86568794D01*
X174498752Y-86516941D01*
X174569118Y-86507507D01*
X174601246Y-86516940D01*
X174717712Y-86568794D01*
X174811112Y-86588647D01*
X174898056Y-86607128D01*
X174898061Y-86607128D01*
X174904513Y-86608500D01*
X175095487Y-86608500D01*
X175101939Y-86607128D01*
X175101944Y-86607128D01*
X175188887Y-86588647D01*
X175282288Y-86568794D01*
X175398752Y-86516941D01*
X175469118Y-86507507D01*
X175501246Y-86516940D01*
X175617712Y-86568794D01*
X175711112Y-86588647D01*
X175798056Y-86607128D01*
X175798061Y-86607128D01*
X175804513Y-86608500D01*
X175995487Y-86608500D01*
X176001939Y-86607128D01*
X176001944Y-86607128D01*
X176088887Y-86588647D01*
X176182288Y-86568794D01*
X176298752Y-86516941D01*
X176369118Y-86507507D01*
X176401246Y-86516940D01*
X176517712Y-86568794D01*
X176611112Y-86588647D01*
X176698056Y-86607128D01*
X176698061Y-86607128D01*
X176704513Y-86608500D01*
X176895487Y-86608500D01*
X176901939Y-86607128D01*
X176901944Y-86607128D01*
X177040660Y-86577642D01*
X177082288Y-86568794D01*
X177088321Y-86566108D01*
X177088324Y-86566107D01*
X177212337Y-86510893D01*
X177263585Y-86500000D01*
X181226489Y-86500000D01*
X181294610Y-86520002D01*
X181341103Y-86573658D01*
X181346322Y-86587063D01*
X181377772Y-86683855D01*
X181381075Y-86689577D01*
X181381076Y-86689578D01*
X181420998Y-86758725D01*
X181437736Y-86827721D01*
X181414515Y-86894812D01*
X181396193Y-86915358D01*
X181394088Y-86917254D01*
X181388747Y-86921134D01*
X181260960Y-87063056D01*
X181165473Y-87228444D01*
X181106458Y-87410072D01*
X181086496Y-87600000D01*
X181106458Y-87789928D01*
X181165473Y-87971556D01*
X181168776Y-87977278D01*
X181168777Y-87977279D01*
X181170756Y-87980706D01*
X181260960Y-88136944D01*
X181265378Y-88141851D01*
X181265379Y-88141852D01*
X181295716Y-88175545D01*
X181388747Y-88278866D01*
X181543248Y-88391118D01*
X181549276Y-88393802D01*
X181549278Y-88393803D01*
X181711681Y-88466109D01*
X181717712Y-88468794D01*
X181790328Y-88484229D01*
X181898056Y-88507128D01*
X181898061Y-88507128D01*
X181904513Y-88508500D01*
X182095487Y-88508500D01*
X182101939Y-88507128D01*
X182101944Y-88507128D01*
X182209672Y-88484229D01*
X182282288Y-88468794D01*
X182288319Y-88466109D01*
X182450722Y-88393803D01*
X182450724Y-88393802D01*
X182456752Y-88391118D01*
X182611253Y-88278866D01*
X182704284Y-88175545D01*
X182734621Y-88141852D01*
X182734622Y-88141851D01*
X182739040Y-88136944D01*
X182829244Y-87980706D01*
X182831223Y-87977279D01*
X182831224Y-87977278D01*
X182834527Y-87971556D01*
X182893542Y-87789928D01*
X182913504Y-87600000D01*
X182893542Y-87410072D01*
X182834527Y-87228444D01*
X182791301Y-87153574D01*
X182774563Y-87084578D01*
X182797784Y-87017487D01*
X182816106Y-86996941D01*
X182818211Y-86995045D01*
X182823552Y-86991165D01*
X182951339Y-86849243D01*
X183046826Y-86683855D01*
X183078276Y-86587063D01*
X183118350Y-86528458D01*
X183183747Y-86500821D01*
X183198109Y-86500000D01*
X187874000Y-86500000D01*
X187942121Y-86520002D01*
X187988614Y-86573658D01*
X188000000Y-86626000D01*
X188000000Y-91374000D01*
X187979998Y-91442121D01*
X187926342Y-91488614D01*
X187874000Y-91500000D01*
X160126000Y-91500000D01*
X160057879Y-91479998D01*
X160011386Y-91426342D01*
X160000000Y-91374000D01*
X160000000Y-89800000D01*
X174986496Y-89800000D01*
X175006458Y-89989928D01*
X175065473Y-90171556D01*
X175160960Y-90336944D01*
X175288747Y-90478866D01*
X175443248Y-90591118D01*
X175449276Y-90593802D01*
X175449278Y-90593803D01*
X175611681Y-90666109D01*
X175617712Y-90668794D01*
X175711113Y-90688647D01*
X175798056Y-90707128D01*
X175798061Y-90707128D01*
X175804513Y-90708500D01*
X175995487Y-90708500D01*
X176001939Y-90707128D01*
X176001944Y-90707128D01*
X176088887Y-90688647D01*
X176182288Y-90668794D01*
X176188319Y-90666109D01*
X176350722Y-90593803D01*
X176350724Y-90593802D01*
X176356752Y-90591118D01*
X176511253Y-90478866D01*
X176639040Y-90336944D01*
X176734527Y-90171556D01*
X176793542Y-89989928D01*
X176813504Y-89800000D01*
X176801519Y-89685965D01*
X176814291Y-89616127D01*
X176852767Y-89570860D01*
X176905906Y-89532251D01*
X176905907Y-89532250D01*
X176911253Y-89528366D01*
X177039040Y-89386444D01*
X177134527Y-89221056D01*
X177193542Y-89039428D01*
X177213504Y-88849500D01*
X177193542Y-88659572D01*
X177134527Y-88477944D01*
X177130037Y-88470166D01*
X177042341Y-88318274D01*
X177039040Y-88312556D01*
X177008706Y-88278866D01*
X176915675Y-88175545D01*
X176915674Y-88175544D01*
X176911253Y-88170634D01*
X176756752Y-88058382D01*
X176750724Y-88055698D01*
X176750722Y-88055697D01*
X176588319Y-87983391D01*
X176588318Y-87983391D01*
X176582288Y-87980706D01*
X176488888Y-87960853D01*
X176401944Y-87942372D01*
X176401939Y-87942372D01*
X176395487Y-87941000D01*
X176204513Y-87941000D01*
X176198061Y-87942372D01*
X176198056Y-87942372D01*
X176111113Y-87960853D01*
X176017712Y-87980706D01*
X176011682Y-87983391D01*
X176011681Y-87983391D01*
X175849278Y-88055697D01*
X175849276Y-88055698D01*
X175843248Y-88058382D01*
X175688747Y-88170634D01*
X175684326Y-88175544D01*
X175684325Y-88175545D01*
X175591295Y-88278866D01*
X175560960Y-88312556D01*
X175557659Y-88318274D01*
X175469964Y-88470166D01*
X175465473Y-88477944D01*
X175406458Y-88659572D01*
X175386496Y-88849500D01*
X175387186Y-88856065D01*
X175398481Y-88963535D01*
X175385709Y-89033373D01*
X175347233Y-89078640D01*
X175294094Y-89117249D01*
X175288747Y-89121134D01*
X175160960Y-89263056D01*
X175065473Y-89428444D01*
X175006458Y-89610072D01*
X174986496Y-89800000D01*
X160000000Y-89800000D01*
X160000000Y-86626000D01*
X160020002Y-86557879D01*
X160073658Y-86511386D01*
X160126000Y-86500000D01*
X164371597Y-86500000D01*
X164439718Y-86520002D01*
G37*
%TD.AperFunction*%
%TD*%
M02*
