%TF.GenerationSoftware,KiCad,Pcbnew,6.0.11-2627ca5db0~126~ubuntu20.04.1*%
%TF.CreationDate,2023-02-21T17:10:03+08:00*%
%TF.ProjectId,cityscope-can-module,63697479-7363-46f7-9065-2d63616e2d6d,v1.0*%
%TF.SameCoordinates,Original*%
%TF.FileFunction,Legend,Top*%
%TF.FilePolarity,Positive*%
%FSLAX46Y46*%
G04 Gerber Fmt 4.6, Leading zero omitted, Abs format (unit mm)*
G04 Created by KiCad (PCBNEW 6.0.11-2627ca5db0~126~ubuntu20.04.1) date 2023-02-21 17:10:03*
%MOMM*%
%LPD*%
G01*
G04 APERTURE LIST*
%ADD10C,0.150000*%
%ADD11C,0.120000*%
%ADD12C,0.250000*%
G04 APERTURE END LIST*
D10*
%TO.C,R1*%
X170658333Y-81802380D02*
X170325000Y-81326190D01*
X170086904Y-81802380D02*
X170086904Y-80802380D01*
X170467857Y-80802380D01*
X170563095Y-80850000D01*
X170610714Y-80897619D01*
X170658333Y-80992857D01*
X170658333Y-81135714D01*
X170610714Y-81230952D01*
X170563095Y-81278571D01*
X170467857Y-81326190D01*
X170086904Y-81326190D01*
X171610714Y-81802380D02*
X171039285Y-81802380D01*
X171325000Y-81802380D02*
X171325000Y-80802380D01*
X171229761Y-80945238D01*
X171134523Y-81040476D01*
X171039285Y-81088095D01*
%TO.C,C1*%
X169757142Y-82766666D02*
X169804761Y-82814285D01*
X169852380Y-82957142D01*
X169852380Y-83052380D01*
X169804761Y-83195238D01*
X169709523Y-83290476D01*
X169614285Y-83338095D01*
X169423809Y-83385714D01*
X169280952Y-83385714D01*
X169090476Y-83338095D01*
X168995238Y-83290476D01*
X168900000Y-83195238D01*
X168852380Y-83052380D01*
X168852380Y-82957142D01*
X168900000Y-82814285D01*
X168947619Y-82766666D01*
X169852380Y-81814285D02*
X169852380Y-82385714D01*
X169852380Y-82100000D02*
X168852380Y-82100000D01*
X168995238Y-82195238D01*
X169090476Y-82290476D01*
X169138095Y-82385714D01*
%TO.C,C2*%
X167833333Y-78857142D02*
X167785714Y-78904761D01*
X167642857Y-78952380D01*
X167547619Y-78952380D01*
X167404761Y-78904761D01*
X167309523Y-78809523D01*
X167261904Y-78714285D01*
X167214285Y-78523809D01*
X167214285Y-78380952D01*
X167261904Y-78190476D01*
X167309523Y-78095238D01*
X167404761Y-78000000D01*
X167547619Y-77952380D01*
X167642857Y-77952380D01*
X167785714Y-78000000D01*
X167833333Y-78047619D01*
X168214285Y-78047619D02*
X168261904Y-78000000D01*
X168357142Y-77952380D01*
X168595238Y-77952380D01*
X168690476Y-78000000D01*
X168738095Y-78047619D01*
X168785714Y-78142857D01*
X168785714Y-78238095D01*
X168738095Y-78380952D01*
X168166666Y-78952380D01*
X168785714Y-78952380D01*
%TO.C,J3*%
X146602380Y-86833333D02*
X147316666Y-86833333D01*
X147459523Y-86880952D01*
X147554761Y-86976190D01*
X147602380Y-87119047D01*
X147602380Y-87214285D01*
X146602380Y-86452380D02*
X146602380Y-85833333D01*
X146983333Y-86166666D01*
X146983333Y-86023809D01*
X147030952Y-85928571D01*
X147078571Y-85880952D01*
X147173809Y-85833333D01*
X147411904Y-85833333D01*
X147507142Y-85880952D01*
X147554761Y-85928571D01*
X147602380Y-86023809D01*
X147602380Y-86309523D01*
X147554761Y-86404761D01*
X147507142Y-86452380D01*
X155028571Y-78952380D02*
X155028571Y-77952380D01*
X155266666Y-77952380D01*
X155409523Y-78000000D01*
X155504761Y-78095238D01*
X155552380Y-78190476D01*
X155600000Y-78380952D01*
X155600000Y-78523809D01*
X155552380Y-78714285D01*
X155504761Y-78809523D01*
X155409523Y-78904761D01*
X155266666Y-78952380D01*
X155028571Y-78952380D01*
X156600000Y-78857142D02*
X156552380Y-78904761D01*
X156409523Y-78952380D01*
X156314285Y-78952380D01*
X156171428Y-78904761D01*
X156076190Y-78809523D01*
X156028571Y-78714285D01*
X155980952Y-78523809D01*
X155980952Y-78380952D01*
X156028571Y-78190476D01*
X156076190Y-78095238D01*
X156171428Y-78000000D01*
X156314285Y-77952380D01*
X156409523Y-77952380D01*
X156552380Y-78000000D01*
X156600000Y-78047619D01*
X156790476Y-79047619D02*
X157552380Y-79047619D01*
X157980952Y-77952380D02*
X158171428Y-77952380D01*
X158266666Y-78000000D01*
X158361904Y-78095238D01*
X158409523Y-78285714D01*
X158409523Y-78619047D01*
X158361904Y-78809523D01*
X158266666Y-78904761D01*
X158171428Y-78952380D01*
X157980952Y-78952380D01*
X157885714Y-78904761D01*
X157790476Y-78809523D01*
X157742857Y-78619047D01*
X157742857Y-78285714D01*
X157790476Y-78095238D01*
X157885714Y-78000000D01*
X157980952Y-77952380D01*
X158838095Y-77952380D02*
X158838095Y-78761904D01*
X158885714Y-78857142D01*
X158933333Y-78904761D01*
X159028571Y-78952380D01*
X159219047Y-78952380D01*
X159314285Y-78904761D01*
X159361904Y-78857142D01*
X159409523Y-78761904D01*
X159409523Y-77952380D01*
X159742857Y-77952380D02*
X160314285Y-77952380D01*
X160028571Y-78952380D02*
X160028571Y-77952380D01*
X162757142Y-92571428D02*
X162757142Y-91428571D01*
X162757142Y-81571428D02*
X162757142Y-80428571D01*
X163328571Y-81000000D02*
X162185714Y-81000000D01*
%TO.C,PS1*%
X164785714Y-73452380D02*
X164785714Y-72452380D01*
X165166666Y-72452380D01*
X165261904Y-72500000D01*
X165309523Y-72547619D01*
X165357142Y-72642857D01*
X165357142Y-72785714D01*
X165309523Y-72880952D01*
X165261904Y-72928571D01*
X165166666Y-72976190D01*
X164785714Y-72976190D01*
X165738095Y-73404761D02*
X165880952Y-73452380D01*
X166119047Y-73452380D01*
X166214285Y-73404761D01*
X166261904Y-73357142D01*
X166309523Y-73261904D01*
X166309523Y-73166666D01*
X166261904Y-73071428D01*
X166214285Y-73023809D01*
X166119047Y-72976190D01*
X165928571Y-72928571D01*
X165833333Y-72880952D01*
X165785714Y-72833333D01*
X165738095Y-72738095D01*
X165738095Y-72642857D01*
X165785714Y-72547619D01*
X165833333Y-72500000D01*
X165928571Y-72452380D01*
X166166666Y-72452380D01*
X166309523Y-72500000D01*
X167261904Y-73452380D02*
X166690476Y-73452380D01*
X166976190Y-73452380D02*
X166976190Y-72452380D01*
X166880952Y-72595238D01*
X166785714Y-72690476D01*
X166690476Y-72738095D01*
%TO.C,J2*%
X199277380Y-86833333D02*
X199991666Y-86833333D01*
X200134523Y-86880952D01*
X200229761Y-86976190D01*
X200277380Y-87119047D01*
X200277380Y-87214285D01*
X199372619Y-86404761D02*
X199325000Y-86357142D01*
X199277380Y-86261904D01*
X199277380Y-86023809D01*
X199325000Y-85928571D01*
X199372619Y-85880952D01*
X199467857Y-85833333D01*
X199563095Y-85833333D01*
X199705952Y-85880952D01*
X200277380Y-86452380D01*
X200277380Y-85833333D01*
X189395238Y-81052380D02*
X189395238Y-80052380D01*
X189633333Y-80052380D01*
X189776190Y-80100000D01*
X189871428Y-80195238D01*
X189919047Y-80290476D01*
X189966666Y-80480952D01*
X189966666Y-80623809D01*
X189919047Y-80814285D01*
X189871428Y-80909523D01*
X189776190Y-81004761D01*
X189633333Y-81052380D01*
X189395238Y-81052380D01*
X190966666Y-80957142D02*
X190919047Y-81004761D01*
X190776190Y-81052380D01*
X190680952Y-81052380D01*
X190538095Y-81004761D01*
X190442857Y-80909523D01*
X190395238Y-80814285D01*
X190347619Y-80623809D01*
X190347619Y-80480952D01*
X190395238Y-80290476D01*
X190442857Y-80195238D01*
X190538095Y-80100000D01*
X190680952Y-80052380D01*
X190776190Y-80052380D01*
X190919047Y-80100000D01*
X190966666Y-80147619D01*
X191157142Y-81147619D02*
X191919047Y-81147619D01*
X192157142Y-81052380D02*
X192157142Y-80052380D01*
X192633333Y-81052380D02*
X192633333Y-80052380D01*
X193204761Y-81052380D01*
X193204761Y-80052380D01*
X185432142Y-92571428D02*
X185432142Y-91428571D01*
X185432142Y-81571428D02*
X185432142Y-80428571D01*
X186003571Y-81000000D02*
X184860714Y-81000000D01*
%TO.C,U1*%
X178763095Y-82702380D02*
X178763095Y-83511904D01*
X178810714Y-83607142D01*
X178858333Y-83654761D01*
X178953571Y-83702380D01*
X179144047Y-83702380D01*
X179239285Y-83654761D01*
X179286904Y-83607142D01*
X179334523Y-83511904D01*
X179334523Y-82702380D01*
X180334523Y-83702380D02*
X179763095Y-83702380D01*
X180048809Y-83702380D02*
X180048809Y-82702380D01*
X179953571Y-82845238D01*
X179858333Y-82940476D01*
X179763095Y-82988095D01*
%TO.C,J6*%
X163366666Y-94952380D02*
X163366666Y-95666666D01*
X163319047Y-95809523D01*
X163223809Y-95904761D01*
X163080952Y-95952380D01*
X162985714Y-95952380D01*
X164271428Y-94952380D02*
X164080952Y-94952380D01*
X163985714Y-95000000D01*
X163938095Y-95047619D01*
X163842857Y-95190476D01*
X163795238Y-95380952D01*
X163795238Y-95761904D01*
X163842857Y-95857142D01*
X163890476Y-95904761D01*
X163985714Y-95952380D01*
X164176190Y-95952380D01*
X164271428Y-95904761D01*
X164319047Y-95857142D01*
X164366666Y-95761904D01*
X164366666Y-95523809D01*
X164319047Y-95428571D01*
X164271428Y-95380952D01*
X164176190Y-95333333D01*
X163985714Y-95333333D01*
X163890476Y-95380952D01*
X163842857Y-95428571D01*
X163795238Y-95523809D01*
X159557142Y-105057142D02*
X159509523Y-105104761D01*
X159366666Y-105152380D01*
X159271428Y-105152380D01*
X159128571Y-105104761D01*
X159033333Y-105009523D01*
X158985714Y-104914285D01*
X158938095Y-104723809D01*
X158938095Y-104580952D01*
X158985714Y-104390476D01*
X159033333Y-104295238D01*
X159128571Y-104200000D01*
X159271428Y-104152380D01*
X159366666Y-104152380D01*
X159509523Y-104200000D01*
X159557142Y-104247619D01*
X159938095Y-104866666D02*
X160414285Y-104866666D01*
X159842857Y-105152380D02*
X160176190Y-104152380D01*
X160509523Y-105152380D01*
X160842857Y-105152380D02*
X160842857Y-104152380D01*
X161414285Y-105152380D01*
X161414285Y-104152380D01*
%TO.C,C4*%
X181433333Y-91407142D02*
X181385714Y-91454761D01*
X181242857Y-91502380D01*
X181147619Y-91502380D01*
X181004761Y-91454761D01*
X180909523Y-91359523D01*
X180861904Y-91264285D01*
X180814285Y-91073809D01*
X180814285Y-90930952D01*
X180861904Y-90740476D01*
X180909523Y-90645238D01*
X181004761Y-90550000D01*
X181147619Y-90502380D01*
X181242857Y-90502380D01*
X181385714Y-90550000D01*
X181433333Y-90597619D01*
X182290476Y-90835714D02*
X182290476Y-91502380D01*
X182052380Y-90454761D02*
X181814285Y-91169047D01*
X182433333Y-91169047D01*
%TO.C,C5*%
X170757142Y-76366666D02*
X170804761Y-76414285D01*
X170852380Y-76557142D01*
X170852380Y-76652380D01*
X170804761Y-76795238D01*
X170709523Y-76890476D01*
X170614285Y-76938095D01*
X170423809Y-76985714D01*
X170280952Y-76985714D01*
X170090476Y-76938095D01*
X169995238Y-76890476D01*
X169900000Y-76795238D01*
X169852380Y-76652380D01*
X169852380Y-76557142D01*
X169900000Y-76414285D01*
X169947619Y-76366666D01*
X169852380Y-75461904D02*
X169852380Y-75938095D01*
X170328571Y-75985714D01*
X170280952Y-75938095D01*
X170233333Y-75842857D01*
X170233333Y-75604761D01*
X170280952Y-75509523D01*
X170328571Y-75461904D01*
X170423809Y-75414285D01*
X170661904Y-75414285D01*
X170757142Y-75461904D01*
X170804761Y-75509523D01*
X170852380Y-75604761D01*
X170852380Y-75842857D01*
X170804761Y-75938095D01*
X170757142Y-75985714D01*
%TO.C,J1*%
X176166666Y-94452380D02*
X176166666Y-95166666D01*
X176119047Y-95309523D01*
X176023809Y-95404761D01*
X175880952Y-95452380D01*
X175785714Y-95452380D01*
X177166666Y-95452380D02*
X176595238Y-95452380D01*
X176880952Y-95452380D02*
X176880952Y-94452380D01*
X176785714Y-94595238D01*
X176690476Y-94690476D01*
X176595238Y-94738095D01*
X177785714Y-100704761D02*
X177928571Y-100752380D01*
X178166666Y-100752380D01*
X178261904Y-100704761D01*
X178309523Y-100657142D01*
X178357142Y-100561904D01*
X178357142Y-100466666D01*
X178309523Y-100371428D01*
X178261904Y-100323809D01*
X178166666Y-100276190D01*
X177976190Y-100228571D01*
X177880952Y-100180952D01*
X177833333Y-100133333D01*
X177785714Y-100038095D01*
X177785714Y-99942857D01*
X177833333Y-99847619D01*
X177880952Y-99800000D01*
X177976190Y-99752380D01*
X178214285Y-99752380D01*
X178357142Y-99800000D01*
X178642857Y-99752380D02*
X179214285Y-99752380D01*
X178928571Y-100752380D02*
X178928571Y-99752380D01*
X179309523Y-100847619D02*
X180071428Y-100847619D01*
X180785714Y-100752380D02*
X180309523Y-100752380D01*
X180309523Y-99752380D01*
X181119047Y-100752380D02*
X181119047Y-99752380D01*
X181595238Y-100752380D02*
X181595238Y-99752380D01*
X182166666Y-100752380D01*
X182166666Y-99752380D01*
X182642857Y-100752380D02*
X182642857Y-99752380D01*
X183214285Y-100752380D02*
X182785714Y-100180952D01*
X183214285Y-99752380D02*
X182642857Y-100323809D01*
%TO.C,C3*%
X165833333Y-78857142D02*
X165785714Y-78904761D01*
X165642857Y-78952380D01*
X165547619Y-78952380D01*
X165404761Y-78904761D01*
X165309523Y-78809523D01*
X165261904Y-78714285D01*
X165214285Y-78523809D01*
X165214285Y-78380952D01*
X165261904Y-78190476D01*
X165309523Y-78095238D01*
X165404761Y-78000000D01*
X165547619Y-77952380D01*
X165642857Y-77952380D01*
X165785714Y-78000000D01*
X165833333Y-78047619D01*
X166166666Y-77952380D02*
X166785714Y-77952380D01*
X166452380Y-78333333D01*
X166595238Y-78333333D01*
X166690476Y-78380952D01*
X166738095Y-78428571D01*
X166785714Y-78523809D01*
X166785714Y-78761904D01*
X166738095Y-78857142D01*
X166690476Y-78904761D01*
X166595238Y-78952380D01*
X166309523Y-78952380D01*
X166214285Y-78904761D01*
X166166666Y-78857142D01*
%TO.C,R4*%
X167133333Y-89952380D02*
X166800000Y-89476190D01*
X166561904Y-89952380D02*
X166561904Y-88952380D01*
X166942857Y-88952380D01*
X167038095Y-89000000D01*
X167085714Y-89047619D01*
X167133333Y-89142857D01*
X167133333Y-89285714D01*
X167085714Y-89380952D01*
X167038095Y-89428571D01*
X166942857Y-89476190D01*
X166561904Y-89476190D01*
X167990476Y-89285714D02*
X167990476Y-89952380D01*
X167752380Y-88904761D02*
X167514285Y-89619047D01*
X168133333Y-89619047D01*
%TO.C,C6*%
X163857142Y-73666666D02*
X163904761Y-73714285D01*
X163952380Y-73857142D01*
X163952380Y-73952380D01*
X163904761Y-74095238D01*
X163809523Y-74190476D01*
X163714285Y-74238095D01*
X163523809Y-74285714D01*
X163380952Y-74285714D01*
X163190476Y-74238095D01*
X163095238Y-74190476D01*
X163000000Y-74095238D01*
X162952380Y-73952380D01*
X162952380Y-73857142D01*
X163000000Y-73714285D01*
X163047619Y-73666666D01*
X162952380Y-72809523D02*
X162952380Y-73000000D01*
X163000000Y-73095238D01*
X163047619Y-73142857D01*
X163190476Y-73238095D01*
X163380952Y-73285714D01*
X163761904Y-73285714D01*
X163857142Y-73238095D01*
X163904761Y-73190476D01*
X163952380Y-73095238D01*
X163952380Y-72904761D01*
X163904761Y-72809523D01*
X163857142Y-72761904D01*
X163761904Y-72714285D01*
X163523809Y-72714285D01*
X163428571Y-72761904D01*
X163380952Y-72809523D01*
X163333333Y-72904761D01*
X163333333Y-73095238D01*
X163380952Y-73190476D01*
X163428571Y-73238095D01*
X163523809Y-73285714D01*
%TO.C,J5*%
X176416666Y-101852380D02*
X176416666Y-102566666D01*
X176369047Y-102709523D01*
X176273809Y-102804761D01*
X176130952Y-102852380D01*
X176035714Y-102852380D01*
X177369047Y-101852380D02*
X176892857Y-101852380D01*
X176845238Y-102328571D01*
X176892857Y-102280952D01*
X176988095Y-102233333D01*
X177226190Y-102233333D01*
X177321428Y-102280952D01*
X177369047Y-102328571D01*
X177416666Y-102423809D01*
X177416666Y-102661904D01*
X177369047Y-102757142D01*
X177321428Y-102804761D01*
X177226190Y-102852380D01*
X176988095Y-102852380D01*
X176892857Y-102804761D01*
X176845238Y-102757142D01*
X190152380Y-111133333D02*
X189152380Y-111133333D01*
X189628571Y-111133333D02*
X189628571Y-110561904D01*
X190152380Y-110561904D02*
X189152380Y-110561904D01*
X190057142Y-109514285D02*
X190104761Y-109561904D01*
X190152380Y-109704761D01*
X190152380Y-109800000D01*
X190104761Y-109942857D01*
X190009523Y-110038095D01*
X189914285Y-110085714D01*
X189723809Y-110133333D01*
X189580952Y-110133333D01*
X189390476Y-110085714D01*
X189295238Y-110038095D01*
X189200000Y-109942857D01*
X189152380Y-109800000D01*
X189152380Y-109704761D01*
X189200000Y-109561904D01*
X189247619Y-109514285D01*
X189771428Y-109085714D02*
X189771428Y-108323809D01*
X190104761Y-107895238D02*
X190152380Y-107752380D01*
X190152380Y-107514285D01*
X190104761Y-107419047D01*
X190057142Y-107371428D01*
X189961904Y-107323809D01*
X189866666Y-107323809D01*
X189771428Y-107371428D01*
X189723809Y-107419047D01*
X189676190Y-107514285D01*
X189628571Y-107704761D01*
X189580952Y-107800000D01*
X189533333Y-107847619D01*
X189438095Y-107895238D01*
X189342857Y-107895238D01*
X189247619Y-107847619D01*
X189200000Y-107800000D01*
X189152380Y-107704761D01*
X189152380Y-107466666D01*
X189200000Y-107323809D01*
X190152380Y-106323809D02*
X189676190Y-106657142D01*
X190152380Y-106895238D02*
X189152380Y-106895238D01*
X189152380Y-106514285D01*
X189200000Y-106419047D01*
X189247619Y-106371428D01*
X189342857Y-106323809D01*
X189485714Y-106323809D01*
X189580952Y-106371428D01*
X189628571Y-106419047D01*
X189676190Y-106514285D01*
X189676190Y-106895238D01*
X189152380Y-105704761D02*
X189152380Y-105609523D01*
X189200000Y-105514285D01*
X189247619Y-105466666D01*
X189342857Y-105419047D01*
X189533333Y-105371428D01*
X189771428Y-105371428D01*
X189961904Y-105419047D01*
X190057142Y-105466666D01*
X190104761Y-105514285D01*
X190152380Y-105609523D01*
X190152380Y-105704761D01*
X190104761Y-105800000D01*
X190057142Y-105847619D01*
X189961904Y-105895238D01*
X189771428Y-105942857D01*
X189533333Y-105942857D01*
X189342857Y-105895238D01*
X189247619Y-105847619D01*
X189200000Y-105800000D01*
X189152380Y-105704761D01*
X189485714Y-104514285D02*
X190152380Y-104514285D01*
X189104761Y-104752380D02*
X189819047Y-104990476D01*
X189819047Y-104371428D01*
%TO.C,C7*%
X169757142Y-86766666D02*
X169804761Y-86814285D01*
X169852380Y-86957142D01*
X169852380Y-87052380D01*
X169804761Y-87195238D01*
X169709523Y-87290476D01*
X169614285Y-87338095D01*
X169423809Y-87385714D01*
X169280952Y-87385714D01*
X169090476Y-87338095D01*
X168995238Y-87290476D01*
X168900000Y-87195238D01*
X168852380Y-87052380D01*
X168852380Y-86957142D01*
X168900000Y-86814285D01*
X168947619Y-86766666D01*
X168852380Y-86433333D02*
X168852380Y-85766666D01*
X169852380Y-86195238D01*
%TO.C,SW1*%
X183166666Y-76404761D02*
X183309523Y-76452380D01*
X183547619Y-76452380D01*
X183642857Y-76404761D01*
X183690476Y-76357142D01*
X183738095Y-76261904D01*
X183738095Y-76166666D01*
X183690476Y-76071428D01*
X183642857Y-76023809D01*
X183547619Y-75976190D01*
X183357142Y-75928571D01*
X183261904Y-75880952D01*
X183214285Y-75833333D01*
X183166666Y-75738095D01*
X183166666Y-75642857D01*
X183214285Y-75547619D01*
X183261904Y-75500000D01*
X183357142Y-75452380D01*
X183595238Y-75452380D01*
X183738095Y-75500000D01*
X184071428Y-75452380D02*
X184309523Y-76452380D01*
X184500000Y-75738095D01*
X184690476Y-76452380D01*
X184928571Y-75452380D01*
X185833333Y-76452380D02*
X185261904Y-76452380D01*
X185547619Y-76452380D02*
X185547619Y-75452380D01*
X185452380Y-75595238D01*
X185357142Y-75690476D01*
X185261904Y-75738095D01*
X183952380Y-79852380D02*
X183619047Y-79376190D01*
X183380952Y-79852380D02*
X183380952Y-78852380D01*
X183761904Y-78852380D01*
X183857142Y-78900000D01*
X183904761Y-78947619D01*
X183952380Y-79042857D01*
X183952380Y-79185714D01*
X183904761Y-79280952D01*
X183857142Y-79328571D01*
X183761904Y-79376190D01*
X183380952Y-79376190D01*
X184333333Y-79804761D02*
X184476190Y-79852380D01*
X184714285Y-79852380D01*
X184809523Y-79804761D01*
X184857142Y-79757142D01*
X184904761Y-79661904D01*
X184904761Y-79566666D01*
X184857142Y-79471428D01*
X184809523Y-79423809D01*
X184714285Y-79376190D01*
X184523809Y-79328571D01*
X184428571Y-79280952D01*
X184380952Y-79233333D01*
X184333333Y-79138095D01*
X184333333Y-79042857D01*
X184380952Y-78947619D01*
X184428571Y-78900000D01*
X184523809Y-78852380D01*
X184761904Y-78852380D01*
X184904761Y-78900000D01*
X185190476Y-78852380D02*
X185761904Y-78852380D01*
X185476190Y-79852380D02*
X185476190Y-78852380D01*
%TO.C,J7*%
X189166666Y-95452380D02*
X189166666Y-96166666D01*
X189119047Y-96309523D01*
X189023809Y-96404761D01*
X188880952Y-96452380D01*
X188785714Y-96452380D01*
X189547619Y-95452380D02*
X190214285Y-95452380D01*
X189785714Y-96452380D01*
X191557142Y-105157142D02*
X191509523Y-105204761D01*
X191366666Y-105252380D01*
X191271428Y-105252380D01*
X191128571Y-105204761D01*
X191033333Y-105109523D01*
X190985714Y-105014285D01*
X190938095Y-104823809D01*
X190938095Y-104680952D01*
X190985714Y-104490476D01*
X191033333Y-104395238D01*
X191128571Y-104300000D01*
X191271428Y-104252380D01*
X191366666Y-104252380D01*
X191509523Y-104300000D01*
X191557142Y-104347619D01*
X191938095Y-104966666D02*
X192414285Y-104966666D01*
X191842857Y-105252380D02*
X192176190Y-104252380D01*
X192509523Y-105252380D01*
X192842857Y-105252380D02*
X192842857Y-104252380D01*
X193414285Y-105252380D01*
X193414285Y-104252380D01*
%TO.C,C8*%
X169757142Y-84966666D02*
X169804761Y-85014285D01*
X169852380Y-85157142D01*
X169852380Y-85252380D01*
X169804761Y-85395238D01*
X169709523Y-85490476D01*
X169614285Y-85538095D01*
X169423809Y-85585714D01*
X169280952Y-85585714D01*
X169090476Y-85538095D01*
X168995238Y-85490476D01*
X168900000Y-85395238D01*
X168852380Y-85252380D01*
X168852380Y-85157142D01*
X168900000Y-85014285D01*
X168947619Y-84966666D01*
X169280952Y-84395238D02*
X169233333Y-84490476D01*
X169185714Y-84538095D01*
X169090476Y-84585714D01*
X169042857Y-84585714D01*
X168947619Y-84538095D01*
X168900000Y-84490476D01*
X168852380Y-84395238D01*
X168852380Y-84204761D01*
X168900000Y-84109523D01*
X168947619Y-84061904D01*
X169042857Y-84014285D01*
X169090476Y-84014285D01*
X169185714Y-84061904D01*
X169233333Y-84109523D01*
X169280952Y-84204761D01*
X169280952Y-84395238D01*
X169328571Y-84490476D01*
X169376190Y-84538095D01*
X169471428Y-84585714D01*
X169661904Y-84585714D01*
X169757142Y-84538095D01*
X169804761Y-84490476D01*
X169852380Y-84395238D01*
X169852380Y-84204761D01*
X169804761Y-84109523D01*
X169757142Y-84061904D01*
X169661904Y-84014285D01*
X169471428Y-84014285D01*
X169376190Y-84061904D01*
X169328571Y-84109523D01*
X169280952Y-84204761D01*
%TO.C,J4*%
X165166666Y-101852380D02*
X165166666Y-102566666D01*
X165119047Y-102709523D01*
X165023809Y-102804761D01*
X164880952Y-102852380D01*
X164785714Y-102852380D01*
X166071428Y-102185714D02*
X166071428Y-102852380D01*
X165833333Y-101804761D02*
X165595238Y-102519047D01*
X166214285Y-102519047D01*
X163952380Y-111200000D02*
X162952380Y-111200000D01*
X163952380Y-110628571D01*
X162952380Y-110628571D01*
X163904761Y-109771428D02*
X163952380Y-109866666D01*
X163952380Y-110057142D01*
X163904761Y-110152380D01*
X163809523Y-110200000D01*
X163428571Y-110200000D01*
X163333333Y-110152380D01*
X163285714Y-110057142D01*
X163285714Y-109866666D01*
X163333333Y-109771428D01*
X163428571Y-109723809D01*
X163523809Y-109723809D01*
X163619047Y-110200000D01*
X163952380Y-109152380D02*
X163904761Y-109247619D01*
X163857142Y-109295238D01*
X163761904Y-109342857D01*
X163476190Y-109342857D01*
X163380952Y-109295238D01*
X163333333Y-109247619D01*
X163285714Y-109152380D01*
X163285714Y-109009523D01*
X163333333Y-108914285D01*
X163380952Y-108866666D01*
X163476190Y-108819047D01*
X163761904Y-108819047D01*
X163857142Y-108866666D01*
X163904761Y-108914285D01*
X163952380Y-109009523D01*
X163952380Y-109152380D01*
X163952380Y-108390476D02*
X162952380Y-108390476D01*
X162952380Y-108009523D01*
X163000000Y-107914285D01*
X163047619Y-107866666D01*
X163142857Y-107819047D01*
X163285714Y-107819047D01*
X163380952Y-107866666D01*
X163428571Y-107914285D01*
X163476190Y-108009523D01*
X163476190Y-108390476D01*
X163952380Y-107390476D02*
X163285714Y-107390476D01*
X162952380Y-107390476D02*
X163000000Y-107438095D01*
X163047619Y-107390476D01*
X163000000Y-107342857D01*
X162952380Y-107390476D01*
X163047619Y-107390476D01*
X163952380Y-107009523D02*
X163285714Y-106485714D01*
X163285714Y-107009523D02*
X163952380Y-106485714D01*
X163904761Y-105723809D02*
X163952380Y-105819047D01*
X163952380Y-106009523D01*
X163904761Y-106104761D01*
X163809523Y-106152380D01*
X163428571Y-106152380D01*
X163333333Y-106104761D01*
X163285714Y-106009523D01*
X163285714Y-105819047D01*
X163333333Y-105723809D01*
X163428571Y-105676190D01*
X163523809Y-105676190D01*
X163619047Y-106152380D01*
X163952380Y-105104761D02*
X163904761Y-105200000D01*
X163809523Y-105247619D01*
X162952380Y-105247619D01*
%TO.C,C9*%
X186857142Y-99166666D02*
X186904761Y-99214285D01*
X186952380Y-99357142D01*
X186952380Y-99452380D01*
X186904761Y-99595238D01*
X186809523Y-99690476D01*
X186714285Y-99738095D01*
X186523809Y-99785714D01*
X186380952Y-99785714D01*
X186190476Y-99738095D01*
X186095238Y-99690476D01*
X186000000Y-99595238D01*
X185952380Y-99452380D01*
X185952380Y-99357142D01*
X186000000Y-99214285D01*
X186047619Y-99166666D01*
X186952380Y-98690476D02*
X186952380Y-98500000D01*
X186904761Y-98404761D01*
X186857142Y-98357142D01*
X186714285Y-98261904D01*
X186523809Y-98214285D01*
X186142857Y-98214285D01*
X186047619Y-98261904D01*
X186000000Y-98309523D01*
X185952380Y-98404761D01*
X185952380Y-98595238D01*
X186000000Y-98690476D01*
X186047619Y-98738095D01*
X186142857Y-98785714D01*
X186380952Y-98785714D01*
X186476190Y-98738095D01*
X186523809Y-98690476D01*
X186571428Y-98595238D01*
X186571428Y-98404761D01*
X186523809Y-98309523D01*
X186476190Y-98261904D01*
X186380952Y-98214285D01*
%TO.C,U2*%
X171238095Y-72452380D02*
X171238095Y-73261904D01*
X171285714Y-73357142D01*
X171333333Y-73404761D01*
X171428571Y-73452380D01*
X171619047Y-73452380D01*
X171714285Y-73404761D01*
X171761904Y-73357142D01*
X171809523Y-73261904D01*
X171809523Y-72452380D01*
X172238095Y-72547619D02*
X172285714Y-72500000D01*
X172380952Y-72452380D01*
X172619047Y-72452380D01*
X172714285Y-72500000D01*
X172761904Y-72547619D01*
X172809523Y-72642857D01*
X172809523Y-72738095D01*
X172761904Y-72880952D01*
X172190476Y-73452380D01*
X172809523Y-73452380D01*
%TO.C,C10*%
X173157142Y-101157142D02*
X173109523Y-101204761D01*
X172966666Y-101252380D01*
X172871428Y-101252380D01*
X172728571Y-101204761D01*
X172633333Y-101109523D01*
X172585714Y-101014285D01*
X172538095Y-100823809D01*
X172538095Y-100680952D01*
X172585714Y-100490476D01*
X172633333Y-100395238D01*
X172728571Y-100300000D01*
X172871428Y-100252380D01*
X172966666Y-100252380D01*
X173109523Y-100300000D01*
X173157142Y-100347619D01*
X174109523Y-101252380D02*
X173538095Y-101252380D01*
X173823809Y-101252380D02*
X173823809Y-100252380D01*
X173728571Y-100395238D01*
X173633333Y-100490476D01*
X173538095Y-100538095D01*
X174728571Y-100252380D02*
X174823809Y-100252380D01*
X174919047Y-100300000D01*
X174966666Y-100347619D01*
X175014285Y-100442857D01*
X175061904Y-100633333D01*
X175061904Y-100871428D01*
X175014285Y-101061904D01*
X174966666Y-101157142D01*
X174919047Y-101204761D01*
X174823809Y-101252380D01*
X174728571Y-101252380D01*
X174633333Y-101204761D01*
X174585714Y-101157142D01*
X174538095Y-101061904D01*
X174490476Y-100871428D01*
X174490476Y-100633333D01*
X174538095Y-100442857D01*
X174585714Y-100347619D01*
X174633333Y-100300000D01*
X174728571Y-100252380D01*
%TO.C,D1*%
X178586904Y-80102380D02*
X178586904Y-79102380D01*
X178825000Y-79102380D01*
X178967857Y-79150000D01*
X179063095Y-79245238D01*
X179110714Y-79340476D01*
X179158333Y-79530952D01*
X179158333Y-79673809D01*
X179110714Y-79864285D01*
X179063095Y-79959523D01*
X178967857Y-80054761D01*
X178825000Y-80102380D01*
X178586904Y-80102380D01*
X180110714Y-80102380D02*
X179539285Y-80102380D01*
X179825000Y-80102380D02*
X179825000Y-79102380D01*
X179729761Y-79245238D01*
X179634523Y-79340476D01*
X179539285Y-79388095D01*
D11*
%TO.C,R1*%
X172962742Y-80777500D02*
X173437258Y-80777500D01*
X172962742Y-81822500D02*
X173437258Y-81822500D01*
%TO.C,C1*%
X167365580Y-82690000D02*
X167084420Y-82690000D01*
X167365580Y-83710000D02*
X167084420Y-83710000D01*
%TO.C,C2*%
X167590000Y-80359420D02*
X167590000Y-80640580D01*
X168610000Y-80359420D02*
X168610000Y-80640580D01*
%TO.C,J3*%
X154490000Y-91560000D02*
X156540000Y-91560000D01*
X158760000Y-92260000D02*
X158760000Y-80740000D01*
X148490000Y-81970000D02*
X154490000Y-81970000D01*
X156540000Y-81440000D02*
X156540000Y-80740000D01*
X154490000Y-81440000D02*
X156540000Y-81440000D01*
X154490000Y-81970000D02*
X154490000Y-81440000D01*
X156540000Y-92260000D02*
X156540000Y-91560000D01*
X148490000Y-91030000D02*
X154490000Y-91030000D01*
X154490000Y-91560000D02*
X154490000Y-91030000D01*
X148490000Y-91030000D02*
X148490000Y-82000000D01*
X156540000Y-92150000D02*
G75*
G03*
X158746635Y-92321729I1110000J1D01*
G01*
X158760000Y-80850000D02*
G75*
G03*
X156540000Y-80850000I-1110000J0D01*
G01*
D12*
%TO.C,PS1*%
X167975000Y-73655000D02*
G75*
G03*
X167975000Y-73655000I-125000J0D01*
G01*
D11*
%TO.C,TP1*%
X170900000Y-78700000D02*
G75*
G03*
X170900000Y-78700000I-700000J0D01*
G01*
%TO.C,J2*%
X194215000Y-81440000D02*
X189315000Y-81440000D01*
X189315000Y-81440000D02*
X189315000Y-91560000D01*
X196435000Y-80850000D02*
X196435000Y-81440000D01*
X198535000Y-91560000D02*
X196435000Y-91560000D01*
X198535000Y-81440000D02*
X198535000Y-91560000D01*
X194215000Y-80850000D02*
X194215000Y-81440000D01*
X194215000Y-91560000D02*
X189315000Y-91560000D01*
X196435000Y-91560000D02*
X196435000Y-92150000D01*
X198535000Y-81440000D02*
X196435000Y-81440000D01*
X194215000Y-91560000D02*
X194215000Y-92150000D01*
X194215000Y-92150000D02*
G75*
G03*
X196435000Y-92150000I1110000J0D01*
G01*
X196435000Y-80850000D02*
G75*
G03*
X194215000Y-80850000I-1110000J0D01*
G01*
%TO.C,U1*%
X178635000Y-83940000D02*
X178635000Y-84240000D01*
X178335000Y-83940000D02*
X178635000Y-83940000D01*
X178635000Y-91160000D02*
X178635000Y-90860000D01*
X171415000Y-84240000D02*
X170100000Y-84240000D01*
X171415000Y-91160000D02*
X171415000Y-90860000D01*
X178335000Y-91160000D02*
X178635000Y-91160000D01*
X171715000Y-83940000D02*
X171415000Y-83940000D01*
X171715000Y-91160000D02*
X171415000Y-91160000D01*
X171415000Y-83940000D02*
X171415000Y-84240000D01*
%TO.C,TP3*%
X162500000Y-73400000D02*
G75*
G03*
X162500000Y-73400000I-700000J0D01*
G01*
%TO.C,J6*%
X160910000Y-97740000D02*
X163800000Y-97740000D01*
X160910000Y-102540000D02*
X160910000Y-101260000D01*
X158260000Y-95440000D02*
X162510000Y-95440000D01*
X154690000Y-97160000D02*
X154690000Y-101840000D01*
X162510000Y-95440000D02*
X162510000Y-96460000D01*
X160910000Y-96460000D02*
X160910000Y-97740000D01*
X162510000Y-102540000D02*
X160910000Y-102540000D01*
X158260000Y-103560000D02*
X162510000Y-103560000D01*
X162510000Y-103560000D02*
X162510000Y-102540000D01*
X162510000Y-96460000D02*
X160910000Y-96460000D01*
%TO.C,TP2*%
X170900000Y-73100000D02*
G75*
G03*
X170900000Y-73100000I-700000J0D01*
G01*
%TO.C,C4*%
X180784420Y-93110000D02*
X181065580Y-93110000D01*
X180784420Y-92090000D02*
X181065580Y-92090000D01*
%TO.C,C5*%
X168390000Y-76039420D02*
X168390000Y-76320580D01*
X169410000Y-76039420D02*
X169410000Y-76320580D01*
%TO.C,J1*%
X183560000Y-95890000D02*
X183560000Y-94900000D01*
X176390000Y-97040000D02*
X176390000Y-95890000D01*
X183440000Y-99010000D02*
X177560000Y-99010000D01*
X184610000Y-95890000D02*
X183560000Y-95890000D01*
X176390000Y-95890000D02*
X177440000Y-95890000D01*
X184610000Y-97040000D02*
X184610000Y-95890000D01*
%TO.C,C3*%
X166860000Y-80359420D02*
X166860000Y-80640580D01*
X165840000Y-80359420D02*
X165840000Y-80640580D01*
%TO.C,R4*%
X166987742Y-87477500D02*
X167462258Y-87477500D01*
X166987742Y-88522500D02*
X167462258Y-88522500D01*
%TO.C,C6*%
X164010000Y-76089420D02*
X164010000Y-76370580D01*
X162990000Y-76089420D02*
X162990000Y-76370580D01*
%TO.C,J5*%
X187290000Y-105190000D02*
X186010000Y-105190000D01*
X178490000Y-105190000D02*
X178490000Y-102300000D01*
X188310000Y-103590000D02*
X187290000Y-103590000D01*
X177210000Y-103590000D02*
X177210000Y-105190000D01*
X176190000Y-107840000D02*
X176190000Y-103590000D01*
X187290000Y-103590000D02*
X187290000Y-105190000D01*
X188310000Y-107840000D02*
X188310000Y-103590000D01*
X177210000Y-105190000D02*
X178490000Y-105190000D01*
X177910000Y-111410000D02*
X186590000Y-111410000D01*
X176190000Y-103590000D02*
X177210000Y-103590000D01*
%TO.C,C7*%
X167084420Y-85890000D02*
X167365580Y-85890000D01*
X167084420Y-86910000D02*
X167365580Y-86910000D01*
%TO.C,R3*%
X172962742Y-80322500D02*
X173437258Y-80322500D01*
X172962742Y-79277500D02*
X173437258Y-79277500D01*
%TO.C,SW1*%
X182130000Y-78370000D02*
X186870000Y-78370000D01*
X182130000Y-77030000D02*
X182130000Y-74970000D01*
X186870000Y-77030000D02*
X186870000Y-74970000D01*
X182130000Y-73630000D02*
X186870000Y-73630000D01*
X186870000Y-78370000D02*
X186870000Y-77970000D01*
X182130000Y-78370000D02*
X182130000Y-77970000D01*
X186870000Y-73630000D02*
X186870000Y-74030000D01*
X182130000Y-73630000D02*
X182130000Y-74030000D01*
%TO.C,J7*%
X194940000Y-95440000D02*
X190690000Y-95440000D01*
X192290000Y-102540000D02*
X192290000Y-101260000D01*
X198510000Y-101840000D02*
X198510000Y-97160000D01*
X194940000Y-103560000D02*
X190690000Y-103560000D01*
X190690000Y-103560000D02*
X190690000Y-102540000D01*
X190690000Y-95440000D02*
X190690000Y-96460000D01*
X190690000Y-102540000D02*
X192290000Y-102540000D01*
X190690000Y-96460000D02*
X192290000Y-96460000D01*
X192290000Y-96460000D02*
X192290000Y-97740000D01*
X192290000Y-101260000D02*
X189400000Y-101260000D01*
%TO.C,C8*%
X167084420Y-85310000D02*
X167365580Y-85310000D01*
X167084420Y-84290000D02*
X167365580Y-84290000D01*
%TO.C,R2*%
X175502500Y-80787258D02*
X175502500Y-80312742D01*
X176547500Y-80787258D02*
X176547500Y-80312742D01*
%TO.C,J4*%
X167240000Y-105190000D02*
X167240000Y-102300000D01*
X175060000Y-103590000D02*
X174040000Y-103590000D01*
X175060000Y-107840000D02*
X175060000Y-103590000D01*
X166660000Y-111410000D02*
X173340000Y-111410000D01*
X174040000Y-103590000D02*
X174040000Y-105190000D01*
X165960000Y-105190000D02*
X167240000Y-105190000D01*
X164940000Y-103590000D02*
X165960000Y-103590000D01*
X174040000Y-105190000D02*
X172760000Y-105190000D01*
X165960000Y-103590000D02*
X165960000Y-105190000D01*
X164940000Y-107840000D02*
X164940000Y-103590000D01*
%TO.C,C9*%
X187010000Y-96415580D02*
X187010000Y-96134420D01*
X185990000Y-96415580D02*
X185990000Y-96134420D01*
%TO.C,U2*%
X175000000Y-73440000D02*
X176950000Y-73440000D01*
X175000000Y-78560000D02*
X178450000Y-78560000D01*
X175000000Y-78560000D02*
X173050000Y-78560000D01*
X175000000Y-73440000D02*
X173050000Y-73440000D01*
%TO.C,C10*%
X171955698Y-93531000D02*
X171955698Y-95960000D01*
X170515698Y-98040000D02*
X170515698Y-101017000D01*
X173035698Y-94495000D02*
X173035698Y-99505000D01*
X171875698Y-93483000D02*
X171875698Y-95960000D01*
X173635698Y-95547000D02*
X173635698Y-98453000D01*
X165785000Y-94285000D02*
X165785000Y-95085000D01*
X171155698Y-93150000D02*
X171155698Y-95960000D01*
X172315698Y-98040000D02*
X172315698Y-100220000D01*
X173475698Y-95187000D02*
X173475698Y-98813000D01*
X172155698Y-93662000D02*
X172155698Y-95960000D01*
X171675698Y-98040000D02*
X171675698Y-100627000D01*
X171475698Y-98040000D02*
X171475698Y-100722000D01*
X172235698Y-93720000D02*
X172235698Y-95960000D01*
X172435698Y-93876000D02*
X172435698Y-95960000D01*
X171115698Y-98040000D02*
X171115698Y-100863000D01*
X171435698Y-93260000D02*
X171435698Y-95960000D01*
X171315698Y-93210000D02*
X171315698Y-95960000D01*
X170635698Y-98040000D02*
X170635698Y-100994000D01*
X171435698Y-98040000D02*
X171435698Y-100740000D01*
X165385000Y-94685000D02*
X166185000Y-94685000D01*
X170755698Y-98040000D02*
X170755698Y-100967000D01*
X172395698Y-93844000D02*
X172395698Y-95960000D01*
X170835698Y-98040000D02*
X170835698Y-100947000D01*
X171035698Y-93111000D02*
X171035698Y-95960000D01*
X172515698Y-93945000D02*
X172515698Y-95960000D01*
X171355698Y-93226000D02*
X171355698Y-95960000D01*
X171915698Y-98040000D02*
X171915698Y-100493000D01*
X170354698Y-92958000D02*
X170354698Y-101042000D01*
X171955698Y-98040000D02*
X171955698Y-100469000D01*
X172035698Y-93582000D02*
X172035698Y-95960000D01*
X173115698Y-94600000D02*
X173115698Y-99400000D01*
X170915698Y-93075000D02*
X170915698Y-95960000D01*
X170995698Y-93098000D02*
X170995698Y-95960000D01*
X173835698Y-96232000D02*
X173835698Y-97768000D01*
X171795698Y-98040000D02*
X171795698Y-100562000D01*
X172555698Y-93981000D02*
X172555698Y-95960000D01*
X171395698Y-93243000D02*
X171395698Y-95960000D01*
X171995698Y-93556000D02*
X171995698Y-95960000D01*
X170555698Y-98040000D02*
X170555698Y-101010000D01*
X171075698Y-93123000D02*
X171075698Y-95960000D01*
X170995698Y-98040000D02*
X170995698Y-100902000D01*
X172755698Y-94174000D02*
X172755698Y-99826000D01*
X171875698Y-98040000D02*
X171875698Y-100517000D01*
X171515698Y-93296000D02*
X171515698Y-95960000D01*
X170515698Y-92983000D02*
X170515698Y-95960000D01*
X173435698Y-95110000D02*
X173435698Y-98890000D01*
X173515698Y-95269000D02*
X173515698Y-98731000D01*
X172035698Y-98040000D02*
X172035698Y-100418000D01*
X170114698Y-92932000D02*
X170114698Y-101068000D01*
X169794698Y-92920000D02*
X169794698Y-101080000D01*
X173555698Y-95355000D02*
X173555698Y-98645000D01*
X170715698Y-93024000D02*
X170715698Y-95960000D01*
X172875698Y-94303000D02*
X172875698Y-99697000D01*
X171355698Y-98040000D02*
X171355698Y-100774000D01*
X172835698Y-94259000D02*
X172835698Y-99741000D01*
X172075698Y-98040000D02*
X172075698Y-100392000D01*
X171555698Y-98040000D02*
X171555698Y-100686000D01*
X172475698Y-98040000D02*
X172475698Y-100090000D01*
X171115698Y-93137000D02*
X171115698Y-95960000D01*
X170154698Y-92935000D02*
X170154698Y-101065000D01*
X173755698Y-95902000D02*
X173755698Y-98098000D01*
X172995698Y-94444000D02*
X172995698Y-99556000D01*
X172395698Y-98040000D02*
X172395698Y-100156000D01*
X171315698Y-98040000D02*
X171315698Y-100790000D01*
X170955698Y-98040000D02*
X170955698Y-100914000D01*
X173155698Y-94655000D02*
X173155698Y-99345000D01*
X170074698Y-92929000D02*
X170074698Y-101071000D01*
X170675698Y-98040000D02*
X170675698Y-100985000D01*
X170595698Y-98040000D02*
X170595698Y-101002000D01*
X172355698Y-93811000D02*
X172355698Y-95960000D01*
X171555698Y-93314000D02*
X171555698Y-95960000D01*
X170795698Y-93043000D02*
X170795698Y-95960000D01*
X172235698Y-98040000D02*
X172235698Y-100280000D01*
X171395698Y-98040000D02*
X171395698Y-100757000D01*
X171755698Y-93416000D02*
X171755698Y-95960000D01*
X171475698Y-93278000D02*
X171475698Y-95960000D01*
X171075698Y-98040000D02*
X171075698Y-100877000D01*
X170915698Y-98040000D02*
X170915698Y-100925000D01*
X171795698Y-93438000D02*
X171795698Y-95960000D01*
X170795698Y-98040000D02*
X170795698Y-100957000D01*
X172155698Y-98040000D02*
X172155698Y-100338000D01*
X171595698Y-98040000D02*
X171595698Y-100666000D01*
X171195698Y-93165000D02*
X171195698Y-95960000D01*
X172075698Y-93608000D02*
X172075698Y-95960000D01*
X171235698Y-93179000D02*
X171235698Y-95960000D01*
X171235698Y-98040000D02*
X171235698Y-100821000D01*
X171915698Y-93507000D02*
X171915698Y-95960000D01*
X173235698Y-94772000D02*
X173235698Y-99228000D01*
X173675698Y-95654000D02*
X173675698Y-98346000D01*
X173395698Y-95036000D02*
X173395698Y-98964000D01*
X171715698Y-98040000D02*
X171715698Y-100606000D01*
X171835698Y-93460000D02*
X171835698Y-95960000D01*
X172595698Y-94017000D02*
X172595698Y-99983000D01*
X169834698Y-92920000D02*
X169834698Y-101080000D01*
X170474698Y-92976000D02*
X170474698Y-101024000D01*
X171035698Y-98040000D02*
X171035698Y-100889000D01*
X171635698Y-93353000D02*
X171635698Y-95960000D01*
X170755698Y-93033000D02*
X170755698Y-95960000D01*
X171515698Y-98040000D02*
X171515698Y-100704000D01*
X170675698Y-93015000D02*
X170675698Y-95960000D01*
X172715698Y-94133000D02*
X172715698Y-99867000D01*
X170034698Y-92926000D02*
X170034698Y-101074000D01*
X171195698Y-98040000D02*
X171195698Y-100835000D01*
X172275698Y-98040000D02*
X172275698Y-100250000D01*
X171275698Y-93195000D02*
X171275698Y-95960000D01*
X171715698Y-93394000D02*
X171715698Y-95960000D01*
X171755698Y-98040000D02*
X171755698Y-100584000D01*
X172795698Y-94216000D02*
X172795698Y-99784000D01*
X170434698Y-92970000D02*
X170434698Y-101030000D01*
X170194698Y-92939000D02*
X170194698Y-101061000D01*
X172955698Y-94396000D02*
X172955698Y-99604000D01*
X172275698Y-93750000D02*
X172275698Y-95960000D01*
X172195698Y-98040000D02*
X172195698Y-100309000D01*
X170875698Y-98040000D02*
X170875698Y-100936000D01*
X170394698Y-92963000D02*
X170394698Y-101037000D01*
X169874698Y-92920000D02*
X169874698Y-101080000D01*
X172115698Y-98040000D02*
X172115698Y-100365000D01*
X171635698Y-98040000D02*
X171635698Y-100647000D01*
X172635698Y-94055000D02*
X172635698Y-99945000D01*
X170595698Y-92998000D02*
X170595698Y-95960000D01*
X171995698Y-98040000D02*
X171995698Y-100444000D01*
X172195698Y-93691000D02*
X172195698Y-95960000D01*
X173355698Y-94966000D02*
X173355698Y-99034000D01*
X170875698Y-93064000D02*
X170875698Y-95960000D01*
X172115698Y-93635000D02*
X172115698Y-95960000D01*
X172915698Y-94349000D02*
X172915698Y-99651000D01*
X173275698Y-94834000D02*
X173275698Y-99166000D01*
X171155698Y-98040000D02*
X171155698Y-100850000D01*
X169994698Y-92924000D02*
X169994698Y-101076000D01*
X171275698Y-98040000D02*
X171275698Y-100805000D01*
X170555698Y-92990000D02*
X170555698Y-95960000D01*
X172675698Y-94093000D02*
X172675698Y-99907000D01*
X171595698Y-93334000D02*
X171595698Y-95960000D01*
X172475698Y-93910000D02*
X172475698Y-95960000D01*
X170715698Y-98040000D02*
X170715698Y-100976000D01*
X173195698Y-94713000D02*
X173195698Y-99287000D01*
X172355698Y-98040000D02*
X172355698Y-100189000D01*
X170234698Y-92943000D02*
X170234698Y-101057000D01*
X172555698Y-98040000D02*
X172555698Y-100019000D01*
X173595698Y-95448000D02*
X173595698Y-98552000D01*
X169914698Y-92921000D02*
X169914698Y-101079000D01*
X173315698Y-94898000D02*
X173315698Y-99102000D01*
X172515698Y-98040000D02*
X172515698Y-100055000D01*
X170955698Y-93086000D02*
X170955698Y-95960000D01*
X173875698Y-96467000D02*
X173875698Y-97533000D01*
X172435698Y-98040000D02*
X172435698Y-100124000D01*
X170274698Y-92948000D02*
X170274698Y-101052000D01*
X170314698Y-92952000D02*
X170314698Y-101048000D01*
X171835698Y-98040000D02*
X171835698Y-100540000D01*
X172315698Y-93780000D02*
X172315698Y-95960000D01*
X169954698Y-92923000D02*
X169954698Y-101077000D01*
X173795698Y-96052000D02*
X173795698Y-97948000D01*
X173075698Y-94546000D02*
X173075698Y-99454000D01*
X170635698Y-93006000D02*
X170635698Y-95960000D01*
X170835698Y-93053000D02*
X170835698Y-95960000D01*
X173715698Y-95771000D02*
X173715698Y-98229000D01*
X171675698Y-93373000D02*
X171675698Y-95960000D01*
X173914698Y-97000000D02*
G75*
G03*
X173914698Y-97000000I-4120000J0D01*
G01*
%TO.C,D1*%
X176890000Y-79085000D02*
X176890000Y-81370000D01*
X178360000Y-81370000D02*
X178360000Y-79085000D01*
X178360000Y-79085000D02*
X176890000Y-79085000D01*
%TD*%
M02*
