%TF.GenerationSoftware,KiCad,Pcbnew,6.0.11-2627ca5db0~126~ubuntu20.04.1*%
%TF.CreationDate,2023-02-21T17:10:03+08:00*%
%TF.ProjectId,cityscope-can-module,63697479-7363-46f7-9065-2d63616e2d6d,v1.0*%
%TF.SameCoordinates,Original*%
%TF.FileFunction,Legend,Bot*%
%TF.FilePolarity,Positive*%
%FSLAX46Y46*%
G04 Gerber Fmt 4.6, Leading zero omitted, Abs format (unit mm)*
G04 Created by KiCad (PCBNEW 6.0.11-2627ca5db0~126~ubuntu20.04.1) date 2023-02-21 17:10:03*
%MOMM*%
%LPD*%
G01*
G04 APERTURE LIST*
%ADD10C,0.150000*%
G04 APERTURE END LIST*
D10*
X190112023Y-105937619D02*
X190064404Y-105890000D01*
X189969166Y-105842380D01*
X189731071Y-105842380D01*
X189635833Y-105890000D01*
X189588214Y-105937619D01*
X189540595Y-106032857D01*
X189540595Y-106128095D01*
X189588214Y-106270952D01*
X190159642Y-106842380D01*
X189540595Y-106842380D01*
X188921547Y-105842380D02*
X188826309Y-105842380D01*
X188731071Y-105890000D01*
X188683452Y-105937619D01*
X188635833Y-106032857D01*
X188588214Y-106223333D01*
X188588214Y-106461428D01*
X188635833Y-106651904D01*
X188683452Y-106747142D01*
X188731071Y-106794761D01*
X188826309Y-106842380D01*
X188921547Y-106842380D01*
X189016785Y-106794761D01*
X189064404Y-106747142D01*
X189112023Y-106651904D01*
X189159642Y-106461428D01*
X189159642Y-106223333D01*
X189112023Y-106032857D01*
X189064404Y-105937619D01*
X189016785Y-105890000D01*
X188921547Y-105842380D01*
X188207261Y-105937619D02*
X188159642Y-105890000D01*
X188064404Y-105842380D01*
X187826309Y-105842380D01*
X187731071Y-105890000D01*
X187683452Y-105937619D01*
X187635833Y-106032857D01*
X187635833Y-106128095D01*
X187683452Y-106270952D01*
X188254880Y-106842380D01*
X187635833Y-106842380D01*
X187302500Y-105842380D02*
X186683452Y-105842380D01*
X187016785Y-106223333D01*
X186873928Y-106223333D01*
X186778690Y-106270952D01*
X186731071Y-106318571D01*
X186683452Y-106413809D01*
X186683452Y-106651904D01*
X186731071Y-106747142D01*
X186778690Y-106794761D01*
X186873928Y-106842380D01*
X187159642Y-106842380D01*
X187254880Y-106794761D01*
X187302500Y-106747142D01*
X186254880Y-106747142D02*
X186207261Y-106794761D01*
X186254880Y-106842380D01*
X186302500Y-106794761D01*
X186254880Y-106747142D01*
X186254880Y-106842380D01*
X185588214Y-105842380D02*
X185492976Y-105842380D01*
X185397738Y-105890000D01*
X185350119Y-105937619D01*
X185302500Y-106032857D01*
X185254880Y-106223333D01*
X185254880Y-106461428D01*
X185302500Y-106651904D01*
X185350119Y-106747142D01*
X185397738Y-106794761D01*
X185492976Y-106842380D01*
X185588214Y-106842380D01*
X185683452Y-106794761D01*
X185731071Y-106747142D01*
X185778690Y-106651904D01*
X185826309Y-106461428D01*
X185826309Y-106223333D01*
X185778690Y-106032857D01*
X185731071Y-105937619D01*
X185683452Y-105890000D01*
X185588214Y-105842380D01*
X184873928Y-105937619D02*
X184826309Y-105890000D01*
X184731071Y-105842380D01*
X184492976Y-105842380D01*
X184397738Y-105890000D01*
X184350119Y-105937619D01*
X184302500Y-106032857D01*
X184302500Y-106128095D01*
X184350119Y-106270952D01*
X184921547Y-106842380D01*
X184302500Y-106842380D01*
X183873928Y-106747142D02*
X183826309Y-106794761D01*
X183873928Y-106842380D01*
X183921547Y-106794761D01*
X183873928Y-106747142D01*
X183873928Y-106842380D01*
X183445357Y-105937619D02*
X183397738Y-105890000D01*
X183302500Y-105842380D01*
X183064404Y-105842380D01*
X182969166Y-105890000D01*
X182921547Y-105937619D01*
X182873928Y-106032857D01*
X182873928Y-106128095D01*
X182921547Y-106270952D01*
X183492976Y-106842380D01*
X182873928Y-106842380D01*
X181921547Y-106842380D02*
X182492976Y-106842380D01*
X182207261Y-106842380D02*
X182207261Y-105842380D01*
X182302500Y-105985238D01*
X182397738Y-106080476D01*
X182492976Y-106128095D01*
X189492976Y-108357142D02*
X189540595Y-108404761D01*
X189683452Y-108452380D01*
X189778690Y-108452380D01*
X189921547Y-108404761D01*
X190016785Y-108309523D01*
X190064404Y-108214285D01*
X190112023Y-108023809D01*
X190112023Y-107880952D01*
X190064404Y-107690476D01*
X190016785Y-107595238D01*
X189921547Y-107500000D01*
X189778690Y-107452380D01*
X189683452Y-107452380D01*
X189540595Y-107500000D01*
X189492976Y-107547619D01*
X189064404Y-108452380D02*
X189064404Y-107785714D01*
X189064404Y-107452380D02*
X189112023Y-107500000D01*
X189064404Y-107547619D01*
X189016785Y-107500000D01*
X189064404Y-107452380D01*
X189064404Y-107547619D01*
X188731071Y-107785714D02*
X188350119Y-107785714D01*
X188588214Y-107452380D02*
X188588214Y-108309523D01*
X188540595Y-108404761D01*
X188445357Y-108452380D01*
X188350119Y-108452380D01*
X188112023Y-107785714D02*
X187873928Y-108452380D01*
X187635833Y-107785714D02*
X187873928Y-108452380D01*
X187969166Y-108690476D01*
X188016785Y-108738095D01*
X188112023Y-108785714D01*
X187302500Y-108404761D02*
X187159642Y-108452380D01*
X186921547Y-108452380D01*
X186826309Y-108404761D01*
X186778690Y-108357142D01*
X186731071Y-108261904D01*
X186731071Y-108166666D01*
X186778690Y-108071428D01*
X186826309Y-108023809D01*
X186921547Y-107976190D01*
X187112023Y-107928571D01*
X187207261Y-107880952D01*
X187254880Y-107833333D01*
X187302500Y-107738095D01*
X187302500Y-107642857D01*
X187254880Y-107547619D01*
X187207261Y-107500000D01*
X187112023Y-107452380D01*
X186873928Y-107452380D01*
X186731071Y-107500000D01*
X185873928Y-108404761D02*
X185969166Y-108452380D01*
X186159642Y-108452380D01*
X186254880Y-108404761D01*
X186302500Y-108357142D01*
X186350119Y-108261904D01*
X186350119Y-107976190D01*
X186302500Y-107880952D01*
X186254880Y-107833333D01*
X186159642Y-107785714D01*
X185969166Y-107785714D01*
X185873928Y-107833333D01*
X185302500Y-108452380D02*
X185397738Y-108404761D01*
X185445357Y-108357142D01*
X185492976Y-108261904D01*
X185492976Y-107976190D01*
X185445357Y-107880952D01*
X185397738Y-107833333D01*
X185302500Y-107785714D01*
X185159642Y-107785714D01*
X185064404Y-107833333D01*
X185016785Y-107880952D01*
X184969166Y-107976190D01*
X184969166Y-108261904D01*
X185016785Y-108357142D01*
X185064404Y-108404761D01*
X185159642Y-108452380D01*
X185302500Y-108452380D01*
X184540595Y-107785714D02*
X184540595Y-108785714D01*
X184540595Y-107833333D02*
X184445357Y-107785714D01*
X184254880Y-107785714D01*
X184159642Y-107833333D01*
X184112023Y-107880952D01*
X184064404Y-107976190D01*
X184064404Y-108261904D01*
X184112023Y-108357142D01*
X184159642Y-108404761D01*
X184254880Y-108452380D01*
X184445357Y-108452380D01*
X184540595Y-108404761D01*
X183254880Y-108404761D02*
X183350119Y-108452380D01*
X183540595Y-108452380D01*
X183635833Y-108404761D01*
X183683452Y-108309523D01*
X183683452Y-107928571D01*
X183635833Y-107833333D01*
X183540595Y-107785714D01*
X183350119Y-107785714D01*
X183254880Y-107833333D01*
X183207261Y-107928571D01*
X183207261Y-108023809D01*
X183683452Y-108119047D01*
X181445357Y-108357142D02*
X181492976Y-108404761D01*
X181635833Y-108452380D01*
X181731071Y-108452380D01*
X181873928Y-108404761D01*
X181969166Y-108309523D01*
X182016785Y-108214285D01*
X182064404Y-108023809D01*
X182064404Y-107880952D01*
X182016785Y-107690476D01*
X181969166Y-107595238D01*
X181873928Y-107500000D01*
X181731071Y-107452380D01*
X181635833Y-107452380D01*
X181492976Y-107500000D01*
X181445357Y-107547619D01*
X181064404Y-108166666D02*
X180588214Y-108166666D01*
X181159642Y-108452380D02*
X180826309Y-107452380D01*
X180492976Y-108452380D01*
X180159642Y-108452380D02*
X180159642Y-107452380D01*
X179588214Y-108452380D01*
X179588214Y-107452380D01*
X177778690Y-108357142D02*
X177826309Y-108404761D01*
X177969166Y-108452380D01*
X178064404Y-108452380D01*
X178207261Y-108404761D01*
X178302500Y-108309523D01*
X178350119Y-108214285D01*
X178397738Y-108023809D01*
X178397738Y-107880952D01*
X178350119Y-107690476D01*
X178302500Y-107595238D01*
X178207261Y-107500000D01*
X178064404Y-107452380D01*
X177969166Y-107452380D01*
X177826309Y-107500000D01*
X177778690Y-107547619D01*
X177207261Y-108452380D02*
X177302500Y-108404761D01*
X177350119Y-108357142D01*
X177397738Y-108261904D01*
X177397738Y-107976190D01*
X177350119Y-107880952D01*
X177302500Y-107833333D01*
X177207261Y-107785714D01*
X177064404Y-107785714D01*
X176969166Y-107833333D01*
X176921547Y-107880952D01*
X176873928Y-107976190D01*
X176873928Y-108261904D01*
X176921547Y-108357142D01*
X176969166Y-108404761D01*
X177064404Y-108452380D01*
X177207261Y-108452380D01*
X176445357Y-107785714D02*
X176445357Y-108452380D01*
X176445357Y-107880952D02*
X176397738Y-107833333D01*
X176302500Y-107785714D01*
X176159642Y-107785714D01*
X176064404Y-107833333D01*
X176016785Y-107928571D01*
X176016785Y-108452380D01*
X175683452Y-107785714D02*
X175302500Y-107785714D01*
X175540595Y-107452380D02*
X175540595Y-108309523D01*
X175492976Y-108404761D01*
X175397738Y-108452380D01*
X175302500Y-108452380D01*
X174969166Y-108452380D02*
X174969166Y-107785714D01*
X174969166Y-107976190D02*
X174921547Y-107880952D01*
X174873928Y-107833333D01*
X174778690Y-107785714D01*
X174683452Y-107785714D01*
X174207261Y-108452380D02*
X174302500Y-108404761D01*
X174350119Y-108357142D01*
X174397738Y-108261904D01*
X174397738Y-107976190D01*
X174350119Y-107880952D01*
X174302500Y-107833333D01*
X174207261Y-107785714D01*
X174064404Y-107785714D01*
X173969166Y-107833333D01*
X173921547Y-107880952D01*
X173873928Y-107976190D01*
X173873928Y-108261904D01*
X173921547Y-108357142D01*
X173969166Y-108404761D01*
X174064404Y-108452380D01*
X174207261Y-108452380D01*
X173302500Y-108452380D02*
X173397738Y-108404761D01*
X173445357Y-108309523D01*
X173445357Y-107452380D01*
X172778690Y-108452380D02*
X172873928Y-108404761D01*
X172921547Y-108309523D01*
X172921547Y-107452380D01*
X172016785Y-108404761D02*
X172112023Y-108452380D01*
X172302500Y-108452380D01*
X172397738Y-108404761D01*
X172445357Y-108309523D01*
X172445357Y-107928571D01*
X172397738Y-107833333D01*
X172302500Y-107785714D01*
X172112023Y-107785714D01*
X172016785Y-107833333D01*
X171969166Y-107928571D01*
X171969166Y-108023809D01*
X172445357Y-108119047D01*
X171540595Y-108452380D02*
X171540595Y-107785714D01*
X171540595Y-107976190D02*
X171492976Y-107880952D01*
X171445357Y-107833333D01*
X171350119Y-107785714D01*
X171254880Y-107785714D01*
X170254880Y-107785714D02*
X170016785Y-108452380D01*
X169778690Y-107785714D01*
X168873928Y-108452380D02*
X169445357Y-108452380D01*
X169159642Y-108452380D02*
X169159642Y-107452380D01*
X169254880Y-107595238D01*
X169350119Y-107690476D01*
X169445357Y-107738095D01*
X168445357Y-108357142D02*
X168397738Y-108404761D01*
X168445357Y-108452380D01*
X168492976Y-108404761D01*
X168445357Y-108357142D01*
X168445357Y-108452380D01*
X167778690Y-107452380D02*
X167683452Y-107452380D01*
X167588214Y-107500000D01*
X167540595Y-107547619D01*
X167492976Y-107642857D01*
X167445357Y-107833333D01*
X167445357Y-108071428D01*
X167492976Y-108261904D01*
X167540595Y-108357142D01*
X167588214Y-108404761D01*
X167683452Y-108452380D01*
X167778690Y-108452380D01*
X167873928Y-108404761D01*
X167921547Y-108357142D01*
X167969166Y-108261904D01*
X168016785Y-108071428D01*
X168016785Y-107833333D01*
X167969166Y-107642857D01*
X167921547Y-107547619D01*
X167873928Y-107500000D01*
X167778690Y-107452380D01*
X189778690Y-109062380D02*
X189778690Y-109776666D01*
X189826309Y-109919523D01*
X189921547Y-110014761D01*
X190064404Y-110062380D01*
X190159642Y-110062380D01*
X188873928Y-109395714D02*
X188873928Y-110062380D01*
X189302500Y-109395714D02*
X189302500Y-109919523D01*
X189254880Y-110014761D01*
X189159642Y-110062380D01*
X189016785Y-110062380D01*
X188921547Y-110014761D01*
X188873928Y-109967142D01*
X188445357Y-110014761D02*
X188350119Y-110062380D01*
X188159642Y-110062380D01*
X188064404Y-110014761D01*
X188016785Y-109919523D01*
X188016785Y-109871904D01*
X188064404Y-109776666D01*
X188159642Y-109729047D01*
X188302500Y-109729047D01*
X188397738Y-109681428D01*
X188445357Y-109586190D01*
X188445357Y-109538571D01*
X188397738Y-109443333D01*
X188302500Y-109395714D01*
X188159642Y-109395714D01*
X188064404Y-109443333D01*
X187731071Y-109395714D02*
X187350119Y-109395714D01*
X187588214Y-109062380D02*
X187588214Y-109919523D01*
X187540595Y-110014761D01*
X187445357Y-110062380D01*
X187350119Y-110062380D01*
X187016785Y-110062380D02*
X187016785Y-109395714D01*
X187016785Y-109062380D02*
X187064404Y-109110000D01*
X187016785Y-109157619D01*
X186969166Y-109110000D01*
X187016785Y-109062380D01*
X187016785Y-109157619D01*
X186540595Y-109395714D02*
X186540595Y-110062380D01*
X186540595Y-109490952D02*
X186492976Y-109443333D01*
X186397738Y-109395714D01*
X186254880Y-109395714D01*
X186159642Y-109443333D01*
X186112023Y-109538571D01*
X186112023Y-110062380D01*
X184969166Y-109062380D02*
X184302500Y-109062380D01*
X184969166Y-110062380D01*
X184302500Y-110062380D01*
X183921547Y-110062380D02*
X183921547Y-109062380D01*
X183492976Y-110062380D02*
X183492976Y-109538571D01*
X183540595Y-109443333D01*
X183635833Y-109395714D01*
X183778690Y-109395714D01*
X183873928Y-109443333D01*
X183921547Y-109490952D01*
X182588214Y-110062380D02*
X182588214Y-109538571D01*
X182635833Y-109443333D01*
X182731071Y-109395714D01*
X182921547Y-109395714D01*
X183016785Y-109443333D01*
X182588214Y-110014761D02*
X182683452Y-110062380D01*
X182921547Y-110062380D01*
X183016785Y-110014761D01*
X183064404Y-109919523D01*
X183064404Y-109824285D01*
X183016785Y-109729047D01*
X182921547Y-109681428D01*
X182683452Y-109681428D01*
X182588214Y-109633809D01*
X182112023Y-109395714D02*
X182112023Y-110062380D01*
X182112023Y-109490952D02*
X182064404Y-109443333D01*
X181969166Y-109395714D01*
X181826309Y-109395714D01*
X181731071Y-109443333D01*
X181683452Y-109538571D01*
X181683452Y-110062380D01*
X180778690Y-109395714D02*
X180778690Y-110205238D01*
X180826309Y-110300476D01*
X180873928Y-110348095D01*
X180969166Y-110395714D01*
X181112023Y-110395714D01*
X181207261Y-110348095D01*
X180778690Y-110014761D02*
X180873928Y-110062380D01*
X181064404Y-110062380D01*
X181159642Y-110014761D01*
X181207261Y-109967142D01*
X181254880Y-109871904D01*
X181254880Y-109586190D01*
X181207261Y-109490952D01*
X181159642Y-109443333D01*
X181064404Y-109395714D01*
X180873928Y-109395714D01*
X180778690Y-109443333D01*
M02*
