%TF.GenerationSoftware,KiCad,Pcbnew,6.0.11-2627ca5db0~126~ubuntu20.04.1*%
%TF.CreationDate,2023-02-21T17:10:03+08:00*%
%TF.ProjectId,cityscope-can-module,63697479-7363-46f7-9065-2d63616e2d6d,v1.0*%
%TF.SameCoordinates,Original*%
%TF.FileFunction,Copper,L1,Top*%
%TF.FilePolarity,Positive*%
%FSLAX46Y46*%
G04 Gerber Fmt 4.6, Leading zero omitted, Abs format (unit mm)*
G04 Created by KiCad (PCBNEW 6.0.11-2627ca5db0~126~ubuntu20.04.1) date 2023-02-21 17:10:03*
%MOMM*%
%LPD*%
G01*
G04 APERTURE LIST*
G04 Aperture macros list*
%AMRoundRect*
0 Rectangle with rounded corners*
0 $1 Rounding radius*
0 $2 $3 $4 $5 $6 $7 $8 $9 X,Y pos of 4 corners*
0 Add a 4 corners polygon primitive as box body*
4,1,4,$2,$3,$4,$5,$6,$7,$8,$9,$2,$3,0*
0 Add four circle primitives for the rounded corners*
1,1,$1+$1,$2,$3*
1,1,$1+$1,$4,$5*
1,1,$1+$1,$6,$7*
1,1,$1+$1,$8,$9*
0 Add four rect primitives between the rounded corners*
20,1,$1+$1,$2,$3,$4,$5,0*
20,1,$1+$1,$4,$5,$6,$7,0*
20,1,$1+$1,$6,$7,$8,$9,0*
20,1,$1+$1,$8,$9,$2,$3,0*%
G04 Aperture macros list end*
%TA.AperFunction,SMDPad,CuDef*%
%ADD10RoundRect,0.200000X-0.200000X-0.275000X0.200000X-0.275000X0.200000X0.275000X-0.200000X0.275000X0*%
%TD*%
%TA.AperFunction,SMDPad,CuDef*%
%ADD11RoundRect,0.225000X0.225000X0.250000X-0.225000X0.250000X-0.225000X-0.250000X0.225000X-0.250000X0*%
%TD*%
%TA.AperFunction,SMDPad,CuDef*%
%ADD12RoundRect,0.225000X-0.250000X0.225000X-0.250000X-0.225000X0.250000X-0.225000X0.250000X0.225000X0*%
%TD*%
%TA.AperFunction,ComponentPad*%
%ADD13C,1.400000*%
%TD*%
%TA.AperFunction,ComponentPad*%
%ADD14R,3.500000X3.500000*%
%TD*%
%TA.AperFunction,ComponentPad*%
%ADD15C,3.500000*%
%TD*%
%TA.AperFunction,SMDPad,CuDef*%
%ADD16R,0.400000X0.800000*%
%TD*%
%TA.AperFunction,SMDPad,CuDef*%
%ADD17R,2.500000X1.750000*%
%TD*%
%TA.AperFunction,SMDPad,CuDef*%
%ADD18C,1.000000*%
%TD*%
%TA.AperFunction,SMDPad,CuDef*%
%ADD19RoundRect,0.125000X-0.625000X-0.125000X0.625000X-0.125000X0.625000X0.125000X-0.625000X0.125000X0*%
%TD*%
%TA.AperFunction,SMDPad,CuDef*%
%ADD20RoundRect,0.125000X-0.125000X-0.625000X0.125000X-0.625000X0.125000X0.625000X-0.125000X0.625000X0*%
%TD*%
%TA.AperFunction,SMDPad,CuDef*%
%ADD21RoundRect,0.250000X-1.500000X0.250000X-1.500000X-0.250000X1.500000X-0.250000X1.500000X0.250000X0*%
%TD*%
%TA.AperFunction,SMDPad,CuDef*%
%ADD22RoundRect,0.250001X-1.449999X0.499999X-1.449999X-0.499999X1.449999X-0.499999X1.449999X0.499999X0*%
%TD*%
%TA.AperFunction,SMDPad,CuDef*%
%ADD23C,0.750000*%
%TD*%
%TA.AperFunction,SMDPad,CuDef*%
%ADD24RoundRect,0.225000X-0.225000X-0.250000X0.225000X-0.250000X0.225000X0.250000X-0.225000X0.250000X0*%
%TD*%
%TA.AperFunction,SMDPad,CuDef*%
%ADD25RoundRect,0.150000X0.150000X0.625000X-0.150000X0.625000X-0.150000X-0.625000X0.150000X-0.625000X0*%
%TD*%
%TA.AperFunction,SMDPad,CuDef*%
%ADD26RoundRect,0.250000X0.350000X0.650000X-0.350000X0.650000X-0.350000X-0.650000X0.350000X-0.650000X0*%
%TD*%
%TA.AperFunction,SMDPad,CuDef*%
%ADD27RoundRect,0.250000X-0.250000X-1.500000X0.250000X-1.500000X0.250000X1.500000X-0.250000X1.500000X0*%
%TD*%
%TA.AperFunction,SMDPad,CuDef*%
%ADD28RoundRect,0.250001X-0.499999X-1.449999X0.499999X-1.449999X0.499999X1.449999X-0.499999X1.449999X0*%
%TD*%
%TA.AperFunction,SMDPad,CuDef*%
%ADD29R,1.600000X1.400000*%
%TD*%
%TA.AperFunction,SMDPad,CuDef*%
%ADD30RoundRect,0.250000X1.500000X-0.250000X1.500000X0.250000X-1.500000X0.250000X-1.500000X-0.250000X0*%
%TD*%
%TA.AperFunction,SMDPad,CuDef*%
%ADD31RoundRect,0.250001X1.449999X-0.499999X1.449999X0.499999X-1.449999X0.499999X-1.449999X-0.499999X0*%
%TD*%
%TA.AperFunction,SMDPad,CuDef*%
%ADD32RoundRect,0.200000X0.275000X-0.200000X0.275000X0.200000X-0.275000X0.200000X-0.275000X-0.200000X0*%
%TD*%
%TA.AperFunction,SMDPad,CuDef*%
%ADD33RoundRect,0.225000X0.250000X-0.225000X0.250000X0.225000X-0.250000X0.225000X-0.250000X-0.225000X0*%
%TD*%
%TA.AperFunction,SMDPad,CuDef*%
%ADD34RoundRect,0.150000X0.825000X0.150000X-0.825000X0.150000X-0.825000X-0.150000X0.825000X-0.150000X0*%
%TD*%
%TA.AperFunction,ComponentPad*%
%ADD35R,1.600000X1.600000*%
%TD*%
%TA.AperFunction,ComponentPad*%
%ADD36C,1.600000*%
%TD*%
%TA.AperFunction,SMDPad,CuDef*%
%ADD37RoundRect,0.218750X-0.256250X0.218750X-0.256250X-0.218750X0.256250X-0.218750X0.256250X0.218750X0*%
%TD*%
%TA.AperFunction,ViaPad*%
%ADD38C,0.800000*%
%TD*%
%TA.AperFunction,Conductor*%
%ADD39C,0.400000*%
%TD*%
%TA.AperFunction,Conductor*%
%ADD40C,0.250000*%
%TD*%
G04 APERTURE END LIST*
D10*
%TO.P,R1,1*%
%TO.N,Net-(R1-Pad1)*%
X172375000Y-81300000D03*
%TO.P,R1,2*%
%TO.N,GND*%
X174025000Y-81300000D03*
%TD*%
D11*
%TO.P,C1,1*%
%TO.N,/NRST*%
X168000000Y-83200000D03*
%TO.P,C1,2*%
%TO.N,GND*%
X166450000Y-83200000D03*
%TD*%
D12*
%TO.P,C2,1*%
%TO.N,GND*%
X168100000Y-79725000D03*
%TO.P,C2,2*%
%TO.N,+3.3V*%
X168100000Y-81275000D03*
%TD*%
D13*
%TO.P,J3,*%
%TO.N,*%
X157650000Y-92000000D03*
X157650000Y-81000000D03*
D14*
%TO.P,J3,1,Pin_1*%
%TO.N,+5V*%
X162650000Y-89000000D03*
D15*
%TO.P,J3,2,Pin_2*%
%TO.N,GND*%
X162650000Y-84000000D03*
%TD*%
D16*
%TO.P,PS1,1,EN*%
%TO.N,+5V*%
X167150000Y-74055000D03*
%TO.P,PS1,2,GND*%
%TO.N,GND*%
X166200000Y-74055000D03*
%TO.P,PS1,3,PG*%
%TO.N,unconnected-(PS1-Pad3)*%
X165250000Y-74055000D03*
%TO.P,PS1,4,VOUT*%
%TO.N,+3.3V*%
X165250000Y-77055000D03*
%TO.P,PS1,5,NC*%
%TO.N,unconnected-(PS1-Pad5)*%
X166200000Y-77055000D03*
%TO.P,PS1,6,VIN*%
%TO.N,+5V*%
X167150000Y-77055000D03*
D17*
%TO.P,PS1,7,PAD*%
%TO.N,GND*%
X166200000Y-75555000D03*
%TD*%
D18*
%TO.P,TP1,1,1*%
%TO.N,+5V*%
X170200000Y-78700000D03*
%TD*%
D13*
%TO.P,J2,*%
%TO.N,*%
X195325000Y-92000000D03*
X195325000Y-81000000D03*
D14*
%TO.P,J2,1,Pin_1*%
%TO.N,+5V*%
X185325000Y-89000000D03*
D15*
%TO.P,J2,2,Pin_2*%
%TO.N,GND*%
X185325000Y-84000000D03*
%TD*%
D19*
%TO.P,U1,1,VDD*%
%TO.N,+3.3V*%
X170850000Y-84750000D03*
%TO.P,U1,2,PF0*%
%TO.N,unconnected-(U1-Pad2)*%
X170850000Y-85550000D03*
%TO.P,U1,3,PF1*%
%TO.N,unconnected-(U1-Pad3)*%
X170850000Y-86350000D03*
%TO.P,U1,4,NRST*%
%TO.N,/NRST*%
X170850000Y-87150000D03*
%TO.P,U1,5,VDDA*%
%TO.N,+3.3V*%
X170850000Y-87950000D03*
%TO.P,U1,6,PA0*%
%TO.N,/N_DI*%
X170850000Y-88750000D03*
%TO.P,U1,7,PA1*%
%TO.N,/HC_TRIG*%
X170850000Y-89550000D03*
%TO.P,U1,8,PA2*%
%TO.N,unconnected-(U1-Pad8)*%
X170850000Y-90350000D03*
D20*
%TO.P,U1,9,PA3*%
%TO.N,/HC_ECHO*%
X172225000Y-91725000D03*
%TO.P,U1,10,PA4*%
%TO.N,unconnected-(U1-Pad10)*%
X173025000Y-91725000D03*
%TO.P,U1,11,PA5*%
%TO.N,unconnected-(U1-Pad11)*%
X173825000Y-91725000D03*
%TO.P,U1,12,PA6*%
%TO.N,unconnected-(U1-Pad12)*%
X174625000Y-91725000D03*
%TO.P,U1,13,PA7*%
%TO.N,unconnected-(U1-Pad13)*%
X175425000Y-91725000D03*
%TO.P,U1,14,PB0*%
%TO.N,unconnected-(U1-Pad14)*%
X176225000Y-91725000D03*
%TO.P,U1,15,PB1*%
%TO.N,unconnected-(U1-Pad15)*%
X177025000Y-91725000D03*
%TO.P,U1,16,VSS*%
%TO.N,GND*%
X177825000Y-91725000D03*
D19*
%TO.P,U1,17,VDD*%
%TO.N,+3.3V*%
X179200000Y-90350000D03*
%TO.P,U1,18,PA8*%
%TO.N,unconnected-(U1-Pad18)*%
X179200000Y-89550000D03*
%TO.P,U1,19,PA9*%
%TO.N,unconnected-(U1-Pad19)*%
X179200000Y-88750000D03*
%TO.P,U1,20,PA10*%
%TO.N,unconnected-(U1-Pad20)*%
X179200000Y-87950000D03*
%TO.P,U1,21,PA11*%
%TO.N,/CAN_RX*%
X179200000Y-87150000D03*
%TO.P,U1,22,PA12*%
%TO.N,/CAN_TX*%
X179200000Y-86350000D03*
%TO.P,U1,23,PA13*%
%TO.N,/SWDIO*%
X179200000Y-85550000D03*
%TO.P,U1,24,PA14*%
%TO.N,/SWCLK*%
X179200000Y-84750000D03*
D20*
%TO.P,U1,25,PA15*%
%TO.N,unconnected-(U1-Pad25)*%
X177825000Y-83375000D03*
%TO.P,U1,26,PB3*%
%TO.N,/LED*%
X177025000Y-83375000D03*
%TO.P,U1,27,PB4*%
%TO.N,unconnected-(U1-Pad27)*%
X176225000Y-83375000D03*
%TO.P,U1,28,PB5*%
%TO.N,unconnected-(U1-Pad28)*%
X175425000Y-83375000D03*
%TO.P,U1,29,PB6*%
%TO.N,unconnected-(U1-Pad29)*%
X174625000Y-83375000D03*
%TO.P,U1,30,PB7*%
%TO.N,unconnected-(U1-Pad30)*%
X173825000Y-83375000D03*
%TO.P,U1,31,BOOT0*%
%TO.N,Net-(R1-Pad1)*%
X173025000Y-83375000D03*
%TO.P,U1,32,VSS*%
%TO.N,GND*%
X172225000Y-83375000D03*
%TD*%
D18*
%TO.P,TP3,1,1*%
%TO.N,GND*%
X161800000Y-73400000D03*
%TD*%
D21*
%TO.P,J6,1,Pin_1*%
%TO.N,/CAN_H*%
X162050000Y-98500000D03*
%TO.P,J6,2,Pin_2*%
%TO.N,/CAN_L*%
X162050000Y-100500000D03*
D22*
%TO.P,J6,MP*%
%TO.N,N/C*%
X156300000Y-96150000D03*
X156300000Y-102850000D03*
%TD*%
D18*
%TO.P,TP2,1,1*%
%TO.N,+3.3V*%
X170200000Y-73100000D03*
%TD*%
D23*
%TO.P,FID1,*%
%TO.N,*%
X162000000Y-105500000D03*
%TD*%
D24*
%TO.P,C4,1*%
%TO.N,GND*%
X180150000Y-92600000D03*
%TO.P,C4,2*%
%TO.N,+3.3V*%
X181700000Y-92600000D03*
%TD*%
D12*
%TO.P,C5,1*%
%TO.N,GND*%
X168900000Y-75405000D03*
%TO.P,C5,2*%
%TO.N,+5V*%
X168900000Y-76955000D03*
%TD*%
D25*
%TO.P,J1,1,Pin_1*%
%TO.N,+3.3V*%
X183000000Y-95675000D03*
%TO.P,J1,2,Pin_2*%
%TO.N,/SWCLK*%
X182000000Y-95675000D03*
%TO.P,J1,3,Pin_3*%
%TO.N,GND*%
X181000000Y-95675000D03*
%TO.P,J1,4,Pin_4*%
%TO.N,/SWDIO*%
X180000000Y-95675000D03*
%TO.P,J1,5,Pin_5*%
%TO.N,/NRST*%
X179000000Y-95675000D03*
%TO.P,J1,6,Pin_6*%
%TO.N,unconnected-(J1-Pad6)*%
X178000000Y-95675000D03*
D26*
%TO.P,J1,MP*%
%TO.N,N/C*%
X184300000Y-98200000D03*
X176700000Y-98200000D03*
%TD*%
D12*
%TO.P,C3,1*%
%TO.N,GND*%
X166350000Y-79725000D03*
%TO.P,C3,2*%
%TO.N,+3.3V*%
X166350000Y-81275000D03*
%TD*%
D10*
%TO.P,R4,1*%
%TO.N,Net-(J4-Pad2)*%
X166400000Y-88000000D03*
%TO.P,R4,2*%
%TO.N,/N_DI*%
X168050000Y-88000000D03*
%TD*%
D12*
%TO.P,C6,1*%
%TO.N,GND*%
X163500000Y-75455000D03*
%TO.P,C6,2*%
%TO.N,+3.3V*%
X163500000Y-77005000D03*
%TD*%
D27*
%TO.P,J5,1,Pin_1*%
%TO.N,+5V*%
X179250000Y-104050000D03*
%TO.P,J5,2,Pin_2*%
%TO.N,/HC_TRIG*%
X181250000Y-104050000D03*
%TO.P,J5,3,Pin_3*%
%TO.N,/HC_ECHO*%
X183250000Y-104050000D03*
%TO.P,J5,4,Pin_4*%
%TO.N,GND*%
X185250000Y-104050000D03*
D28*
%TO.P,J5,MP*%
%TO.N,N/C*%
X187600000Y-109800000D03*
X176900000Y-109800000D03*
%TD*%
D24*
%TO.P,C7,1*%
%TO.N,GND*%
X166450000Y-86400000D03*
%TO.P,C7,2*%
%TO.N,+3.3V*%
X168000000Y-86400000D03*
%TD*%
D10*
%TO.P,R3,1*%
%TO.N,Net-(R3-Pad1)*%
X172375000Y-79800000D03*
%TO.P,R3,2*%
%TO.N,GND*%
X174025000Y-79800000D03*
%TD*%
D29*
%TO.P,SW1,1,1*%
%TO.N,GND*%
X188100000Y-74500000D03*
X180900000Y-74500000D03*
%TO.P,SW1,2,2*%
%TO.N,/NRST*%
X188100000Y-77500000D03*
X180900000Y-77500000D03*
%TD*%
D23*
%TO.P,FID2,*%
%TO.N,*%
X190500000Y-78000000D03*
%TD*%
D30*
%TO.P,J7,1,Pin_1*%
%TO.N,/CAN_H*%
X191150000Y-100500000D03*
%TO.P,J7,2,Pin_2*%
%TO.N,/CAN_L*%
X191150000Y-98500000D03*
D31*
%TO.P,J7,MP*%
%TO.N,N/C*%
X196900000Y-96150000D03*
X196900000Y-102850000D03*
%TD*%
D24*
%TO.P,C8,1*%
%TO.N,GND*%
X166450000Y-84800000D03*
%TO.P,C8,2*%
%TO.N,+3.3V*%
X168000000Y-84800000D03*
%TD*%
D32*
%TO.P,R2,1*%
%TO.N,/LED*%
X176025000Y-81375000D03*
%TO.P,R2,2*%
%TO.N,Net-(D1-Pad1)*%
X176025000Y-79725000D03*
%TD*%
D27*
%TO.P,J4,1,Pin_1*%
%TO.N,+5V*%
X168000000Y-104050000D03*
%TO.P,J4,2,Pin_2*%
%TO.N,Net-(J4-Pad2)*%
X170000000Y-104050000D03*
%TO.P,J4,3,Pin_3*%
%TO.N,GND*%
X172000000Y-104050000D03*
D28*
%TO.P,J4,MP*%
%TO.N,N/C*%
X174350000Y-109800000D03*
X165650000Y-109800000D03*
%TD*%
D33*
%TO.P,C9,1*%
%TO.N,+3.3V*%
X186500000Y-97050000D03*
%TO.P,C9,2*%
%TO.N,GND*%
X186500000Y-95500000D03*
%TD*%
D34*
%TO.P,U2,1,D*%
%TO.N,/CAN_TX*%
X177475000Y-77905000D03*
%TO.P,U2,2,GND*%
%TO.N,GND*%
X177475000Y-76635000D03*
%TO.P,U2,3,VCC*%
%TO.N,+3.3V*%
X177475000Y-75365000D03*
%TO.P,U2,4,R*%
%TO.N,/CAN_RX*%
X177475000Y-74095000D03*
%TO.P,U2,5,Vref*%
%TO.N,unconnected-(U2-Pad5)*%
X172525000Y-74095000D03*
%TO.P,U2,6,CANL*%
%TO.N,/CAN_L*%
X172525000Y-75365000D03*
%TO.P,U2,7,CANH*%
%TO.N,/CAN_H*%
X172525000Y-76635000D03*
%TO.P,U2,8,Rs*%
%TO.N,Net-(R3-Pad1)*%
X172525000Y-77905000D03*
%TD*%
D35*
%TO.P,C10,1*%
%TO.N,+5V*%
X168044698Y-97000000D03*
D36*
%TO.P,C10,2*%
%TO.N,GND*%
X171544698Y-97000000D03*
%TD*%
D37*
%TO.P,D1,1,K*%
%TO.N,Net-(D1-Pad1)*%
X177625000Y-79782500D03*
%TO.P,D1,2,A*%
%TO.N,+3.3V*%
X177625000Y-81357500D03*
%TD*%
D38*
%TO.N,+5V*%
X168200000Y-78100000D03*
X166500000Y-103200000D03*
X166500000Y-102200000D03*
X167300000Y-78100000D03*
X169100000Y-78100000D03*
X166500000Y-104300000D03*
X166500000Y-105300000D03*
%TO.N,GND*%
X156800000Y-88500000D03*
X173900000Y-94100000D03*
X157700000Y-88500000D03*
X193800000Y-82100000D03*
X173000000Y-95000000D03*
X156800000Y-85600000D03*
X186800000Y-103300000D03*
X180900000Y-82600000D03*
X180900000Y-81700000D03*
X162300000Y-107700000D03*
X192000000Y-87100000D03*
X186900000Y-93200000D03*
X155000000Y-89400000D03*
X171300000Y-109800000D03*
X190800000Y-74800000D03*
X188600000Y-103300000D03*
X172100000Y-94100000D03*
X161000000Y-93400000D03*
X174400000Y-103800000D03*
X157000000Y-99800000D03*
X171300000Y-108900000D03*
X161900000Y-94300000D03*
X170400000Y-108900000D03*
X193800000Y-91000000D03*
X186000000Y-94100000D03*
X192900000Y-82100000D03*
X162300000Y-109500000D03*
X191100000Y-87100000D03*
X191100000Y-90100000D03*
X163200000Y-110400000D03*
X187800000Y-94100000D03*
X156100000Y-98900000D03*
X156100000Y-99800000D03*
X181500000Y-109400000D03*
X195600000Y-99200000D03*
X174100000Y-84800000D03*
X155000000Y-83900000D03*
X190800000Y-73900000D03*
X187800000Y-93200000D03*
X185200000Y-80800000D03*
X182400000Y-109400000D03*
X188600000Y-104200000D03*
X173000000Y-94100000D03*
X192000000Y-83000000D03*
X189900000Y-73000000D03*
X180000000Y-81700000D03*
X175300000Y-103800000D03*
X192900000Y-90100000D03*
X157900000Y-99800000D03*
X176800000Y-85700000D03*
X157700000Y-89400000D03*
X155900000Y-83900000D03*
X157700000Y-86500000D03*
X193800000Y-83000000D03*
X180000000Y-80800000D03*
X176200000Y-104700000D03*
X176800000Y-84800000D03*
X155200000Y-98900000D03*
X189500000Y-104200000D03*
X180000000Y-79900000D03*
X183300000Y-110300000D03*
X155000000Y-83000000D03*
X156800000Y-86500000D03*
X191100000Y-83000000D03*
X189900000Y-74800000D03*
X190800000Y-73000000D03*
X175000000Y-84800000D03*
X155900000Y-89400000D03*
X193800000Y-90100000D03*
X186100000Y-79900000D03*
X186900000Y-94100000D03*
X173900000Y-95000000D03*
X156800000Y-89400000D03*
X192900000Y-91000000D03*
X191100000Y-86200000D03*
X192900000Y-86200000D03*
X163200000Y-107700000D03*
X157700000Y-83900000D03*
X185200000Y-79900000D03*
X157700000Y-83000000D03*
X193800000Y-86200000D03*
X192000000Y-86200000D03*
X186800000Y-104200000D03*
X192000000Y-82100000D03*
X185100000Y-93200000D03*
X157000000Y-98900000D03*
X176200000Y-103800000D03*
X177100000Y-103800000D03*
X169500000Y-108900000D03*
X162800000Y-93400000D03*
X155000000Y-88500000D03*
X190800000Y-75700000D03*
X157900000Y-98900000D03*
X184300000Y-79900000D03*
X184200000Y-110300000D03*
X168600000Y-109800000D03*
X192000000Y-91000000D03*
X169500000Y-109800000D03*
X185100000Y-94100000D03*
X186100000Y-80800000D03*
X155200000Y-99800000D03*
X163700000Y-94300000D03*
X171200000Y-94100000D03*
X156800000Y-83900000D03*
X192900000Y-83000000D03*
X175300000Y-104700000D03*
X191100000Y-82100000D03*
X194700000Y-100100000D03*
X155900000Y-85600000D03*
X155900000Y-83000000D03*
X156800000Y-83000000D03*
X170400000Y-109800000D03*
X155900000Y-86500000D03*
X180900000Y-80800000D03*
X161900000Y-93400000D03*
X192900000Y-87100000D03*
X180900000Y-79900000D03*
X163200000Y-109500000D03*
X189900000Y-75700000D03*
X171200000Y-95000000D03*
X195600000Y-100100000D03*
X193800000Y-87100000D03*
X157700000Y-85600000D03*
X174400000Y-104700000D03*
X187000000Y-79900000D03*
X177100000Y-104700000D03*
X175900000Y-85700000D03*
X194700000Y-99200000D03*
X187000000Y-80800000D03*
X155000000Y-86500000D03*
X189500000Y-103300000D03*
X162800000Y-94300000D03*
X192000000Y-90100000D03*
X174100000Y-85700000D03*
X189900000Y-73900000D03*
X180000000Y-82600000D03*
X182400000Y-110300000D03*
X172100000Y-95000000D03*
X187700000Y-103300000D03*
X181500000Y-110300000D03*
X163700000Y-93400000D03*
X197400000Y-99200000D03*
X184300000Y-80800000D03*
X174200000Y-78000000D03*
X163200000Y-108600000D03*
X168600000Y-108900000D03*
X161000000Y-94300000D03*
X191100000Y-91000000D03*
X196500000Y-99200000D03*
X186000000Y-93200000D03*
X183300000Y-109400000D03*
X175000000Y-85700000D03*
X196500000Y-100100000D03*
X197400000Y-100100000D03*
X187700000Y-104200000D03*
X155000000Y-85600000D03*
X162300000Y-110400000D03*
X184200000Y-109400000D03*
X162300000Y-108600000D03*
X155900000Y-88500000D03*
X175900000Y-84800000D03*
%TO.N,+3.3V*%
X175900000Y-75400000D03*
X178700000Y-81400000D03*
X169875000Y-81275000D03*
%TO.N,/NRST*%
X172300000Y-86500000D03*
X184217219Y-77602460D03*
X182000000Y-94100000D03*
X182000000Y-87600000D03*
X169300000Y-83300000D03*
%TO.N,/SWCLK*%
X182600000Y-97300000D03*
X181500000Y-84000000D03*
%TO.N,/HC_TRIG*%
X179300000Y-106800000D03*
X176300000Y-88849500D03*
%TO.N,/HC_ECHO*%
X175900000Y-89800000D03*
X179083177Y-107775701D03*
%TO.N,/CAN_H*%
X162200000Y-77200000D03*
X174200000Y-76600000D03*
%TO.N,/CAN_L*%
X187800000Y-98500000D03*
X161200000Y-77200000D03*
X174729735Y-75752424D03*
X187800000Y-101000000D03*
%TO.N,/SWDIO*%
X180510063Y-85474500D03*
X180000000Y-97300000D03*
%TO.N,Net-(J4-Pad2)*%
X165200000Y-86000000D03*
X166000000Y-106400000D03*
%TO.N,/CAN_TX*%
X181959563Y-85345278D03*
X181800000Y-78900000D03*
%TO.N,/CAN_RX*%
X182212299Y-86312299D03*
X183500000Y-73600000D03*
%TD*%
D39*
%TO.N,+5V*%
X167150000Y-77055000D02*
X168800000Y-77055000D01*
X167150000Y-74055000D02*
X169855000Y-74055000D01*
X168575000Y-101725000D02*
X178925000Y-101725000D01*
X169600000Y-78100000D02*
X170200000Y-78700000D01*
X168000000Y-104050000D02*
X168000000Y-102300000D01*
X170400000Y-76500000D02*
X170400000Y-74600000D01*
X178925000Y-101725000D02*
X179250000Y-102050000D01*
X168000000Y-102300000D02*
X168575000Y-101725000D01*
X168800000Y-77055000D02*
X168900000Y-76955000D01*
X168900000Y-76955000D02*
X169945000Y-76955000D01*
X179250000Y-102050000D02*
X179250000Y-104050000D01*
X169855000Y-74055000D02*
X170400000Y-74600000D01*
X169100000Y-78100000D02*
X169600000Y-78100000D01*
X169945000Y-76955000D02*
X170400000Y-76500000D01*
D40*
%TO.N,GND*%
X174025000Y-81300000D02*
X174025000Y-79800000D01*
X168750000Y-75555000D02*
X166200000Y-75555000D01*
X165000000Y-83200000D02*
X164200000Y-84000000D01*
X179500000Y-74900000D02*
X179900000Y-74500000D01*
X168900000Y-75405000D02*
X168750000Y-75555000D01*
X179800000Y-91700000D02*
X177850000Y-91700000D01*
X179900000Y-74500000D02*
X180900000Y-74500000D01*
X171500000Y-82650000D02*
X171500000Y-80300000D01*
X166450000Y-84800000D02*
X166450000Y-86400000D01*
X166200000Y-75555000D02*
X163600000Y-75555000D01*
X163600000Y-75555000D02*
X163500000Y-75455000D01*
X188100000Y-74500000D02*
X180900000Y-74500000D01*
X171500000Y-80300000D02*
X170925000Y-79725000D01*
X170925000Y-79725000D02*
X168100000Y-79725000D01*
X179065000Y-76635000D02*
X179500000Y-76200000D01*
X177850000Y-91700000D02*
X177825000Y-91725000D01*
X177475000Y-76635000D02*
X179065000Y-76635000D01*
X166200000Y-74055000D02*
X166200000Y-75555000D01*
X180150000Y-92050000D02*
X179800000Y-91700000D01*
X179500000Y-76200000D02*
X179500000Y-74900000D01*
X172225000Y-83375000D02*
X171500000Y-82650000D01*
X166350000Y-79725000D02*
X168100000Y-79725000D01*
X166450000Y-83200000D02*
X165000000Y-83200000D01*
X166450000Y-83200000D02*
X166450000Y-84800000D01*
X164200000Y-84000000D02*
X162650000Y-84000000D01*
X180150000Y-92600000D02*
X180150000Y-92050000D01*
D39*
%TO.N,+3.3V*%
X166350000Y-81275000D02*
X165875000Y-81275000D01*
X185750000Y-97050000D02*
X184375000Y-95675000D01*
X183000000Y-95675000D02*
X183000000Y-92900000D01*
X179200000Y-90350000D02*
X177550000Y-90350000D01*
X177200000Y-90000000D02*
X177200000Y-88400000D01*
X186500000Y-97050000D02*
X185750000Y-97050000D01*
X175935000Y-75365000D02*
X175900000Y-75400000D01*
X170850000Y-82250000D02*
X170850000Y-84750000D01*
X169200000Y-86900000D02*
X169200000Y-87400000D01*
X182150000Y-90350000D02*
X183000000Y-91200000D01*
X169200000Y-87400000D02*
X169750000Y-87950000D01*
X178700000Y-81400000D02*
X177667500Y-81400000D01*
X169875000Y-81275000D02*
X170850000Y-82250000D01*
X183000000Y-91200000D02*
X183000000Y-92600000D01*
X163500000Y-77005000D02*
X165200000Y-77005000D01*
X169750000Y-87950000D02*
X170850000Y-87950000D01*
X168000000Y-86400000D02*
X168700000Y-86400000D01*
X179200000Y-90350000D02*
X182150000Y-90350000D01*
X183000000Y-92600000D02*
X183000000Y-92900000D01*
X168700000Y-86400000D02*
X169200000Y-86900000D01*
X175300000Y-73100000D02*
X175900000Y-73700000D01*
X177200000Y-88400000D02*
X176750000Y-87950000D01*
X177550000Y-90350000D02*
X177200000Y-90000000D01*
X184375000Y-95675000D02*
X183000000Y-95675000D01*
X170200000Y-73100000D02*
X175300000Y-73100000D01*
X168100000Y-81275000D02*
X169875000Y-81275000D01*
X165875000Y-81275000D02*
X165250000Y-80650000D01*
X170850000Y-84750000D02*
X168050000Y-84750000D01*
X177475000Y-75365000D02*
X175935000Y-75365000D01*
X165250000Y-80650000D02*
X165250000Y-77055000D01*
X168050000Y-84750000D02*
X168000000Y-84800000D01*
X181700000Y-92600000D02*
X183000000Y-92600000D01*
X165200000Y-77005000D02*
X165250000Y-77055000D01*
X177667500Y-81400000D02*
X177625000Y-81357500D01*
X168000000Y-84800000D02*
X168000000Y-86400000D01*
X176750000Y-87950000D02*
X170850000Y-87950000D01*
X175900000Y-73700000D02*
X175900000Y-75400000D01*
X168100000Y-81275000D02*
X166350000Y-81275000D01*
D40*
%TO.N,/NRST*%
X179000000Y-94500000D02*
X179400000Y-94100000D01*
X169200000Y-83200000D02*
X169300000Y-83300000D01*
X171950000Y-87150000D02*
X172300000Y-86800000D01*
X168000000Y-83200000D02*
X169200000Y-83200000D01*
X184217219Y-77602460D02*
X184114759Y-77500000D01*
X184114759Y-77500000D02*
X180900000Y-77500000D01*
X179400000Y-94100000D02*
X182000000Y-94100000D01*
X188100000Y-77500000D02*
X184319679Y-77500000D01*
X184319679Y-77500000D02*
X184217219Y-77602460D01*
X172300000Y-86800000D02*
X172300000Y-86500000D01*
X179000000Y-95675000D02*
X179000000Y-94500000D01*
X170850000Y-87150000D02*
X171950000Y-87150000D01*
%TO.N,Net-(D1-Pad1)*%
X176025000Y-79725000D02*
X177567500Y-79725000D01*
X177567500Y-79725000D02*
X177625000Y-79782500D01*
%TO.N,/SWCLK*%
X182000000Y-96700000D02*
X182600000Y-97300000D01*
X180750000Y-84750000D02*
X181500000Y-84000000D01*
X179200000Y-84750000D02*
X180750000Y-84750000D01*
X182000000Y-95675000D02*
X182000000Y-96700000D01*
%TO.N,/HC_TRIG*%
X179300000Y-106800000D02*
X180700000Y-106800000D01*
X176250500Y-88800000D02*
X176300000Y-88849500D01*
X170850000Y-89550000D02*
X172050000Y-89550000D01*
X172050000Y-89550000D02*
X172800000Y-88800000D01*
X172800000Y-88800000D02*
X176250500Y-88800000D01*
X180700000Y-106800000D02*
X181250000Y-106250000D01*
X181250000Y-106250000D02*
X181250000Y-104050000D01*
%TO.N,/HC_ECHO*%
X172225000Y-91725000D02*
X172225000Y-90175000D01*
X183250000Y-107150000D02*
X183250000Y-104050000D01*
X182600000Y-107800000D02*
X183250000Y-107150000D01*
X179083177Y-107775701D02*
X179107476Y-107800000D01*
X172225000Y-90175000D02*
X173000000Y-89400000D01*
X179107476Y-107800000D02*
X182600000Y-107800000D01*
X173000000Y-89400000D02*
X175500000Y-89400000D01*
X175500000Y-89400000D02*
X175900000Y-89800000D01*
%TO.N,/CAN_H*%
X159600000Y-97800000D02*
X159600000Y-81700000D01*
X162050000Y-98500000D02*
X160300000Y-98500000D01*
X160300000Y-98500000D02*
X159600000Y-97800000D01*
X189100000Y-100500000D02*
X191150000Y-100500000D01*
X165500000Y-100650000D02*
X187000000Y-100650000D01*
X162050000Y-98500000D02*
X164600000Y-98500000D01*
X164900000Y-98800000D02*
X164900000Y-100036396D01*
X165075000Y-100211396D02*
X165075000Y-100225000D01*
X187000000Y-100650000D02*
X187450000Y-100200000D01*
X165075000Y-100225000D02*
X165500000Y-100650000D01*
X164900000Y-100036396D02*
X165075000Y-100211396D01*
X164600000Y-98500000D02*
X164900000Y-98800000D01*
X174165000Y-76635000D02*
X174200000Y-76600000D01*
X187450000Y-100200000D02*
X188800000Y-100200000D01*
X162200000Y-79100000D02*
X162200000Y-77200000D01*
X159600000Y-81700000D02*
X162200000Y-79100000D01*
X188800000Y-100200000D02*
X189100000Y-100500000D01*
X172525000Y-76635000D02*
X174165000Y-76635000D01*
%TO.N,/CAN_L*%
X187800000Y-98500000D02*
X191150000Y-98500000D01*
X187700000Y-101100000D02*
X187800000Y-101000000D01*
X165300000Y-101100000D02*
X187700000Y-101100000D01*
X159100000Y-81300000D02*
X159100000Y-99800000D01*
X159100000Y-99800000D02*
X159800000Y-100500000D01*
X161200000Y-79200000D02*
X159100000Y-81300000D01*
X162050000Y-100500000D02*
X164700000Y-100500000D01*
X161200000Y-77200000D02*
X161200000Y-79200000D01*
X172525000Y-75365000D02*
X174342311Y-75365000D01*
X164700000Y-100500000D02*
X165300000Y-101100000D01*
X174342311Y-75365000D02*
X174729735Y-75752424D01*
X159800000Y-100500000D02*
X162050000Y-100500000D01*
%TO.N,/SWDIO*%
X180000000Y-95675000D02*
X180000000Y-97300000D01*
X179200000Y-85550000D02*
X180434563Y-85550000D01*
X180434563Y-85550000D02*
X180510063Y-85474500D01*
%TO.N,Net-(J4-Pad2)*%
X165200000Y-87500000D02*
X165200000Y-86000000D01*
X165700000Y-88000000D02*
X165400000Y-87700000D01*
X169400000Y-106800000D02*
X166400000Y-106800000D01*
X170000000Y-104050000D02*
X170000000Y-106200000D01*
X166400000Y-106800000D02*
X166000000Y-106400000D01*
X166400000Y-88000000D02*
X165700000Y-88000000D01*
X165400000Y-87700000D02*
X165200000Y-87500000D01*
X170000000Y-106200000D02*
X169400000Y-106800000D01*
%TO.N,Net-(R1-Pad1)*%
X172400000Y-81300000D02*
X173025000Y-81925000D01*
X172375000Y-81300000D02*
X172400000Y-81300000D01*
X173025000Y-81925000D02*
X173025000Y-83375000D01*
%TO.N,/LED*%
X177025000Y-83375000D02*
X177025000Y-82425000D01*
X177025000Y-82425000D02*
X176800000Y-82200000D01*
X176800000Y-82200000D02*
X176300000Y-82200000D01*
X176300000Y-82200000D02*
X176025000Y-81925000D01*
X176025000Y-81925000D02*
X176025000Y-81375000D01*
%TO.N,/N_DI*%
X170850000Y-88750000D02*
X168350000Y-88750000D01*
X168050000Y-88450000D02*
X168050000Y-88000000D01*
X168350000Y-88750000D02*
X168050000Y-88450000D01*
%TO.N,Net-(R3-Pad1)*%
X172375000Y-78055000D02*
X172525000Y-77905000D01*
X172375000Y-79800000D02*
X172375000Y-78055000D01*
%TO.N,/CAN_TX*%
X177475000Y-77905000D02*
X179005000Y-77905000D01*
X179200000Y-86350000D02*
X180125402Y-86350000D01*
X180125402Y-86350000D02*
X180954841Y-86350000D01*
X180000000Y-78900000D02*
X181800000Y-78900000D01*
X180954841Y-86350000D02*
X181959563Y-85345278D01*
X179005000Y-77905000D02*
X180000000Y-78900000D01*
%TO.N,/CAN_RX*%
X177900000Y-73300000D02*
X177475000Y-73725000D01*
X183200000Y-73300000D02*
X177900000Y-73300000D01*
X181374598Y-87150000D02*
X182212299Y-86312299D01*
X179200000Y-87150000D02*
X181374598Y-87150000D01*
X183500000Y-73600000D02*
X183200000Y-73300000D01*
X177475000Y-73725000D02*
X177475000Y-74095000D01*
%TD*%
%TA.AperFunction,Conductor*%
%TO.N,+5V*%
G36*
X169642121Y-76620002D02*
G01*
X169688614Y-76673658D01*
X169700000Y-76726000D01*
X169700000Y-78374000D01*
X169679998Y-78442121D01*
X169626342Y-78488614D01*
X169574000Y-78500000D01*
X167026000Y-78500000D01*
X166957879Y-78479998D01*
X166911386Y-78426342D01*
X166900000Y-78374000D01*
X166900000Y-77583164D01*
X166902088Y-77565353D01*
X166901745Y-77565316D01*
X166908131Y-77506531D01*
X166908500Y-77503134D01*
X166908500Y-77064500D01*
X166928502Y-76996379D01*
X166982158Y-76949886D01*
X167034500Y-76938500D01*
X167498134Y-76938500D01*
X167560316Y-76931745D01*
X167696705Y-76880615D01*
X167813261Y-76793261D01*
X167900615Y-76676705D01*
X167903767Y-76668296D01*
X167905302Y-76665493D01*
X167955559Y-76615346D01*
X168015823Y-76600000D01*
X169574000Y-76600000D01*
X169642121Y-76620002D01*
G37*
%TD.AperFunction*%
%TD*%
%TA.AperFunction,Conductor*%
%TO.N,GND*%
G36*
X198170018Y-72510000D02*
G01*
X198184851Y-72512310D01*
X198184855Y-72512310D01*
X198193724Y-72513691D01*
X198202628Y-72512527D01*
X198211599Y-72512636D01*
X198211589Y-72513451D01*
X198233100Y-72513743D01*
X198270366Y-72519645D01*
X198307859Y-72531827D01*
X198353560Y-72555113D01*
X198385452Y-72578285D01*
X198421715Y-72614548D01*
X198444887Y-72646440D01*
X198468173Y-72692141D01*
X198480354Y-72729631D01*
X198486119Y-72766025D01*
X198487551Y-72785750D01*
X198486309Y-72793724D01*
X198487474Y-72802632D01*
X198490436Y-72825283D01*
X198491500Y-72841621D01*
X198491500Y-94765500D01*
X198471498Y-94833621D01*
X198417842Y-94880114D01*
X198365500Y-94891500D01*
X195399600Y-94891500D01*
X195396354Y-94891837D01*
X195396350Y-94891837D01*
X195300693Y-94901762D01*
X195300689Y-94901763D01*
X195293835Y-94902474D01*
X195287299Y-94904655D01*
X195287297Y-94904655D01*
X195161879Y-94946498D01*
X195126055Y-94958450D01*
X194975652Y-95051522D01*
X194850695Y-95176697D01*
X194757885Y-95327262D01*
X194702203Y-95495139D01*
X194691500Y-95599600D01*
X194691500Y-96700400D01*
X194691837Y-96703646D01*
X194691837Y-96703650D01*
X194699711Y-96779534D01*
X194702474Y-96806165D01*
X194704655Y-96812701D01*
X194704655Y-96812703D01*
X194735392Y-96904832D01*
X194758450Y-96973945D01*
X194851522Y-97124348D01*
X194976697Y-97249305D01*
X194982927Y-97253145D01*
X194982928Y-97253146D01*
X195120090Y-97337694D01*
X195127262Y-97342115D01*
X195207005Y-97368564D01*
X195288611Y-97395632D01*
X195288613Y-97395632D01*
X195295139Y-97397797D01*
X195301975Y-97398497D01*
X195301978Y-97398498D01*
X195335945Y-97401978D01*
X195399600Y-97408500D01*
X198365500Y-97408500D01*
X198433621Y-97428502D01*
X198480114Y-97482158D01*
X198491500Y-97534500D01*
X198491500Y-101465500D01*
X198471498Y-101533621D01*
X198417842Y-101580114D01*
X198365500Y-101591500D01*
X195399600Y-101591500D01*
X195396354Y-101591837D01*
X195396350Y-101591837D01*
X195300693Y-101601762D01*
X195300689Y-101601763D01*
X195293835Y-101602474D01*
X195287299Y-101604655D01*
X195287297Y-101604655D01*
X195189752Y-101637199D01*
X195126055Y-101658450D01*
X194975652Y-101751522D01*
X194970479Y-101756704D01*
X194966518Y-101760672D01*
X194850695Y-101876697D01*
X194757885Y-102027262D01*
X194755581Y-102034209D01*
X194718114Y-102147170D01*
X194702203Y-102195139D01*
X194691500Y-102299600D01*
X194691500Y-103400400D01*
X194702474Y-103506165D01*
X194758450Y-103673945D01*
X194851522Y-103824348D01*
X194976697Y-103949305D01*
X194982927Y-103953145D01*
X194982928Y-103953146D01*
X195120090Y-104037694D01*
X195127262Y-104042115D01*
X195207005Y-104068564D01*
X195288611Y-104095632D01*
X195288613Y-104095632D01*
X195295139Y-104097797D01*
X195301975Y-104098497D01*
X195301978Y-104098498D01*
X195345031Y-104102909D01*
X195399600Y-104108500D01*
X198365500Y-104108500D01*
X198433621Y-104128502D01*
X198480114Y-104182158D01*
X198491500Y-104234500D01*
X198491500Y-111150633D01*
X198490000Y-111170018D01*
X198487690Y-111184851D01*
X198487690Y-111184855D01*
X198486309Y-111193724D01*
X198487473Y-111202628D01*
X198487364Y-111211599D01*
X198486549Y-111211589D01*
X198486257Y-111233100D01*
X198480355Y-111270366D01*
X198468173Y-111307859D01*
X198444887Y-111353560D01*
X198421715Y-111385452D01*
X198385452Y-111421715D01*
X198353560Y-111444887D01*
X198307859Y-111468173D01*
X198270369Y-111480354D01*
X198233975Y-111486119D01*
X198214250Y-111487551D01*
X198206276Y-111486309D01*
X198174714Y-111490436D01*
X198158379Y-111491500D01*
X188978490Y-111491500D01*
X188910369Y-111471498D01*
X188863876Y-111417842D01*
X188853146Y-111352658D01*
X188858172Y-111303601D01*
X188858500Y-111300400D01*
X188858500Y-108632703D01*
X193390743Y-108632703D01*
X193428268Y-108917734D01*
X193504129Y-109195036D01*
X193616923Y-109459476D01*
X193764561Y-109706161D01*
X193944313Y-109930528D01*
X194152851Y-110128423D01*
X194386317Y-110296186D01*
X194390112Y-110298195D01*
X194390113Y-110298196D01*
X194411869Y-110309715D01*
X194640392Y-110430712D01*
X194910373Y-110529511D01*
X195191264Y-110590755D01*
X195219841Y-110593004D01*
X195414282Y-110608307D01*
X195414291Y-110608307D01*
X195416739Y-110608500D01*
X195572271Y-110608500D01*
X195574407Y-110608354D01*
X195574418Y-110608354D01*
X195782548Y-110594165D01*
X195782554Y-110594164D01*
X195786825Y-110593873D01*
X195791020Y-110593004D01*
X195791022Y-110593004D01*
X195927584Y-110564723D01*
X196068342Y-110535574D01*
X196339343Y-110439607D01*
X196594812Y-110307750D01*
X196598313Y-110305289D01*
X196598317Y-110305287D01*
X196712418Y-110225095D01*
X196830023Y-110142441D01*
X197040622Y-109946740D01*
X197222713Y-109724268D01*
X197372927Y-109479142D01*
X197488483Y-109215898D01*
X197567244Y-108939406D01*
X197597515Y-108726704D01*
X197607146Y-108659036D01*
X197607146Y-108659034D01*
X197607751Y-108654784D01*
X197607845Y-108636951D01*
X197609235Y-108371583D01*
X197609235Y-108371576D01*
X197609257Y-108367297D01*
X197608622Y-108362469D01*
X197586420Y-108193835D01*
X197571732Y-108082266D01*
X197495871Y-107804964D01*
X197433136Y-107657885D01*
X197384763Y-107544476D01*
X197384761Y-107544472D01*
X197383077Y-107540524D01*
X197274849Y-107359688D01*
X197237643Y-107297521D01*
X197237640Y-107297517D01*
X197235439Y-107293839D01*
X197055687Y-107069472D01*
X196931270Y-106951405D01*
X196850258Y-106874527D01*
X196850255Y-106874525D01*
X196847149Y-106871577D01*
X196613683Y-106703814D01*
X196591843Y-106692250D01*
X196526311Y-106657553D01*
X196359608Y-106569288D01*
X196108452Y-106477378D01*
X196093658Y-106471964D01*
X196093656Y-106471963D01*
X196089627Y-106470489D01*
X195808736Y-106409245D01*
X195774683Y-106406565D01*
X195585718Y-106391693D01*
X195585709Y-106391693D01*
X195583261Y-106391500D01*
X195427729Y-106391500D01*
X195425593Y-106391646D01*
X195425582Y-106391646D01*
X195217452Y-106405835D01*
X195217446Y-106405836D01*
X195213175Y-106406127D01*
X195208980Y-106406996D01*
X195208978Y-106406996D01*
X195075060Y-106434729D01*
X194931658Y-106464426D01*
X194660657Y-106560393D01*
X194656848Y-106562359D01*
X194443314Y-106672572D01*
X194405188Y-106692250D01*
X194401687Y-106694711D01*
X194401683Y-106694713D01*
X194317815Y-106753657D01*
X194169977Y-106857559D01*
X193959378Y-107053260D01*
X193777287Y-107275732D01*
X193627073Y-107520858D01*
X193625347Y-107524791D01*
X193625346Y-107524792D01*
X193527868Y-107746854D01*
X193511517Y-107784102D01*
X193432756Y-108060594D01*
X193403598Y-108265472D01*
X193399204Y-108296350D01*
X193392249Y-108345216D01*
X193392227Y-108349505D01*
X193392226Y-108349512D01*
X193391108Y-108562938D01*
X193390743Y-108632703D01*
X188858500Y-108632703D01*
X188858500Y-108299600D01*
X188856799Y-108283207D01*
X188848238Y-108200693D01*
X188848237Y-108200689D01*
X188847526Y-108193835D01*
X188811724Y-108086522D01*
X188793868Y-108033003D01*
X188791550Y-108026055D01*
X188698478Y-107875652D01*
X188573303Y-107750695D01*
X188437136Y-107666760D01*
X188428968Y-107661725D01*
X188428966Y-107661724D01*
X188422738Y-107657885D01*
X188262254Y-107604655D01*
X188261389Y-107604368D01*
X188261387Y-107604368D01*
X188254861Y-107602203D01*
X188248025Y-107601503D01*
X188248022Y-107601502D01*
X188204969Y-107597091D01*
X188150400Y-107591500D01*
X187049600Y-107591500D01*
X187046354Y-107591837D01*
X187046350Y-107591837D01*
X186950693Y-107601762D01*
X186950689Y-107601763D01*
X186943835Y-107602474D01*
X186937299Y-107604655D01*
X186937297Y-107604655D01*
X186814394Y-107645659D01*
X186776055Y-107658450D01*
X186625652Y-107751522D01*
X186500695Y-107876697D01*
X186496855Y-107882927D01*
X186496854Y-107882928D01*
X186432188Y-107987836D01*
X186407885Y-108027262D01*
X186352203Y-108195139D01*
X186341500Y-108299600D01*
X186341500Y-111300400D01*
X186341837Y-111303644D01*
X186341837Y-111303652D01*
X186346905Y-111352497D01*
X186334040Y-111422318D01*
X186285469Y-111474100D01*
X186221578Y-111491500D01*
X178278490Y-111491500D01*
X178210369Y-111471498D01*
X178163876Y-111417842D01*
X178153146Y-111352658D01*
X178158172Y-111303601D01*
X178158500Y-111300400D01*
X178158500Y-108434715D01*
X178178502Y-108366594D01*
X178232158Y-108320101D01*
X178302432Y-108309997D01*
X178367012Y-108339491D01*
X178378130Y-108350398D01*
X178471924Y-108454567D01*
X178626425Y-108566819D01*
X178632453Y-108569503D01*
X178632455Y-108569504D01*
X178794858Y-108641810D01*
X178800889Y-108644495D01*
X178869299Y-108659036D01*
X178981233Y-108682829D01*
X178981238Y-108682829D01*
X178987690Y-108684201D01*
X179178664Y-108684201D01*
X179185116Y-108682829D01*
X179185121Y-108682829D01*
X179297055Y-108659036D01*
X179365465Y-108644495D01*
X179371496Y-108641810D01*
X179533899Y-108569504D01*
X179533901Y-108569503D01*
X179539929Y-108566819D01*
X179690305Y-108457564D01*
X179757173Y-108433706D01*
X179764366Y-108433500D01*
X182521233Y-108433500D01*
X182532416Y-108434027D01*
X182539909Y-108435702D01*
X182547835Y-108435453D01*
X182547836Y-108435453D01*
X182607986Y-108433562D01*
X182611945Y-108433500D01*
X182639856Y-108433500D01*
X182643791Y-108433003D01*
X182643856Y-108432995D01*
X182655693Y-108432062D01*
X182687951Y-108431048D01*
X182691970Y-108430922D01*
X182699889Y-108430673D01*
X182719343Y-108425021D01*
X182738700Y-108421013D01*
X182750930Y-108419468D01*
X182750931Y-108419468D01*
X182758797Y-108418474D01*
X182766168Y-108415555D01*
X182766170Y-108415555D01*
X182799912Y-108402196D01*
X182811142Y-108398351D01*
X182845983Y-108388229D01*
X182845984Y-108388229D01*
X182853593Y-108386018D01*
X182860412Y-108381985D01*
X182860417Y-108381983D01*
X182871028Y-108375707D01*
X182888776Y-108367012D01*
X182907617Y-108359552D01*
X182920209Y-108350404D01*
X182943387Y-108333564D01*
X182953307Y-108327048D01*
X182984535Y-108308580D01*
X182984538Y-108308578D01*
X182991362Y-108304542D01*
X183005683Y-108290221D01*
X183020717Y-108277380D01*
X183030693Y-108270132D01*
X183037107Y-108265472D01*
X183065288Y-108231407D01*
X183073278Y-108222626D01*
X183642258Y-107653647D01*
X183650537Y-107646113D01*
X183657018Y-107642000D01*
X183703644Y-107592348D01*
X183706398Y-107589507D01*
X183726135Y-107569770D01*
X183728615Y-107566573D01*
X183736320Y-107557551D01*
X183749124Y-107543916D01*
X183766586Y-107525321D01*
X183770405Y-107518375D01*
X183770407Y-107518372D01*
X183776348Y-107507566D01*
X183787199Y-107491047D01*
X183794758Y-107481301D01*
X183799614Y-107475041D01*
X183802759Y-107467772D01*
X183802762Y-107467768D01*
X183817174Y-107434463D01*
X183822391Y-107423813D01*
X183843695Y-107385060D01*
X183846097Y-107375707D01*
X183847682Y-107369530D01*
X183848733Y-107365437D01*
X183855137Y-107346734D01*
X183860033Y-107335420D01*
X183860033Y-107335419D01*
X183863181Y-107328145D01*
X183864420Y-107320322D01*
X183864423Y-107320312D01*
X183870099Y-107284476D01*
X183872505Y-107272856D01*
X183881528Y-107237711D01*
X183881528Y-107237710D01*
X183883500Y-107230030D01*
X183883500Y-107209776D01*
X183885051Y-107190065D01*
X183886980Y-107177886D01*
X183888220Y-107170057D01*
X183884059Y-107126038D01*
X183883500Y-107114181D01*
X183883500Y-106274899D01*
X183903502Y-106206778D01*
X183943197Y-106167755D01*
X183968120Y-106152332D01*
X183974348Y-106148478D01*
X184099305Y-106023303D01*
X184141538Y-105954789D01*
X184188275Y-105878968D01*
X184188276Y-105878966D01*
X184192115Y-105872738D01*
X184247797Y-105704861D01*
X184250054Y-105682838D01*
X184258172Y-105603598D01*
X184258500Y-105600400D01*
X184258500Y-102499600D01*
X184251642Y-102433500D01*
X184248238Y-102400692D01*
X184248237Y-102400688D01*
X184247526Y-102393834D01*
X184191550Y-102226054D01*
X184098478Y-102075652D01*
X183973303Y-101950695D01*
X183975007Y-101948988D01*
X183940604Y-101900458D01*
X183937376Y-101829535D01*
X183973004Y-101768125D01*
X184036178Y-101735727D01*
X184059761Y-101733500D01*
X187223004Y-101733500D01*
X187291125Y-101753502D01*
X187297065Y-101757564D01*
X187343248Y-101791118D01*
X187349276Y-101793802D01*
X187349278Y-101793803D01*
X187496837Y-101859500D01*
X187517712Y-101868794D01*
X187611112Y-101888647D01*
X187698056Y-101907128D01*
X187698061Y-101907128D01*
X187704513Y-101908500D01*
X187895487Y-101908500D01*
X187901939Y-101907128D01*
X187901944Y-101907128D01*
X187988888Y-101888647D01*
X188082288Y-101868794D01*
X188103163Y-101859500D01*
X188250722Y-101793803D01*
X188250724Y-101793802D01*
X188256752Y-101791118D01*
X188411253Y-101678866D01*
X188434758Y-101652761D01*
X188534621Y-101541852D01*
X188534622Y-101541851D01*
X188539040Y-101536944D01*
X188634527Y-101371556D01*
X188693542Y-101189928D01*
X188694233Y-101183356D01*
X188694272Y-101183171D01*
X188728000Y-101120698D01*
X188790149Y-101086376D01*
X188861969Y-101092062D01*
X188864940Y-101093695D01*
X188884558Y-101098732D01*
X188884562Y-101098733D01*
X188903266Y-101105137D01*
X188903269Y-101105138D01*
X188921855Y-101113181D01*
X188929680Y-101114420D01*
X188929682Y-101114421D01*
X188932303Y-101114836D01*
X188934190Y-101115731D01*
X188937299Y-101116634D01*
X188937153Y-101117135D01*
X188996456Y-101145249D01*
X189019733Y-101172977D01*
X189051522Y-101224348D01*
X189176697Y-101349305D01*
X189182927Y-101353145D01*
X189182928Y-101353146D01*
X189320090Y-101437694D01*
X189327262Y-101442115D01*
X189397766Y-101465500D01*
X189488611Y-101495632D01*
X189488613Y-101495632D01*
X189495139Y-101497797D01*
X189501975Y-101498497D01*
X189501978Y-101498498D01*
X189545031Y-101502909D01*
X189599600Y-101508500D01*
X192700400Y-101508500D01*
X192703646Y-101508163D01*
X192703650Y-101508163D01*
X192799308Y-101498238D01*
X192799312Y-101498237D01*
X192806166Y-101497526D01*
X192812702Y-101495345D01*
X192812704Y-101495345D01*
X192944806Y-101451272D01*
X192973946Y-101441550D01*
X193124348Y-101348478D01*
X193249305Y-101223303D01*
X193274043Y-101183171D01*
X193338275Y-101078968D01*
X193338276Y-101078966D01*
X193342115Y-101072738D01*
X193397797Y-100904861D01*
X193399090Y-100892247D01*
X193408172Y-100803598D01*
X193408500Y-100800400D01*
X193408500Y-100199600D01*
X193403166Y-100148192D01*
X193398238Y-100100692D01*
X193398237Y-100100688D01*
X193397526Y-100093834D01*
X193389918Y-100071028D01*
X193343868Y-99933002D01*
X193341550Y-99926054D01*
X193248478Y-99775652D01*
X193123303Y-99650695D01*
X193114243Y-99645110D01*
X193090487Y-99630467D01*
X193052829Y-99607254D01*
X193005337Y-99554483D01*
X192993913Y-99484411D01*
X193022187Y-99419288D01*
X193052642Y-99392851D01*
X193124348Y-99348478D01*
X193249305Y-99223303D01*
X193267863Y-99193197D01*
X193338275Y-99078968D01*
X193338276Y-99078966D01*
X193342115Y-99072738D01*
X193397797Y-98904861D01*
X193401210Y-98871556D01*
X193408172Y-98803598D01*
X193408500Y-98800400D01*
X193408500Y-98199600D01*
X193397526Y-98093834D01*
X193381803Y-98046705D01*
X193343868Y-97933002D01*
X193341550Y-97926054D01*
X193248478Y-97775652D01*
X193123303Y-97650695D01*
X193091686Y-97631206D01*
X192978968Y-97561725D01*
X192978966Y-97561724D01*
X192972738Y-97557885D01*
X192829677Y-97510434D01*
X192811389Y-97504368D01*
X192811387Y-97504368D01*
X192804861Y-97502203D01*
X192798025Y-97501503D01*
X192798022Y-97501502D01*
X192748243Y-97496402D01*
X192700400Y-97491500D01*
X189599600Y-97491500D01*
X189596354Y-97491837D01*
X189596350Y-97491837D01*
X189500692Y-97501762D01*
X189500688Y-97501763D01*
X189493834Y-97502474D01*
X189487298Y-97504655D01*
X189487296Y-97504655D01*
X189388564Y-97537595D01*
X189326054Y-97558450D01*
X189175652Y-97651522D01*
X189050695Y-97776697D01*
X189046855Y-97782927D01*
X189032251Y-97806618D01*
X188979478Y-97854110D01*
X188924992Y-97866500D01*
X188508200Y-97866500D01*
X188440079Y-97846498D01*
X188420853Y-97830157D01*
X188420580Y-97830460D01*
X188415668Y-97826037D01*
X188411253Y-97821134D01*
X188314245Y-97750653D01*
X188262094Y-97712763D01*
X188262093Y-97712762D01*
X188256752Y-97708882D01*
X188250724Y-97706198D01*
X188250722Y-97706197D01*
X188088319Y-97633891D01*
X188088318Y-97633891D01*
X188082288Y-97631206D01*
X187988887Y-97611353D01*
X187901944Y-97592872D01*
X187901939Y-97592872D01*
X187895487Y-97591500D01*
X187704513Y-97591500D01*
X187698058Y-97592872D01*
X187698049Y-97592873D01*
X187611083Y-97611359D01*
X187540292Y-97605958D01*
X187483659Y-97563142D01*
X187459165Y-97496504D01*
X187465291Y-97448447D01*
X187473149Y-97424757D01*
X187474849Y-97408172D01*
X187483172Y-97326930D01*
X187483500Y-97323732D01*
X187483500Y-96776268D01*
X187481441Y-96756418D01*
X187477524Y-96718675D01*
X187472887Y-96673981D01*
X187440333Y-96576405D01*
X187421073Y-96518676D01*
X187421072Y-96518674D01*
X187418756Y-96511732D01*
X187328752Y-96366287D01*
X187207702Y-96245448D01*
X187201471Y-96241607D01*
X187068331Y-96159538D01*
X187068329Y-96159537D01*
X187062101Y-96155698D01*
X186899757Y-96101851D01*
X186892920Y-96101151D01*
X186892918Y-96101150D01*
X186851599Y-96096917D01*
X186798732Y-96091500D01*
X186201268Y-96091500D01*
X186198022Y-96091837D01*
X186198018Y-96091837D01*
X186163917Y-96095375D01*
X186098981Y-96102113D01*
X185960037Y-96148469D01*
X185951749Y-96151234D01*
X185880799Y-96153819D01*
X185822779Y-96120808D01*
X184896428Y-95194458D01*
X184890588Y-95188206D01*
X184857556Y-95150340D01*
X184857553Y-95150337D01*
X184852561Y-95144615D01*
X184800280Y-95107871D01*
X184794986Y-95103939D01*
X184750693Y-95069209D01*
X184744718Y-95064524D01*
X184737802Y-95061401D01*
X184735516Y-95060017D01*
X184720835Y-95051643D01*
X184718475Y-95050378D01*
X184712261Y-95046010D01*
X184705182Y-95043250D01*
X184705180Y-95043249D01*
X184652725Y-95022798D01*
X184646656Y-95020247D01*
X184588427Y-94993955D01*
X184580960Y-94992571D01*
X184578405Y-94991770D01*
X184562152Y-94987141D01*
X184559572Y-94986478D01*
X184552491Y-94983718D01*
X184544960Y-94982727D01*
X184544958Y-94982726D01*
X184515339Y-94978827D01*
X184489139Y-94975378D01*
X184482641Y-94974348D01*
X184419814Y-94962704D01*
X184412234Y-94963141D01*
X184412233Y-94963141D01*
X184357608Y-94966291D01*
X184350354Y-94966500D01*
X183906072Y-94966500D01*
X183837951Y-94946498D01*
X183791458Y-94892842D01*
X183785075Y-94875652D01*
X183761357Y-94794013D01*
X183761357Y-94794012D01*
X183759145Y-94786399D01*
X183726045Y-94730431D01*
X183708500Y-94666294D01*
X183708500Y-92608762D01*
X183708502Y-92608102D01*
X183708951Y-92522372D01*
X183708951Y-92522371D01*
X183708974Y-92517969D01*
X183708610Y-92516452D01*
X183708500Y-92514550D01*
X183708500Y-92000000D01*
X194111884Y-92000000D01*
X194130314Y-92210655D01*
X194185044Y-92414910D01*
X194187366Y-92419891D01*
X194187367Y-92419892D01*
X194269480Y-92595983D01*
X194274411Y-92606558D01*
X194395699Y-92779776D01*
X194545224Y-92929301D01*
X194718442Y-93050589D01*
X194723420Y-93052910D01*
X194723423Y-93052912D01*
X194800347Y-93088782D01*
X194910090Y-93139956D01*
X194915398Y-93141378D01*
X194915400Y-93141379D01*
X195109030Y-93193262D01*
X195109032Y-93193262D01*
X195114345Y-93194686D01*
X195325000Y-93213116D01*
X195535655Y-93194686D01*
X195540968Y-93193262D01*
X195540970Y-93193262D01*
X195734600Y-93141379D01*
X195734602Y-93141378D01*
X195739910Y-93139956D01*
X195849653Y-93088782D01*
X195926577Y-93052912D01*
X195926580Y-93052910D01*
X195931558Y-93050589D01*
X196104776Y-92929301D01*
X196254301Y-92779776D01*
X196375589Y-92606558D01*
X196380521Y-92595983D01*
X196462633Y-92419892D01*
X196462634Y-92419891D01*
X196464956Y-92414910D01*
X196519686Y-92210655D01*
X196538116Y-92000000D01*
X196519686Y-91789345D01*
X196518262Y-91784030D01*
X196466379Y-91590400D01*
X196466378Y-91590398D01*
X196464956Y-91585090D01*
X196375589Y-91393442D01*
X196254301Y-91220224D01*
X196104776Y-91070699D01*
X195931558Y-90949411D01*
X195926580Y-90947090D01*
X195926577Y-90947088D01*
X195744892Y-90862367D01*
X195744891Y-90862366D01*
X195739910Y-90860044D01*
X195734602Y-90858622D01*
X195734600Y-90858621D01*
X195540970Y-90806738D01*
X195540968Y-90806738D01*
X195535655Y-90805314D01*
X195325000Y-90786884D01*
X195114345Y-90805314D01*
X195109032Y-90806738D01*
X195109030Y-90806738D01*
X194915400Y-90858621D01*
X194915398Y-90858622D01*
X194910090Y-90860044D01*
X194905109Y-90862366D01*
X194905108Y-90862367D01*
X194723423Y-90947088D01*
X194723420Y-90947090D01*
X194718442Y-90949411D01*
X194545224Y-91070699D01*
X194395699Y-91220224D01*
X194274411Y-91393442D01*
X194185044Y-91585090D01*
X194183622Y-91590398D01*
X194183621Y-91590400D01*
X194131738Y-91784030D01*
X194130314Y-91789345D01*
X194111884Y-92000000D01*
X183708500Y-92000000D01*
X183708500Y-91384500D01*
X183728502Y-91316379D01*
X183782158Y-91269886D01*
X183834500Y-91258500D01*
X187123134Y-91258500D01*
X187185316Y-91251745D01*
X187321705Y-91200615D01*
X187438261Y-91113261D01*
X187525615Y-90996705D01*
X187576745Y-90860316D01*
X187583500Y-90798134D01*
X187583500Y-87201866D01*
X187576745Y-87139684D01*
X187525615Y-87003295D01*
X187438261Y-86886739D01*
X187321705Y-86799385D01*
X187185316Y-86748255D01*
X187123134Y-86741500D01*
X183526866Y-86741500D01*
X183464684Y-86748255D01*
X183328295Y-86799385D01*
X183211739Y-86886739D01*
X183211017Y-86885776D01*
X183156381Y-86915610D01*
X183093369Y-86911103D01*
X183120310Y-86973198D01*
X183113256Y-87032981D01*
X183073255Y-87139684D01*
X183072402Y-87147536D01*
X183072401Y-87147540D01*
X183068965Y-87179176D01*
X183041724Y-87244738D01*
X182983361Y-87285165D01*
X182912407Y-87287621D01*
X182851389Y-87251326D01*
X182835764Y-87227730D01*
X182834527Y-87228444D01*
X182791301Y-87153574D01*
X182774563Y-87084578D01*
X182797784Y-87017487D01*
X182816106Y-86996941D01*
X182818211Y-86995046D01*
X182823552Y-86991165D01*
X182901639Y-86904440D01*
X182962084Y-86867202D01*
X183029379Y-86868484D01*
X183028730Y-86867998D01*
X183003919Y-86801478D01*
X183020479Y-86729489D01*
X183043522Y-86689578D01*
X183043523Y-86689577D01*
X183046826Y-86683855D01*
X183105841Y-86502227D01*
X183120236Y-86365271D01*
X183125113Y-86318864D01*
X183125803Y-86312299D01*
X183113601Y-86196206D01*
X183106531Y-86128934D01*
X183106531Y-86128932D01*
X183105841Y-86122371D01*
X183046826Y-85940743D01*
X182951339Y-85775355D01*
X182870490Y-85685563D01*
X182839775Y-85621559D01*
X182844295Y-85562321D01*
X182853105Y-85535206D01*
X182854584Y-85521142D01*
X182872377Y-85351843D01*
X182873067Y-85345278D01*
X182859139Y-85212763D01*
X182853795Y-85161913D01*
X182853795Y-85161911D01*
X182853105Y-85155350D01*
X182794090Y-84973722D01*
X182772605Y-84936508D01*
X182701904Y-84814052D01*
X182698603Y-84808334D01*
X182570816Y-84666412D01*
X182416315Y-84554160D01*
X182410285Y-84551475D01*
X182410281Y-84551473D01*
X182394682Y-84544528D01*
X182340587Y-84498548D01*
X182319938Y-84430620D01*
X182330825Y-84378174D01*
X182331226Y-84377274D01*
X182334527Y-84371556D01*
X182393542Y-84189928D01*
X182401268Y-84116424D01*
X182412814Y-84006565D01*
X182413504Y-84000000D01*
X182404386Y-83913248D01*
X182394232Y-83816635D01*
X182394232Y-83816633D01*
X182393542Y-83810072D01*
X182334527Y-83628444D01*
X182239040Y-83463056D01*
X182111253Y-83321134D01*
X181956752Y-83208882D01*
X181950724Y-83206198D01*
X181950722Y-83206197D01*
X181788319Y-83133891D01*
X181788318Y-83133891D01*
X181782288Y-83131206D01*
X181688888Y-83111353D01*
X181601944Y-83092872D01*
X181601939Y-83092872D01*
X181595487Y-83091500D01*
X181404513Y-83091500D01*
X181398061Y-83092872D01*
X181398056Y-83092872D01*
X181311112Y-83111353D01*
X181217712Y-83131206D01*
X181211682Y-83133891D01*
X181211681Y-83133891D01*
X181049278Y-83206197D01*
X181049276Y-83206198D01*
X181043248Y-83208882D01*
X180888747Y-83321134D01*
X180760960Y-83463056D01*
X180665473Y-83628444D01*
X180606458Y-83810072D01*
X180605768Y-83816633D01*
X180605768Y-83816635D01*
X180589093Y-83975292D01*
X180562080Y-84040949D01*
X180552878Y-84051217D01*
X180524500Y-84079595D01*
X180462188Y-84113621D01*
X180435405Y-84116500D01*
X180244140Y-84116500D01*
X180180001Y-84098954D01*
X180085414Y-84043016D01*
X180085415Y-84043016D01*
X180078593Y-84038982D01*
X180070983Y-84036771D01*
X179931072Y-83996122D01*
X179931069Y-83996121D01*
X179924889Y-83994326D01*
X179912238Y-83993330D01*
X179891438Y-83991693D01*
X179891425Y-83991692D01*
X179888979Y-83991500D01*
X179863870Y-83991500D01*
X178709500Y-83991501D01*
X178641379Y-83971499D01*
X178594886Y-83917843D01*
X178583500Y-83865501D01*
X178583499Y-82688496D01*
X178583499Y-82686022D01*
X178580674Y-82650111D01*
X178536018Y-82496407D01*
X178531986Y-82489589D01*
X178529801Y-82484540D01*
X178521104Y-82414079D01*
X178551882Y-82350100D01*
X178612364Y-82312918D01*
X178645438Y-82308500D01*
X178795487Y-82308500D01*
X178801939Y-82307128D01*
X178801944Y-82307128D01*
X178888887Y-82288647D01*
X178982288Y-82268794D01*
X179034702Y-82245458D01*
X179150722Y-82193803D01*
X179150724Y-82193802D01*
X179156752Y-82191118D01*
X179176677Y-82176642D01*
X179231671Y-82136686D01*
X179311253Y-82078866D01*
X179339552Y-82047437D01*
X179434621Y-81941852D01*
X179434622Y-81941851D01*
X179439040Y-81936944D01*
X179526011Y-81786306D01*
X179531223Y-81777279D01*
X179531224Y-81777278D01*
X179534527Y-81771556D01*
X179593542Y-81589928D01*
X179594921Y-81576813D01*
X179612814Y-81406565D01*
X179613504Y-81400000D01*
X179601690Y-81287594D01*
X179594232Y-81216635D01*
X179594232Y-81216633D01*
X179593542Y-81210072D01*
X179534527Y-81028444D01*
X179525787Y-81013305D01*
X179518105Y-81000000D01*
X194111884Y-81000000D01*
X194130314Y-81210655D01*
X194185044Y-81414910D01*
X194187366Y-81419891D01*
X194187367Y-81419892D01*
X194269584Y-81596206D01*
X194274411Y-81606558D01*
X194395699Y-81779776D01*
X194545224Y-81929301D01*
X194718442Y-82050589D01*
X194723420Y-82052910D01*
X194723423Y-82052912D01*
X194903077Y-82136686D01*
X194910090Y-82139956D01*
X194915398Y-82141378D01*
X194915400Y-82141379D01*
X195109030Y-82193262D01*
X195109032Y-82193262D01*
X195114345Y-82194686D01*
X195325000Y-82213116D01*
X195535655Y-82194686D01*
X195540968Y-82193262D01*
X195540970Y-82193262D01*
X195734600Y-82141379D01*
X195734602Y-82141378D01*
X195739910Y-82139956D01*
X195746923Y-82136686D01*
X195926577Y-82052912D01*
X195926580Y-82052910D01*
X195931558Y-82050589D01*
X196104776Y-81929301D01*
X196254301Y-81779776D01*
X196375589Y-81606558D01*
X196380417Y-81596206D01*
X196462633Y-81419892D01*
X196462634Y-81419891D01*
X196464956Y-81414910D01*
X196519686Y-81210655D01*
X196538116Y-81000000D01*
X196519686Y-80789345D01*
X196501409Y-80721134D01*
X196466379Y-80590400D01*
X196466378Y-80590398D01*
X196464956Y-80585090D01*
X196462633Y-80580108D01*
X196377912Y-80398423D01*
X196377910Y-80398420D01*
X196375589Y-80393442D01*
X196254301Y-80220224D01*
X196104776Y-80070699D01*
X195931558Y-79949411D01*
X195926580Y-79947090D01*
X195926577Y-79947088D01*
X195744892Y-79862367D01*
X195744891Y-79862366D01*
X195739910Y-79860044D01*
X195734602Y-79858622D01*
X195734600Y-79858621D01*
X195540970Y-79806738D01*
X195540968Y-79806738D01*
X195535655Y-79805314D01*
X195325000Y-79786884D01*
X195114345Y-79805314D01*
X195109032Y-79806738D01*
X195109030Y-79806738D01*
X194915400Y-79858621D01*
X194915398Y-79858622D01*
X194910090Y-79860044D01*
X194905109Y-79862366D01*
X194905108Y-79862367D01*
X194723423Y-79947088D01*
X194723420Y-79947090D01*
X194718442Y-79949411D01*
X194545224Y-80070699D01*
X194395699Y-80220224D01*
X194274411Y-80393442D01*
X194272090Y-80398420D01*
X194272088Y-80398423D01*
X194187367Y-80580108D01*
X194185044Y-80585090D01*
X194183622Y-80590398D01*
X194183621Y-80590400D01*
X194148591Y-80721134D01*
X194130314Y-80789345D01*
X194111884Y-81000000D01*
X179518105Y-81000000D01*
X179497314Y-80963990D01*
X179439040Y-80863056D01*
X179432943Y-80856284D01*
X179315675Y-80726045D01*
X179315674Y-80726044D01*
X179311253Y-80721134D01*
X179212157Y-80649136D01*
X179162094Y-80612763D01*
X179162093Y-80612762D01*
X179156752Y-80608882D01*
X179150724Y-80606198D01*
X179150722Y-80606197D01*
X178988319Y-80533891D01*
X178988318Y-80533891D01*
X178982288Y-80531206D01*
X178882583Y-80510013D01*
X178801944Y-80492872D01*
X178801939Y-80492872D01*
X178795487Y-80491500D01*
X178657382Y-80491500D01*
X178589261Y-80471498D01*
X178542768Y-80417842D01*
X178532664Y-80347568D01*
X178542532Y-80314451D01*
X178544849Y-80310692D01*
X178574857Y-80220224D01*
X178596072Y-80156262D01*
X178596072Y-80156260D01*
X178598238Y-80149731D01*
X178608500Y-80049572D01*
X178608500Y-79515428D01*
X178608133Y-79511886D01*
X178604339Y-79475321D01*
X178597978Y-79414018D01*
X178544308Y-79253151D01*
X178455071Y-79108945D01*
X178335053Y-78989136D01*
X178305354Y-78970829D01*
X178266306Y-78946760D01*
X178218813Y-78893988D01*
X178207389Y-78823917D01*
X178235663Y-78758793D01*
X178294657Y-78719293D01*
X178332422Y-78713500D01*
X178366502Y-78713500D01*
X178368950Y-78713307D01*
X178368958Y-78713307D01*
X178397421Y-78711067D01*
X178397426Y-78711066D01*
X178403831Y-78710562D01*
X178520796Y-78676581D01*
X178555988Y-78666357D01*
X178555990Y-78666356D01*
X178563601Y-78664145D01*
X178670907Y-78600684D01*
X178739721Y-78583225D01*
X178807052Y-78605741D01*
X178824139Y-78620043D01*
X179496343Y-79292247D01*
X179503887Y-79300537D01*
X179508000Y-79307018D01*
X179513777Y-79312443D01*
X179557667Y-79353658D01*
X179560509Y-79356413D01*
X179580230Y-79376134D01*
X179583425Y-79378612D01*
X179592447Y-79386318D01*
X179624679Y-79416586D01*
X179631628Y-79420406D01*
X179642432Y-79426346D01*
X179658956Y-79437199D01*
X179674959Y-79449613D01*
X179715543Y-79467176D01*
X179726173Y-79472383D01*
X179764940Y-79493695D01*
X179772617Y-79495666D01*
X179772622Y-79495668D01*
X179784558Y-79498732D01*
X179803266Y-79505137D01*
X179821855Y-79513181D01*
X179829680Y-79514420D01*
X179829682Y-79514421D01*
X179865519Y-79520097D01*
X179877140Y-79522504D01*
X179912289Y-79531528D01*
X179919970Y-79533500D01*
X179940231Y-79533500D01*
X179959940Y-79535051D01*
X179979943Y-79538219D01*
X179987835Y-79537473D01*
X179993062Y-79536979D01*
X180023954Y-79534059D01*
X180035811Y-79533500D01*
X181091800Y-79533500D01*
X181159921Y-79553502D01*
X181179147Y-79569843D01*
X181179420Y-79569540D01*
X181184332Y-79573963D01*
X181188747Y-79578866D01*
X181198873Y-79586223D01*
X181281778Y-79646457D01*
X181343248Y-79691118D01*
X181349276Y-79693802D01*
X181349278Y-79693803D01*
X181511681Y-79766109D01*
X181517712Y-79768794D01*
X181605072Y-79787363D01*
X181698056Y-79807128D01*
X181698061Y-79807128D01*
X181704513Y-79808500D01*
X181895487Y-79808500D01*
X181901939Y-79807128D01*
X181901944Y-79807128D01*
X181994928Y-79787363D01*
X182082288Y-79768794D01*
X182088319Y-79766109D01*
X182250722Y-79693803D01*
X182250724Y-79693802D01*
X182256752Y-79691118D01*
X182411253Y-79578866D01*
X182435597Y-79551829D01*
X182534621Y-79441852D01*
X182534622Y-79441851D01*
X182539040Y-79436944D01*
X182614737Y-79305833D01*
X182631223Y-79277279D01*
X182631224Y-79277278D01*
X182634527Y-79271556D01*
X182693542Y-79089928D01*
X182695624Y-79070125D01*
X182712814Y-78906565D01*
X182713504Y-78900000D01*
X182705611Y-78824900D01*
X182694232Y-78716635D01*
X182694232Y-78716633D01*
X182693542Y-78710072D01*
X182634527Y-78528444D01*
X182623641Y-78509588D01*
X182547293Y-78377351D01*
X182539040Y-78363056D01*
X182521709Y-78343808D01*
X182490993Y-78279802D01*
X182499758Y-78209349D01*
X182545221Y-78154818D01*
X182615347Y-78133500D01*
X183416765Y-78133500D01*
X183484886Y-78153502D01*
X183510400Y-78175189D01*
X183605966Y-78281326D01*
X183691968Y-78343810D01*
X183738133Y-78377351D01*
X183760467Y-78393578D01*
X183766495Y-78396262D01*
X183766497Y-78396263D01*
X183928900Y-78468569D01*
X183934931Y-78471254D01*
X184024638Y-78490322D01*
X184115275Y-78509588D01*
X184115280Y-78509588D01*
X184121732Y-78510960D01*
X184312706Y-78510960D01*
X184319158Y-78509588D01*
X184319163Y-78509588D01*
X184409800Y-78490322D01*
X184499507Y-78471254D01*
X184505538Y-78468569D01*
X184667941Y-78396263D01*
X184667943Y-78396262D01*
X184673971Y-78393578D01*
X184696306Y-78377351D01*
X184742470Y-78343810D01*
X184828472Y-78281326D01*
X184924037Y-78175190D01*
X184984483Y-78137950D01*
X185017673Y-78133500D01*
X186666116Y-78133500D01*
X186734237Y-78153502D01*
X186780730Y-78207158D01*
X186790826Y-78248207D01*
X186791500Y-78248134D01*
X186798255Y-78310316D01*
X186849385Y-78446705D01*
X186936739Y-78563261D01*
X187053295Y-78650615D01*
X187189684Y-78701745D01*
X187251866Y-78708500D01*
X188948134Y-78708500D01*
X189010316Y-78701745D01*
X189146705Y-78650615D01*
X189263261Y-78563261D01*
X189350615Y-78446705D01*
X189401745Y-78310316D01*
X189408500Y-78248134D01*
X189408500Y-77989455D01*
X189744825Y-77989455D01*
X189745512Y-77996462D01*
X189745512Y-77996465D01*
X189747955Y-78021379D01*
X189761255Y-78157025D01*
X189814402Y-78316791D01*
X189818049Y-78322813D01*
X189818050Y-78322815D01*
X189897433Y-78453891D01*
X189901624Y-78460812D01*
X189906513Y-78465875D01*
X189906514Y-78465876D01*
X189942526Y-78503167D01*
X190018586Y-78581929D01*
X190024483Y-78585788D01*
X190153577Y-78670266D01*
X190153581Y-78670268D01*
X190159475Y-78674125D01*
X190317289Y-78732815D01*
X190324270Y-78733746D01*
X190324272Y-78733747D01*
X190369812Y-78739823D01*
X190484183Y-78755083D01*
X190491194Y-78754445D01*
X190491198Y-78754445D01*
X190644843Y-78740462D01*
X190651864Y-78739823D01*
X190658566Y-78737645D01*
X190658568Y-78737645D01*
X190805298Y-78689970D01*
X190805301Y-78689969D01*
X190811997Y-78687793D01*
X190956623Y-78601578D01*
X190961717Y-78596727D01*
X190961721Y-78596724D01*
X191073454Y-78490322D01*
X191073455Y-78490320D01*
X191078554Y-78485465D01*
X191087085Y-78472626D01*
X191150385Y-78377351D01*
X191171731Y-78345223D01*
X191231521Y-78187823D01*
X191252407Y-78039217D01*
X191254404Y-78025010D01*
X191254404Y-78025006D01*
X191254955Y-78021088D01*
X191255249Y-78000000D01*
X191253672Y-77985938D01*
X191237266Y-77839672D01*
X191237265Y-77839669D01*
X191236481Y-77832676D01*
X191181108Y-77673668D01*
X191091884Y-77530879D01*
X191083723Y-77522661D01*
X190978205Y-77416403D01*
X190978201Y-77416400D01*
X190973242Y-77411406D01*
X190831079Y-77321187D01*
X190672462Y-77264706D01*
X190665474Y-77263873D01*
X190665471Y-77263872D01*
X190561701Y-77251498D01*
X190505273Y-77244769D01*
X190498270Y-77245505D01*
X190498269Y-77245505D01*
X190452712Y-77250293D01*
X190337821Y-77262369D01*
X190331155Y-77264638D01*
X190331152Y-77264639D01*
X190185098Y-77314360D01*
X190185095Y-77314361D01*
X190178431Y-77316630D01*
X190172436Y-77320318D01*
X190172432Y-77320320D01*
X190041021Y-77401165D01*
X190041019Y-77401167D01*
X190035022Y-77404856D01*
X189988906Y-77450016D01*
X189929185Y-77508500D01*
X189914724Y-77522661D01*
X189823515Y-77664190D01*
X189765927Y-77822409D01*
X189744825Y-77989455D01*
X189408500Y-77989455D01*
X189408500Y-76751866D01*
X189401745Y-76689684D01*
X189350615Y-76553295D01*
X189263261Y-76436739D01*
X189146705Y-76349385D01*
X189010316Y-76298255D01*
X188948134Y-76291500D01*
X187251866Y-76291500D01*
X187189684Y-76298255D01*
X187053295Y-76349385D01*
X186936739Y-76436739D01*
X186849385Y-76553295D01*
X186798255Y-76689684D01*
X186791500Y-76751866D01*
X186790361Y-76751742D01*
X186768289Y-76814234D01*
X186712206Y-76857768D01*
X186666116Y-76866500D01*
X184790829Y-76866500D01*
X184722708Y-76846498D01*
X184716768Y-76842436D01*
X184679313Y-76815223D01*
X184679312Y-76815222D01*
X184673971Y-76811342D01*
X184667943Y-76808658D01*
X184667941Y-76808657D01*
X184505538Y-76736351D01*
X184505537Y-76736351D01*
X184499507Y-76733666D01*
X184406106Y-76713813D01*
X184319163Y-76695332D01*
X184319158Y-76695332D01*
X184312706Y-76693960D01*
X184121732Y-76693960D01*
X184115280Y-76695332D01*
X184115275Y-76695332D01*
X184028332Y-76713813D01*
X183934931Y-76733666D01*
X183928901Y-76736351D01*
X183928900Y-76736351D01*
X183766497Y-76808657D01*
X183766495Y-76808658D01*
X183760467Y-76811342D01*
X183755126Y-76815222D01*
X183755125Y-76815223D01*
X183717670Y-76842436D01*
X183650802Y-76866294D01*
X183643609Y-76866500D01*
X182333884Y-76866500D01*
X182265763Y-76846498D01*
X182219270Y-76792842D01*
X182209174Y-76751793D01*
X182208500Y-76751866D01*
X182208131Y-76748469D01*
X182201745Y-76689684D01*
X182150615Y-76553295D01*
X182063261Y-76436739D01*
X181946705Y-76349385D01*
X181810316Y-76298255D01*
X181748134Y-76291500D01*
X180051866Y-76291500D01*
X179989684Y-76298255D01*
X179853295Y-76349385D01*
X179736739Y-76436739D01*
X179649385Y-76553295D01*
X179598255Y-76689684D01*
X179591500Y-76751866D01*
X179591500Y-77295784D01*
X179571498Y-77363905D01*
X179517842Y-77410398D01*
X179447568Y-77420502D01*
X179391436Y-77397718D01*
X179386101Y-77393842D01*
X179380321Y-77388414D01*
X179373373Y-77384594D01*
X179362566Y-77378652D01*
X179346047Y-77367801D01*
X179341024Y-77363905D01*
X179330041Y-77355386D01*
X179322772Y-77352241D01*
X179322768Y-77352238D01*
X179289463Y-77337826D01*
X179278813Y-77332609D01*
X179240060Y-77311305D01*
X179220437Y-77306267D01*
X179201734Y-77299863D01*
X179190420Y-77294967D01*
X179190419Y-77294967D01*
X179183145Y-77291819D01*
X179175322Y-77290580D01*
X179175312Y-77290577D01*
X179139476Y-77284901D01*
X179127856Y-77282495D01*
X179092711Y-77273472D01*
X179092710Y-77273472D01*
X179085030Y-77271500D01*
X179064776Y-77271500D01*
X179045065Y-77269949D01*
X179032886Y-77268020D01*
X179025057Y-77266780D01*
X179017165Y-77267526D01*
X178981039Y-77270941D01*
X178969181Y-77271500D01*
X178799950Y-77271500D01*
X178731829Y-77251498D01*
X178718729Y-77240941D01*
X178718675Y-77241011D01*
X178712415Y-77236155D01*
X178706807Y-77230547D01*
X178699983Y-77226511D01*
X178699980Y-77226509D01*
X178570427Y-77149892D01*
X178570428Y-77149892D01*
X178563601Y-77145855D01*
X178555990Y-77143644D01*
X178555988Y-77143643D01*
X178493445Y-77125473D01*
X178403831Y-77099438D01*
X178397426Y-77098934D01*
X178397421Y-77098933D01*
X178368958Y-77096693D01*
X178368950Y-77096693D01*
X178366502Y-77096500D01*
X176583498Y-77096500D01*
X176581050Y-77096693D01*
X176581042Y-77096693D01*
X176552579Y-77098933D01*
X176552574Y-77098934D01*
X176546169Y-77099438D01*
X176456555Y-77125473D01*
X176394012Y-77143643D01*
X176394010Y-77143644D01*
X176386399Y-77145855D01*
X176379572Y-77149892D01*
X176379573Y-77149892D01*
X176250020Y-77226509D01*
X176250017Y-77226511D01*
X176243193Y-77230547D01*
X176125547Y-77348193D01*
X176121511Y-77355017D01*
X176121509Y-77355020D01*
X176076745Y-77430712D01*
X176040855Y-77491399D01*
X176038644Y-77499010D01*
X176038643Y-77499012D01*
X176025198Y-77545292D01*
X175994438Y-77651169D01*
X175993934Y-77657574D01*
X175993933Y-77657579D01*
X175993413Y-77664190D01*
X175991500Y-77688498D01*
X175991500Y-78121502D01*
X175991693Y-78123950D01*
X175991693Y-78123958D01*
X175992795Y-78137950D01*
X175994438Y-78158831D01*
X176008478Y-78207158D01*
X176038388Y-78310108D01*
X176040855Y-78318601D01*
X176044892Y-78325427D01*
X176121509Y-78454980D01*
X176121511Y-78454983D01*
X176125547Y-78461807D01*
X176243193Y-78579453D01*
X176250020Y-78583491D01*
X176256281Y-78588347D01*
X176255001Y-78589997D01*
X176296028Y-78633931D01*
X176308739Y-78703780D01*
X176281669Y-78769413D01*
X176223412Y-78809992D01*
X176183441Y-78816500D01*
X175704226Y-78816501D01*
X175693366Y-78816501D01*
X175690508Y-78816764D01*
X175690499Y-78816764D01*
X175654996Y-78820026D01*
X175619938Y-78823247D01*
X175613560Y-78825246D01*
X175613559Y-78825246D01*
X175463550Y-78872256D01*
X175463548Y-78872257D01*
X175456301Y-78874528D01*
X175309619Y-78963361D01*
X175188361Y-79084619D01*
X175099528Y-79231301D01*
X175097257Y-79238548D01*
X175097256Y-79238550D01*
X175090505Y-79260094D01*
X175048247Y-79394938D01*
X175041500Y-79468365D01*
X175041501Y-79981634D01*
X175048247Y-80055062D01*
X175050246Y-80061440D01*
X175050246Y-80061441D01*
X175077915Y-80149731D01*
X175099528Y-80218699D01*
X175188361Y-80365381D01*
X175283885Y-80460905D01*
X175317911Y-80523217D01*
X175312846Y-80594032D01*
X175283885Y-80639095D01*
X175188361Y-80734619D01*
X175099528Y-80881301D01*
X175097257Y-80888548D01*
X175097256Y-80888550D01*
X175088085Y-80917816D01*
X175048247Y-81044938D01*
X175041500Y-81118365D01*
X175041501Y-81631634D01*
X175041764Y-81634492D01*
X175041764Y-81634501D01*
X175043553Y-81653971D01*
X175048247Y-81705062D01*
X175050246Y-81711440D01*
X175050246Y-81711441D01*
X175070879Y-81777279D01*
X175099528Y-81868699D01*
X175138143Y-81932460D01*
X175158589Y-81966221D01*
X175176768Y-82034851D01*
X175154957Y-82102414D01*
X175100082Y-82147460D01*
X175085964Y-82152489D01*
X175060151Y-82159988D01*
X174989847Y-82159988D01*
X174856075Y-82121123D01*
X174856073Y-82121123D01*
X174849889Y-82119326D01*
X174837238Y-82118330D01*
X174816438Y-82116693D01*
X174816425Y-82116692D01*
X174813979Y-82116500D01*
X174625115Y-82116500D01*
X174436022Y-82116501D01*
X174428234Y-82117114D01*
X174406526Y-82118821D01*
X174406523Y-82118822D01*
X174400111Y-82119326D01*
X174393937Y-82121120D01*
X174393930Y-82121121D01*
X174260153Y-82159988D01*
X174189847Y-82159988D01*
X174056075Y-82121123D01*
X174056073Y-82121123D01*
X174049889Y-82119326D01*
X174037238Y-82118330D01*
X174016438Y-82116693D01*
X174016425Y-82116692D01*
X174013979Y-82116500D01*
X174007211Y-82116500D01*
X173785754Y-82116501D01*
X173717634Y-82096499D01*
X173671141Y-82042844D01*
X173661396Y-81985069D01*
X173660701Y-81985091D01*
X173660541Y-81980002D01*
X173658562Y-81917032D01*
X173658500Y-81913075D01*
X173658500Y-81885144D01*
X173657994Y-81881138D01*
X173657061Y-81869292D01*
X173657043Y-81868699D01*
X173655673Y-81825110D01*
X173650022Y-81805658D01*
X173646014Y-81786306D01*
X173644468Y-81774068D01*
X173644467Y-81774066D01*
X173643474Y-81766203D01*
X173627194Y-81725086D01*
X173623359Y-81713885D01*
X173611018Y-81671406D01*
X173606985Y-81664587D01*
X173606983Y-81664582D01*
X173600707Y-81653971D01*
X173592010Y-81636221D01*
X173584552Y-81617383D01*
X173558571Y-81581623D01*
X173552053Y-81571701D01*
X173533578Y-81540460D01*
X173533574Y-81540455D01*
X173529542Y-81533637D01*
X173515218Y-81519313D01*
X173502376Y-81504278D01*
X173490472Y-81487893D01*
X173456406Y-81459711D01*
X173447627Y-81451722D01*
X173320404Y-81324499D01*
X173286378Y-81262187D01*
X173283499Y-81235404D01*
X173283499Y-80968366D01*
X173283234Y-80965474D01*
X173279974Y-80929996D01*
X173276753Y-80894938D01*
X173250982Y-80812702D01*
X173227744Y-80738550D01*
X173227743Y-80738548D01*
X173225472Y-80731301D01*
X173155202Y-80615270D01*
X173137023Y-80546642D01*
X173155202Y-80484729D01*
X173163367Y-80471248D01*
X173225472Y-80368699D01*
X173238587Y-80326851D01*
X173270443Y-80225196D01*
X173276753Y-80205062D01*
X173283500Y-80131635D01*
X173283499Y-79468366D01*
X173283234Y-79465474D01*
X173279900Y-79429197D01*
X173276753Y-79394938D01*
X173274052Y-79386318D01*
X173227744Y-79238550D01*
X173227743Y-79238548D01*
X173225472Y-79231301D01*
X173136639Y-79084619D01*
X173045405Y-78993385D01*
X173011379Y-78931073D01*
X173008500Y-78904290D01*
X173008500Y-78839500D01*
X173028502Y-78771379D01*
X173082158Y-78724886D01*
X173134500Y-78713500D01*
X173416502Y-78713500D01*
X173418950Y-78713307D01*
X173418958Y-78713307D01*
X173447421Y-78711067D01*
X173447426Y-78711066D01*
X173453831Y-78710562D01*
X173570796Y-78676581D01*
X173605988Y-78666357D01*
X173605990Y-78666356D01*
X173613601Y-78664145D01*
X173664690Y-78633931D01*
X173749980Y-78583491D01*
X173749983Y-78583489D01*
X173756807Y-78579453D01*
X173874453Y-78461807D01*
X173878489Y-78454983D01*
X173878491Y-78454980D01*
X173955108Y-78325427D01*
X173959145Y-78318601D01*
X173961613Y-78310108D01*
X173991522Y-78207158D01*
X174005562Y-78158831D01*
X174007206Y-78137950D01*
X174008307Y-78123958D01*
X174008307Y-78123950D01*
X174008500Y-78121502D01*
X174008500Y-77688498D01*
X174006121Y-77658264D01*
X174006067Y-77657584D01*
X174006067Y-77657583D01*
X174005562Y-77651169D01*
X174006624Y-77651085D01*
X174013422Y-77586535D01*
X174057850Y-77531157D01*
X174129935Y-77508500D01*
X174295487Y-77508500D01*
X174301939Y-77507128D01*
X174301944Y-77507128D01*
X174408054Y-77484573D01*
X174482288Y-77468794D01*
X174488319Y-77466109D01*
X174650722Y-77393803D01*
X174650724Y-77393802D01*
X174656752Y-77391118D01*
X174665732Y-77384594D01*
X174753003Y-77321187D01*
X174811253Y-77278866D01*
X174854760Y-77230547D01*
X174934621Y-77141852D01*
X174934622Y-77141851D01*
X174939040Y-77136944D01*
X175034527Y-76971556D01*
X175093542Y-76789928D01*
X175097543Y-76751866D01*
X175103484Y-76695332D01*
X175108542Y-76647207D01*
X175135555Y-76581551D01*
X175175457Y-76550781D01*
X175174735Y-76549530D01*
X175180455Y-76546227D01*
X175186487Y-76543542D01*
X175210570Y-76526045D01*
X175270092Y-76482799D01*
X175340988Y-76431290D01*
X175463365Y-76295376D01*
X175523810Y-76258138D01*
X175594794Y-76259490D01*
X175608248Y-76264580D01*
X175617712Y-76268794D01*
X175711113Y-76288647D01*
X175798056Y-76307128D01*
X175798061Y-76307128D01*
X175804513Y-76308500D01*
X175995487Y-76308500D01*
X176001939Y-76307128D01*
X176001944Y-76307128D01*
X176088887Y-76288647D01*
X176182288Y-76268794D01*
X176202772Y-76259674D01*
X176350722Y-76193803D01*
X176350724Y-76193802D01*
X176356752Y-76191118D01*
X176381132Y-76173405D01*
X176448000Y-76149546D01*
X176490345Y-76154344D01*
X176546169Y-76170562D01*
X176552574Y-76171066D01*
X176552579Y-76171067D01*
X176581042Y-76173307D01*
X176581050Y-76173307D01*
X176583498Y-76173500D01*
X178366502Y-76173500D01*
X178368950Y-76173307D01*
X178368958Y-76173307D01*
X178397421Y-76171067D01*
X178397426Y-76171066D01*
X178403831Y-76170562D01*
X178518930Y-76137123D01*
X178555988Y-76126357D01*
X178555990Y-76126356D01*
X178563601Y-76124145D01*
X178627255Y-76086500D01*
X178699980Y-76043491D01*
X178699983Y-76043489D01*
X178706807Y-76039453D01*
X178824453Y-75921807D01*
X178828489Y-75914983D01*
X178828491Y-75914980D01*
X178905108Y-75785427D01*
X178909145Y-75778601D01*
X178951532Y-75632703D01*
X193390743Y-75632703D01*
X193428268Y-75917734D01*
X193504129Y-76195036D01*
X193508989Y-76206430D01*
X193607225Y-76436739D01*
X193616923Y-76459476D01*
X193668772Y-76546109D01*
X193754700Y-76689684D01*
X193764561Y-76706161D01*
X193944313Y-76930528D01*
X194026056Y-77008099D01*
X194124199Y-77101233D01*
X194152851Y-77128423D01*
X194252461Y-77200000D01*
X194367618Y-77282749D01*
X194386317Y-77296186D01*
X194390112Y-77298195D01*
X194390113Y-77298196D01*
X194411149Y-77309334D01*
X194640392Y-77430712D01*
X194661802Y-77438547D01*
X194900451Y-77525880D01*
X194910373Y-77529511D01*
X195191264Y-77590755D01*
X195219841Y-77593004D01*
X195414282Y-77608307D01*
X195414291Y-77608307D01*
X195416739Y-77608500D01*
X195572271Y-77608500D01*
X195574407Y-77608354D01*
X195574418Y-77608354D01*
X195782548Y-77594165D01*
X195782554Y-77594164D01*
X195786825Y-77593873D01*
X195791020Y-77593004D01*
X195791022Y-77593004D01*
X196021415Y-77545292D01*
X196068342Y-77535574D01*
X196339343Y-77439607D01*
X196448310Y-77383365D01*
X196591005Y-77309715D01*
X196591006Y-77309715D01*
X196594812Y-77307750D01*
X196598313Y-77305289D01*
X196598317Y-77305287D01*
X196825165Y-77145855D01*
X196830023Y-77142441D01*
X196995939Y-76988262D01*
X197037479Y-76949661D01*
X197037481Y-76949658D01*
X197040622Y-76946740D01*
X197222713Y-76724268D01*
X197372927Y-76479142D01*
X197461882Y-76276498D01*
X197486757Y-76219830D01*
X197488483Y-76215898D01*
X197492661Y-76201233D01*
X197541830Y-76028621D01*
X197567244Y-75939406D01*
X197607751Y-75654784D01*
X197607845Y-75636951D01*
X197609235Y-75371583D01*
X197609235Y-75371576D01*
X197609257Y-75367297D01*
X197571732Y-75082266D01*
X197495871Y-74804964D01*
X197462841Y-74727526D01*
X197384763Y-74544476D01*
X197384761Y-74544472D01*
X197383077Y-74540524D01*
X197246010Y-74311502D01*
X197237643Y-74297521D01*
X197237640Y-74297517D01*
X197235439Y-74293839D01*
X197055687Y-74069472D01*
X196912402Y-73933500D01*
X196850258Y-73874527D01*
X196850255Y-73874525D01*
X196847149Y-73871577D01*
X196613683Y-73703814D01*
X196591843Y-73692250D01*
X196568654Y-73679972D01*
X196359608Y-73569288D01*
X196089627Y-73470489D01*
X195808736Y-73409245D01*
X195777685Y-73406801D01*
X195585718Y-73391693D01*
X195585709Y-73391693D01*
X195583261Y-73391500D01*
X195427729Y-73391500D01*
X195425593Y-73391646D01*
X195425582Y-73391646D01*
X195217452Y-73405835D01*
X195217446Y-73405836D01*
X195213175Y-73406127D01*
X195208980Y-73406996D01*
X195208978Y-73406996D01*
X195162433Y-73416635D01*
X194931658Y-73464426D01*
X194660657Y-73560393D01*
X194405188Y-73692250D01*
X194401687Y-73694711D01*
X194401683Y-73694713D01*
X194391594Y-73701804D01*
X194169977Y-73857559D01*
X194154892Y-73871577D01*
X193966935Y-74046238D01*
X193959378Y-74053260D01*
X193777287Y-74275732D01*
X193627073Y-74520858D01*
X193625347Y-74524791D01*
X193625346Y-74524792D01*
X193519346Y-74766267D01*
X193511517Y-74784102D01*
X193510342Y-74788229D01*
X193510341Y-74788230D01*
X193500868Y-74821486D01*
X193432756Y-75060594D01*
X193392249Y-75345216D01*
X193392227Y-75349505D01*
X193392226Y-75349512D01*
X193390783Y-75625008D01*
X193390743Y-75632703D01*
X178951532Y-75632703D01*
X178955562Y-75618831D01*
X178958500Y-75581502D01*
X178958500Y-75148498D01*
X178955562Y-75111169D01*
X178912661Y-74963500D01*
X178911357Y-74959012D01*
X178911356Y-74959010D01*
X178909145Y-74951399D01*
X178824453Y-74808193D01*
X178821771Y-74805511D01*
X178796498Y-74741139D01*
X178810400Y-74671516D01*
X178820572Y-74655688D01*
X178824453Y-74651807D01*
X178909145Y-74508601D01*
X178955562Y-74348831D01*
X178958500Y-74311502D01*
X178958500Y-74059500D01*
X178978502Y-73991379D01*
X179032158Y-73944886D01*
X179084500Y-73933500D01*
X182570755Y-73933500D01*
X182638876Y-73953502D01*
X182679874Y-73996500D01*
X182757658Y-74131226D01*
X182757661Y-74131231D01*
X182760960Y-74136944D01*
X182765378Y-74141851D01*
X182765379Y-74141852D01*
X182884325Y-74273955D01*
X182888747Y-74278866D01*
X183043248Y-74391118D01*
X183049276Y-74393802D01*
X183049278Y-74393803D01*
X183211681Y-74466109D01*
X183217712Y-74468794D01*
X183311112Y-74488647D01*
X183398056Y-74507128D01*
X183398061Y-74507128D01*
X183404513Y-74508500D01*
X183595487Y-74508500D01*
X183601939Y-74507128D01*
X183601944Y-74507128D01*
X183688888Y-74488647D01*
X183782288Y-74468794D01*
X183788319Y-74466109D01*
X183950722Y-74393803D01*
X183950724Y-74393802D01*
X183956752Y-74391118D01*
X184111253Y-74278866D01*
X184115675Y-74273955D01*
X184234621Y-74141852D01*
X184234622Y-74141851D01*
X184239040Y-74136944D01*
X184334527Y-73971556D01*
X184393542Y-73789928D01*
X184413504Y-73600000D01*
X184407690Y-73544684D01*
X184394232Y-73416635D01*
X184394232Y-73416633D01*
X184393542Y-73410072D01*
X184334527Y-73228444D01*
X184239040Y-73063056D01*
X184111253Y-72921134D01*
X183956752Y-72808882D01*
X183950724Y-72806198D01*
X183950722Y-72806197D01*
X183823618Y-72749607D01*
X183769522Y-72703627D01*
X183748873Y-72635700D01*
X183768225Y-72567391D01*
X183821436Y-72520390D01*
X183874867Y-72508500D01*
X198150633Y-72508500D01*
X198170018Y-72510000D01*
G37*
%TD.AperFunction*%
%TA.AperFunction,Conductor*%
G36*
X158384430Y-97192376D02*
G01*
X158441302Y-97234873D01*
X158466171Y-97301372D01*
X158466500Y-97310470D01*
X158466500Y-99721233D01*
X158465973Y-99732416D01*
X158464298Y-99739909D01*
X158464547Y-99747835D01*
X158464547Y-99747836D01*
X158466438Y-99807986D01*
X158466500Y-99811945D01*
X158466500Y-99839856D01*
X158466997Y-99843790D01*
X158466997Y-99843791D01*
X158467005Y-99843856D01*
X158467938Y-99855693D01*
X158469327Y-99899889D01*
X158474978Y-99919339D01*
X158478987Y-99938700D01*
X158481526Y-99958797D01*
X158484445Y-99966168D01*
X158484445Y-99966170D01*
X158497804Y-99999912D01*
X158501649Y-100011142D01*
X158513982Y-100053593D01*
X158518015Y-100060412D01*
X158518017Y-100060417D01*
X158524293Y-100071028D01*
X158532988Y-100088776D01*
X158540448Y-100107617D01*
X158545110Y-100114033D01*
X158545110Y-100114034D01*
X158566436Y-100143387D01*
X158572952Y-100153307D01*
X158595458Y-100191362D01*
X158609779Y-100205683D01*
X158622619Y-100220716D01*
X158634528Y-100237107D01*
X158640634Y-100242158D01*
X158668605Y-100265298D01*
X158677384Y-100273288D01*
X159296343Y-100892247D01*
X159303887Y-100900537D01*
X159308000Y-100907018D01*
X159313777Y-100912443D01*
X159357667Y-100953658D01*
X159360509Y-100956413D01*
X159380230Y-100976134D01*
X159383425Y-100978612D01*
X159392447Y-100986318D01*
X159424679Y-101016586D01*
X159431628Y-101020406D01*
X159442432Y-101026346D01*
X159458956Y-101037199D01*
X159474959Y-101049613D01*
X159515543Y-101067176D01*
X159526173Y-101072383D01*
X159564940Y-101093695D01*
X159572617Y-101095666D01*
X159572622Y-101095668D01*
X159584558Y-101098732D01*
X159603266Y-101105137D01*
X159621855Y-101113181D01*
X159629680Y-101114420D01*
X159629682Y-101114421D01*
X159665519Y-101120097D01*
X159677140Y-101122504D01*
X159712289Y-101131528D01*
X159719970Y-101133500D01*
X159740231Y-101133500D01*
X159759940Y-101135051D01*
X159779943Y-101138219D01*
X159813837Y-101135015D01*
X159883536Y-101148517D01*
X159932836Y-101194152D01*
X159951522Y-101224348D01*
X160076697Y-101349305D01*
X160082927Y-101353145D01*
X160082928Y-101353146D01*
X160220090Y-101437694D01*
X160227262Y-101442115D01*
X160297766Y-101465500D01*
X160388611Y-101495632D01*
X160388613Y-101495632D01*
X160395139Y-101497797D01*
X160401975Y-101498497D01*
X160401978Y-101498498D01*
X160445031Y-101502909D01*
X160499600Y-101508500D01*
X163600400Y-101508500D01*
X163603646Y-101508163D01*
X163603650Y-101508163D01*
X163699308Y-101498238D01*
X163699312Y-101498237D01*
X163706166Y-101497526D01*
X163712702Y-101495345D01*
X163712704Y-101495345D01*
X163844806Y-101451272D01*
X163873946Y-101441550D01*
X164024348Y-101348478D01*
X164149305Y-101223303D01*
X164167749Y-101193382D01*
X164220522Y-101145890D01*
X164275008Y-101133500D01*
X164385406Y-101133500D01*
X164453527Y-101153502D01*
X164474501Y-101170405D01*
X164796343Y-101492247D01*
X164803887Y-101500537D01*
X164808000Y-101507018D01*
X164813777Y-101512443D01*
X164857667Y-101553658D01*
X164860509Y-101556413D01*
X164880230Y-101576134D01*
X164883425Y-101578612D01*
X164892447Y-101586318D01*
X164924679Y-101616586D01*
X164931628Y-101620406D01*
X164942432Y-101626346D01*
X164958956Y-101637199D01*
X164974959Y-101649613D01*
X165015543Y-101667176D01*
X165026173Y-101672383D01*
X165064940Y-101693695D01*
X165072617Y-101695666D01*
X165072622Y-101695668D01*
X165084558Y-101698732D01*
X165103266Y-101705137D01*
X165121855Y-101713181D01*
X165129683Y-101714421D01*
X165129690Y-101714423D01*
X165165524Y-101720099D01*
X165177144Y-101722505D01*
X165212289Y-101731528D01*
X165219970Y-101733500D01*
X165240224Y-101733500D01*
X165259934Y-101735051D01*
X165279943Y-101738220D01*
X165287835Y-101737474D01*
X165323961Y-101734059D01*
X165335819Y-101733500D01*
X165360500Y-101733500D01*
X165428621Y-101753502D01*
X165475114Y-101807158D01*
X165486500Y-101859500D01*
X165486500Y-105369170D01*
X165489574Y-105425269D01*
X165492582Y-105452638D01*
X165492864Y-105454338D01*
X165500749Y-105501932D01*
X165500750Y-105501937D01*
X165501768Y-105508079D01*
X165503972Y-105513903D01*
X165503974Y-105513911D01*
X165506583Y-105520806D01*
X165511983Y-105591597D01*
X165478252Y-105654070D01*
X165462802Y-105667329D01*
X165388747Y-105721134D01*
X165384326Y-105726044D01*
X165384325Y-105726045D01*
X165308635Y-105810108D01*
X165260960Y-105863056D01*
X165257659Y-105868774D01*
X165171434Y-106018120D01*
X165165473Y-106028444D01*
X165106458Y-106210072D01*
X165105768Y-106216633D01*
X165105768Y-106216635D01*
X165087389Y-106391500D01*
X165086496Y-106400000D01*
X165087186Y-106406565D01*
X165104289Y-106569288D01*
X165106458Y-106589928D01*
X165165473Y-106771556D01*
X165260960Y-106936944D01*
X165265378Y-106941851D01*
X165265379Y-106941852D01*
X165383298Y-107072814D01*
X165388747Y-107078866D01*
X165453675Y-107126039D01*
X165522406Y-107175975D01*
X165543248Y-107191118D01*
X165549276Y-107193802D01*
X165549278Y-107193803D01*
X165711681Y-107266109D01*
X165717712Y-107268794D01*
X165791490Y-107284476D01*
X165898056Y-107307128D01*
X165898061Y-107307128D01*
X165904513Y-107308500D01*
X165977620Y-107308500D01*
X166038331Y-107324091D01*
X166042441Y-107326351D01*
X166058956Y-107337199D01*
X166074959Y-107349613D01*
X166082239Y-107352763D01*
X166089056Y-107356795D01*
X166087345Y-107359688D01*
X166130113Y-107395276D01*
X166151472Y-107462983D01*
X166132834Y-107531490D01*
X166080118Y-107579045D01*
X166025497Y-107591500D01*
X165099600Y-107591500D01*
X165096354Y-107591837D01*
X165096350Y-107591837D01*
X165000693Y-107601762D01*
X165000689Y-107601763D01*
X164993835Y-107602474D01*
X164987299Y-107604655D01*
X164987297Y-107604655D01*
X164864394Y-107645659D01*
X164826055Y-107658450D01*
X164675652Y-107751522D01*
X164550695Y-107876697D01*
X164546855Y-107882927D01*
X164546854Y-107882928D01*
X164482188Y-107987836D01*
X164457885Y-108027262D01*
X164402203Y-108195139D01*
X164391500Y-108299600D01*
X164391500Y-111300400D01*
X164391837Y-111303644D01*
X164391837Y-111303652D01*
X164396905Y-111352497D01*
X164384040Y-111422318D01*
X164335469Y-111474100D01*
X164271578Y-111491500D01*
X154849367Y-111491500D01*
X154829982Y-111490000D01*
X154815149Y-111487690D01*
X154815145Y-111487690D01*
X154806276Y-111486309D01*
X154797372Y-111487473D01*
X154788401Y-111487364D01*
X154788411Y-111486549D01*
X154766900Y-111486257D01*
X154729634Y-111480355D01*
X154692141Y-111468173D01*
X154646440Y-111444887D01*
X154614548Y-111421715D01*
X154578285Y-111385452D01*
X154555113Y-111353560D01*
X154531827Y-111307859D01*
X154519645Y-111270366D01*
X154514661Y-111238897D01*
X154513769Y-111212554D01*
X154513576Y-111212552D01*
X154513627Y-111208357D01*
X154513729Y-111200000D01*
X154509773Y-111172376D01*
X154508500Y-111154514D01*
X154508500Y-108632703D01*
X155390743Y-108632703D01*
X155428268Y-108917734D01*
X155504129Y-109195036D01*
X155616923Y-109459476D01*
X155764561Y-109706161D01*
X155944313Y-109930528D01*
X156152851Y-110128423D01*
X156386317Y-110296186D01*
X156390112Y-110298195D01*
X156390113Y-110298196D01*
X156411869Y-110309715D01*
X156640392Y-110430712D01*
X156910373Y-110529511D01*
X157191264Y-110590755D01*
X157219841Y-110593004D01*
X157414282Y-110608307D01*
X157414291Y-110608307D01*
X157416739Y-110608500D01*
X157572271Y-110608500D01*
X157574407Y-110608354D01*
X157574418Y-110608354D01*
X157782548Y-110594165D01*
X157782554Y-110594164D01*
X157786825Y-110593873D01*
X157791020Y-110593004D01*
X157791022Y-110593004D01*
X157927584Y-110564723D01*
X158068342Y-110535574D01*
X158339343Y-110439607D01*
X158594812Y-110307750D01*
X158598313Y-110305289D01*
X158598317Y-110305287D01*
X158712418Y-110225095D01*
X158830023Y-110142441D01*
X159040622Y-109946740D01*
X159222713Y-109724268D01*
X159372927Y-109479142D01*
X159488483Y-109215898D01*
X159567244Y-108939406D01*
X159597515Y-108726704D01*
X159607146Y-108659036D01*
X159607146Y-108659034D01*
X159607751Y-108654784D01*
X159607845Y-108636951D01*
X159609235Y-108371583D01*
X159609235Y-108371576D01*
X159609257Y-108367297D01*
X159608622Y-108362469D01*
X159586420Y-108193835D01*
X159571732Y-108082266D01*
X159495871Y-107804964D01*
X159433136Y-107657885D01*
X159384763Y-107544476D01*
X159384761Y-107544472D01*
X159383077Y-107540524D01*
X159274849Y-107359688D01*
X159237643Y-107297521D01*
X159237640Y-107297517D01*
X159235439Y-107293839D01*
X159055687Y-107069472D01*
X158931270Y-106951405D01*
X158850258Y-106874527D01*
X158850255Y-106874525D01*
X158847149Y-106871577D01*
X158613683Y-106703814D01*
X158591843Y-106692250D01*
X158526311Y-106657553D01*
X158359608Y-106569288D01*
X158108452Y-106477378D01*
X158093658Y-106471964D01*
X158093656Y-106471963D01*
X158089627Y-106470489D01*
X157808736Y-106409245D01*
X157774683Y-106406565D01*
X157585718Y-106391693D01*
X157585709Y-106391693D01*
X157583261Y-106391500D01*
X157427729Y-106391500D01*
X157425593Y-106391646D01*
X157425582Y-106391646D01*
X157217452Y-106405835D01*
X157217446Y-106405836D01*
X157213175Y-106406127D01*
X157208980Y-106406996D01*
X157208978Y-106406996D01*
X157075060Y-106434729D01*
X156931658Y-106464426D01*
X156660657Y-106560393D01*
X156656848Y-106562359D01*
X156443314Y-106672572D01*
X156405188Y-106692250D01*
X156401687Y-106694711D01*
X156401683Y-106694713D01*
X156317815Y-106753657D01*
X156169977Y-106857559D01*
X155959378Y-107053260D01*
X155777287Y-107275732D01*
X155627073Y-107520858D01*
X155625347Y-107524791D01*
X155625346Y-107524792D01*
X155527868Y-107746854D01*
X155511517Y-107784102D01*
X155432756Y-108060594D01*
X155403598Y-108265472D01*
X155399204Y-108296350D01*
X155392249Y-108345216D01*
X155392227Y-108349505D01*
X155392226Y-108349512D01*
X155391108Y-108562938D01*
X155390743Y-108632703D01*
X154508500Y-108632703D01*
X154508500Y-105489455D01*
X161244825Y-105489455D01*
X161245512Y-105496462D01*
X161245512Y-105496465D01*
X161248311Y-105525010D01*
X161261255Y-105657025D01*
X161314402Y-105816791D01*
X161318049Y-105822813D01*
X161318050Y-105822815D01*
X161361109Y-105893913D01*
X161401624Y-105960812D01*
X161406513Y-105965875D01*
X161406514Y-105965876D01*
X161467976Y-106029521D01*
X161518586Y-106081929D01*
X161524483Y-106085788D01*
X161653577Y-106170266D01*
X161653581Y-106170268D01*
X161659475Y-106174125D01*
X161817289Y-106232815D01*
X161824270Y-106233746D01*
X161824272Y-106233747D01*
X161869812Y-106239823D01*
X161984183Y-106255083D01*
X161991194Y-106254445D01*
X161991198Y-106254445D01*
X162144843Y-106240462D01*
X162151864Y-106239823D01*
X162158566Y-106237645D01*
X162158568Y-106237645D01*
X162305298Y-106189970D01*
X162305301Y-106189969D01*
X162311997Y-106187793D01*
X162456623Y-106101578D01*
X162461717Y-106096727D01*
X162461721Y-106096724D01*
X162573454Y-105990322D01*
X162573455Y-105990320D01*
X162578554Y-105985465D01*
X162594934Y-105960812D01*
X162653450Y-105872738D01*
X162671731Y-105845223D01*
X162731521Y-105687823D01*
X162754955Y-105521088D01*
X162755249Y-105500000D01*
X162740770Y-105370911D01*
X162737266Y-105339672D01*
X162737265Y-105339669D01*
X162736481Y-105332676D01*
X162681108Y-105173668D01*
X162591884Y-105030879D01*
X162583723Y-105022661D01*
X162478205Y-104916403D01*
X162478201Y-104916400D01*
X162473242Y-104911406D01*
X162331079Y-104821187D01*
X162172462Y-104764706D01*
X162165474Y-104763873D01*
X162165471Y-104763872D01*
X162072300Y-104752762D01*
X162005273Y-104744769D01*
X161998270Y-104745505D01*
X161998269Y-104745505D01*
X161952712Y-104750293D01*
X161837821Y-104762369D01*
X161831155Y-104764638D01*
X161831152Y-104764639D01*
X161685098Y-104814360D01*
X161685095Y-104814361D01*
X161678431Y-104816630D01*
X161672436Y-104820318D01*
X161672432Y-104820320D01*
X161541021Y-104901165D01*
X161541019Y-104901167D01*
X161535022Y-104904856D01*
X161414724Y-105022661D01*
X161323515Y-105164190D01*
X161265927Y-105322409D01*
X161244825Y-105489455D01*
X154508500Y-105489455D01*
X154508500Y-104210434D01*
X154528502Y-104142313D01*
X154582158Y-104095820D01*
X154652432Y-104085716D01*
X154674167Y-104090841D01*
X154688611Y-104095632D01*
X154688613Y-104095632D01*
X154695139Y-104097797D01*
X154701975Y-104098497D01*
X154701978Y-104098498D01*
X154745031Y-104102909D01*
X154799600Y-104108500D01*
X157800400Y-104108500D01*
X157803646Y-104108163D01*
X157803650Y-104108163D01*
X157899307Y-104098238D01*
X157899311Y-104098237D01*
X157906165Y-104097526D01*
X157912701Y-104095345D01*
X157912703Y-104095345D01*
X158044805Y-104051272D01*
X158073945Y-104041550D01*
X158224348Y-103948478D01*
X158349305Y-103823303D01*
X158442115Y-103672738D01*
X158497797Y-103504861D01*
X158508500Y-103400400D01*
X158508500Y-102299600D01*
X158501590Y-102233002D01*
X158498238Y-102200693D01*
X158498237Y-102200689D01*
X158497526Y-102193835D01*
X158441550Y-102026055D01*
X158348478Y-101875652D01*
X158291344Y-101818617D01*
X158228483Y-101755866D01*
X158223303Y-101750695D01*
X158175173Y-101721027D01*
X158078968Y-101661725D01*
X158078966Y-101661724D01*
X158072738Y-101657885D01*
X157948225Y-101616586D01*
X157911389Y-101604368D01*
X157911387Y-101604368D01*
X157904861Y-101602203D01*
X157898025Y-101601503D01*
X157898022Y-101601502D01*
X157854969Y-101597091D01*
X157800400Y-101591500D01*
X154799600Y-101591500D01*
X154796354Y-101591837D01*
X154796350Y-101591837D01*
X154700693Y-101601762D01*
X154700689Y-101601763D01*
X154693835Y-101602474D01*
X154687299Y-101604655D01*
X154687297Y-101604655D01*
X154674376Y-101608966D01*
X154603426Y-101611550D01*
X154542343Y-101575366D01*
X154510518Y-101511902D01*
X154508500Y-101489442D01*
X154508500Y-97510434D01*
X154528502Y-97442313D01*
X154582158Y-97395820D01*
X154652432Y-97385716D01*
X154674167Y-97390841D01*
X154688611Y-97395632D01*
X154688613Y-97395632D01*
X154695139Y-97397797D01*
X154701975Y-97398497D01*
X154701978Y-97398498D01*
X154735945Y-97401978D01*
X154799600Y-97408500D01*
X157800400Y-97408500D01*
X157803646Y-97408163D01*
X157803650Y-97408163D01*
X157899307Y-97398238D01*
X157899311Y-97398237D01*
X157906165Y-97397526D01*
X157912701Y-97395345D01*
X157912703Y-97395345D01*
X158044805Y-97351272D01*
X158073945Y-97341550D01*
X158224348Y-97248478D01*
X158251327Y-97221452D01*
X158313610Y-97187373D01*
X158384430Y-97192376D01*
G37*
%TD.AperFunction*%
%TA.AperFunction,Conductor*%
G36*
X178183621Y-102453502D02*
G01*
X178230114Y-102507158D01*
X178241500Y-102559500D01*
X178241500Y-105600400D01*
X178241837Y-105603646D01*
X178241837Y-105603650D01*
X178250571Y-105687823D01*
X178252474Y-105706166D01*
X178254655Y-105712702D01*
X178254655Y-105712704D01*
X178291391Y-105822815D01*
X178308450Y-105873946D01*
X178401522Y-106024348D01*
X178406704Y-106029521D01*
X178521609Y-106144226D01*
X178555688Y-106206509D01*
X178550685Y-106277329D01*
X178541713Y-106296393D01*
X178485163Y-106394340D01*
X178470165Y-106420318D01*
X178465473Y-106428444D01*
X178406458Y-106610072D01*
X178405768Y-106616633D01*
X178405768Y-106616635D01*
X178397279Y-106697409D01*
X178386496Y-106800000D01*
X178406458Y-106989928D01*
X178408498Y-106996206D01*
X178426863Y-107052729D01*
X178428890Y-107123697D01*
X178400666Y-107175975D01*
X178359134Y-107222101D01*
X178344137Y-107238757D01*
X178293162Y-107327048D01*
X178253771Y-107395276D01*
X178248650Y-107404145D01*
X178189635Y-107585773D01*
X178188945Y-107592334D01*
X178188945Y-107592336D01*
X178184333Y-107636219D01*
X178172215Y-107751522D01*
X178171491Y-107758406D01*
X178144478Y-107824063D01*
X178086256Y-107864693D01*
X178015311Y-107867396D01*
X177957163Y-107834409D01*
X177878483Y-107755866D01*
X177873303Y-107750695D01*
X177737136Y-107666760D01*
X177728968Y-107661725D01*
X177728966Y-107661724D01*
X177722738Y-107657885D01*
X177562254Y-107604655D01*
X177561389Y-107604368D01*
X177561387Y-107604368D01*
X177554861Y-107602203D01*
X177548025Y-107601503D01*
X177548022Y-107601502D01*
X177504969Y-107597091D01*
X177450400Y-107591500D01*
X176349600Y-107591500D01*
X176346354Y-107591837D01*
X176346350Y-107591837D01*
X176250693Y-107601762D01*
X176250689Y-107601763D01*
X176243835Y-107602474D01*
X176237299Y-107604655D01*
X176237297Y-107604655D01*
X176114394Y-107645659D01*
X176076055Y-107658450D01*
X175925652Y-107751522D01*
X175800695Y-107876697D01*
X175796855Y-107882927D01*
X175796854Y-107882928D01*
X175732303Y-107987649D01*
X175679531Y-108035142D01*
X175609459Y-108046566D01*
X175544335Y-108018292D01*
X175517903Y-107987842D01*
X175448478Y-107875652D01*
X175323303Y-107750695D01*
X175187136Y-107666760D01*
X175178968Y-107661725D01*
X175178966Y-107661724D01*
X175172738Y-107657885D01*
X175012254Y-107604655D01*
X175011389Y-107604368D01*
X175011387Y-107604368D01*
X175004861Y-107602203D01*
X174998025Y-107601503D01*
X174998022Y-107601502D01*
X174954969Y-107597091D01*
X174900400Y-107591500D01*
X173799600Y-107591500D01*
X173796354Y-107591837D01*
X173796350Y-107591837D01*
X173700693Y-107601762D01*
X173700689Y-107601763D01*
X173693835Y-107602474D01*
X173687299Y-107604655D01*
X173687297Y-107604655D01*
X173564394Y-107645659D01*
X173526055Y-107658450D01*
X173375652Y-107751522D01*
X173250695Y-107876697D01*
X173246855Y-107882927D01*
X173246854Y-107882928D01*
X173182188Y-107987836D01*
X173157885Y-108027262D01*
X173102203Y-108195139D01*
X173091500Y-108299600D01*
X173091500Y-111300400D01*
X173091837Y-111303644D01*
X173091837Y-111303652D01*
X173096905Y-111352497D01*
X173084040Y-111422318D01*
X173035469Y-111474100D01*
X172971578Y-111491500D01*
X167028490Y-111491500D01*
X166960369Y-111471498D01*
X166913876Y-111417842D01*
X166903146Y-111352658D01*
X166908172Y-111303601D01*
X166908500Y-111300400D01*
X166908500Y-108299600D01*
X166906799Y-108283207D01*
X166898238Y-108200693D01*
X166898237Y-108200689D01*
X166897526Y-108193835D01*
X166861724Y-108086522D01*
X166843868Y-108033003D01*
X166841550Y-108026055D01*
X166748478Y-107875652D01*
X166623303Y-107750695D01*
X166487136Y-107666760D01*
X166439643Y-107613988D01*
X166428219Y-107543916D01*
X166456493Y-107478792D01*
X166515487Y-107439293D01*
X166553252Y-107433500D01*
X169321233Y-107433500D01*
X169332416Y-107434027D01*
X169339909Y-107435702D01*
X169347835Y-107435453D01*
X169347836Y-107435453D01*
X169407986Y-107433562D01*
X169411945Y-107433500D01*
X169439856Y-107433500D01*
X169443791Y-107433003D01*
X169443856Y-107432995D01*
X169455693Y-107432062D01*
X169487951Y-107431048D01*
X169491970Y-107430922D01*
X169499889Y-107430673D01*
X169519343Y-107425021D01*
X169538700Y-107421013D01*
X169550930Y-107419468D01*
X169550931Y-107419468D01*
X169558797Y-107418474D01*
X169566168Y-107415555D01*
X169566170Y-107415555D01*
X169599912Y-107402196D01*
X169611142Y-107398351D01*
X169645983Y-107388229D01*
X169645984Y-107388229D01*
X169653593Y-107386018D01*
X169660412Y-107381985D01*
X169660417Y-107381983D01*
X169671028Y-107375707D01*
X169688776Y-107367012D01*
X169707617Y-107359552D01*
X169727987Y-107344753D01*
X169743387Y-107333564D01*
X169753307Y-107327048D01*
X169784535Y-107308580D01*
X169784538Y-107308578D01*
X169791362Y-107304542D01*
X169805683Y-107290221D01*
X169820717Y-107277380D01*
X169830694Y-107270131D01*
X169837107Y-107265472D01*
X169865298Y-107231395D01*
X169873288Y-107222616D01*
X170392247Y-106703657D01*
X170400537Y-106696113D01*
X170407018Y-106692000D01*
X170453659Y-106642332D01*
X170456413Y-106639491D01*
X170476134Y-106619770D01*
X170478612Y-106616575D01*
X170486318Y-106607553D01*
X170509032Y-106583365D01*
X170516586Y-106575321D01*
X170524793Y-106560393D01*
X170526346Y-106557568D01*
X170537199Y-106541045D01*
X170544753Y-106531306D01*
X170549613Y-106525041D01*
X170567176Y-106484457D01*
X170572383Y-106473827D01*
X170593695Y-106435060D01*
X170595666Y-106427383D01*
X170595668Y-106427378D01*
X170598732Y-106415442D01*
X170605138Y-106396730D01*
X170607402Y-106391500D01*
X170613181Y-106378145D01*
X170614421Y-106370317D01*
X170614423Y-106370310D01*
X170620099Y-106334476D01*
X170622505Y-106322856D01*
X170631528Y-106287711D01*
X170631528Y-106287710D01*
X170633500Y-106280030D01*
X170633500Y-106272101D01*
X170634493Y-106264240D01*
X170636553Y-106264500D01*
X170653502Y-106206778D01*
X170693197Y-106167755D01*
X170718120Y-106152332D01*
X170724348Y-106148478D01*
X170849305Y-106023303D01*
X170891538Y-105954789D01*
X170938275Y-105878968D01*
X170938276Y-105878966D01*
X170942115Y-105872738D01*
X170997797Y-105704861D01*
X171000054Y-105682838D01*
X171008172Y-105603598D01*
X171008500Y-105600400D01*
X171008500Y-102559500D01*
X171028502Y-102491379D01*
X171082158Y-102444886D01*
X171134500Y-102433500D01*
X178115500Y-102433500D01*
X178183621Y-102453502D01*
G37*
%TD.AperFunction*%
%TA.AperFunction,Conductor*%
G36*
X165117012Y-88313372D02*
G01*
X165123595Y-88319501D01*
X165196352Y-88392258D01*
X165203887Y-88400538D01*
X165208000Y-88407018D01*
X165226750Y-88424625D01*
X165257652Y-88453644D01*
X165260494Y-88456399D01*
X165280230Y-88476135D01*
X165283427Y-88478615D01*
X165292447Y-88486318D01*
X165324679Y-88516586D01*
X165331625Y-88520405D01*
X165331628Y-88520407D01*
X165342434Y-88526348D01*
X165358953Y-88537199D01*
X165374959Y-88549614D01*
X165382228Y-88552759D01*
X165382232Y-88552762D01*
X165415537Y-88567174D01*
X165426187Y-88572391D01*
X165464940Y-88593695D01*
X165472615Y-88595666D01*
X165472616Y-88595666D01*
X165484562Y-88598733D01*
X165503267Y-88605137D01*
X165521855Y-88613181D01*
X165529681Y-88614421D01*
X165537299Y-88616634D01*
X165536524Y-88619303D01*
X165588642Y-88644007D01*
X165612558Y-88672774D01*
X165638361Y-88715381D01*
X165759619Y-88836639D01*
X165906301Y-88925472D01*
X165913548Y-88927743D01*
X165913550Y-88927744D01*
X165957248Y-88941438D01*
X166069938Y-88976753D01*
X166143365Y-88983500D01*
X166146263Y-88983500D01*
X166400665Y-88983499D01*
X166656634Y-88983499D01*
X166659492Y-88983236D01*
X166659501Y-88983236D01*
X166695004Y-88979974D01*
X166730062Y-88976753D01*
X166756493Y-88968470D01*
X166886450Y-88927744D01*
X166886452Y-88927743D01*
X166893699Y-88925472D01*
X167040381Y-88836639D01*
X167135905Y-88741115D01*
X167198217Y-88707089D01*
X167269032Y-88712154D01*
X167314095Y-88741115D01*
X167409619Y-88836639D01*
X167556301Y-88925472D01*
X167563548Y-88927743D01*
X167563550Y-88927744D01*
X167633475Y-88949657D01*
X167684892Y-88980796D01*
X167846353Y-89142258D01*
X167853887Y-89150537D01*
X167858000Y-89157018D01*
X167873323Y-89171407D01*
X167907652Y-89203644D01*
X167910494Y-89206399D01*
X167930230Y-89226135D01*
X167933427Y-89228615D01*
X167942447Y-89236318D01*
X167974679Y-89266586D01*
X167981625Y-89270405D01*
X167981628Y-89270407D01*
X167992434Y-89276348D01*
X168008953Y-89287199D01*
X168024959Y-89299614D01*
X168032228Y-89302759D01*
X168032232Y-89302762D01*
X168065537Y-89317174D01*
X168076187Y-89322391D01*
X168114940Y-89343695D01*
X168122615Y-89345666D01*
X168122616Y-89345666D01*
X168134562Y-89348733D01*
X168153267Y-89355137D01*
X168171855Y-89363181D01*
X168179678Y-89364420D01*
X168179688Y-89364423D01*
X168215524Y-89370099D01*
X168227144Y-89372505D01*
X168262289Y-89381528D01*
X168269970Y-89383500D01*
X168290224Y-89383500D01*
X168309934Y-89385051D01*
X168329943Y-89388220D01*
X168337835Y-89387474D01*
X168373961Y-89384059D01*
X168385819Y-89383500D01*
X169465500Y-89383500D01*
X169533621Y-89403502D01*
X169580114Y-89457158D01*
X169591500Y-89509499D01*
X169591501Y-89637704D01*
X169591501Y-89738978D01*
X169594326Y-89774889D01*
X169596120Y-89781063D01*
X169596121Y-89781070D01*
X169634988Y-89914847D01*
X169634988Y-89985153D01*
X169599542Y-90107158D01*
X169594326Y-90125111D01*
X169593821Y-90131530D01*
X169591693Y-90158562D01*
X169591692Y-90158575D01*
X169591500Y-90161021D01*
X169591501Y-90538978D01*
X169594326Y-90574889D01*
X169638982Y-90728593D01*
X169643016Y-90735414D01*
X169716424Y-90859543D01*
X169716427Y-90859547D01*
X169720458Y-90866363D01*
X169833637Y-90979542D01*
X169840453Y-90983573D01*
X169840457Y-90983576D01*
X169874809Y-91003891D01*
X169971407Y-91061018D01*
X169979017Y-91063229D01*
X170118928Y-91103878D01*
X170118931Y-91103879D01*
X170125111Y-91105674D01*
X170137762Y-91106670D01*
X170158562Y-91108307D01*
X170158575Y-91108308D01*
X170161021Y-91108500D01*
X170186130Y-91108500D01*
X171340500Y-91108499D01*
X171408621Y-91128501D01*
X171455114Y-91182157D01*
X171466500Y-91234499D01*
X171466501Y-91887118D01*
X171466501Y-92413978D01*
X171469326Y-92449889D01*
X171513982Y-92603593D01*
X171518016Y-92610414D01*
X171591424Y-92734543D01*
X171591427Y-92734547D01*
X171595458Y-92741363D01*
X171708637Y-92854542D01*
X171715453Y-92858573D01*
X171715457Y-92858576D01*
X171821784Y-92921456D01*
X171846407Y-92936018D01*
X171854017Y-92938229D01*
X171993928Y-92978878D01*
X171993931Y-92978879D01*
X172000111Y-92980674D01*
X172012762Y-92981670D01*
X172033562Y-92983307D01*
X172033575Y-92983308D01*
X172036021Y-92983500D01*
X172224885Y-92983500D01*
X172413978Y-92983499D01*
X172421766Y-92982886D01*
X172443474Y-92981179D01*
X172443477Y-92981178D01*
X172449889Y-92980674D01*
X172456063Y-92978880D01*
X172456070Y-92978879D01*
X172589847Y-92940012D01*
X172660153Y-92940012D01*
X172793925Y-92978877D01*
X172793927Y-92978877D01*
X172800111Y-92980674D01*
X172812762Y-92981670D01*
X172833562Y-92983307D01*
X172833575Y-92983308D01*
X172836021Y-92983500D01*
X173024885Y-92983500D01*
X173213978Y-92983499D01*
X173221766Y-92982886D01*
X173243474Y-92981179D01*
X173243477Y-92981178D01*
X173249889Y-92980674D01*
X173256063Y-92978880D01*
X173256070Y-92978879D01*
X173389847Y-92940012D01*
X173460153Y-92940012D01*
X173593925Y-92978877D01*
X173593927Y-92978877D01*
X173600111Y-92980674D01*
X173612762Y-92981670D01*
X173633562Y-92983307D01*
X173633575Y-92983308D01*
X173636021Y-92983500D01*
X173824885Y-92983500D01*
X174013978Y-92983499D01*
X174021766Y-92982886D01*
X174043474Y-92981179D01*
X174043477Y-92981178D01*
X174049889Y-92980674D01*
X174056063Y-92978880D01*
X174056070Y-92978879D01*
X174189847Y-92940012D01*
X174260153Y-92940012D01*
X174393925Y-92978877D01*
X174393927Y-92978877D01*
X174400111Y-92980674D01*
X174412762Y-92981670D01*
X174433562Y-92983307D01*
X174433575Y-92983308D01*
X174436021Y-92983500D01*
X174624885Y-92983500D01*
X174813978Y-92983499D01*
X174821766Y-92982886D01*
X174843474Y-92981179D01*
X174843477Y-92981178D01*
X174849889Y-92980674D01*
X174856063Y-92978880D01*
X174856070Y-92978879D01*
X174989847Y-92940012D01*
X175060153Y-92940012D01*
X175193925Y-92978877D01*
X175193927Y-92978877D01*
X175200111Y-92980674D01*
X175212762Y-92981670D01*
X175233562Y-92983307D01*
X175233575Y-92983308D01*
X175236021Y-92983500D01*
X175424885Y-92983500D01*
X175613978Y-92983499D01*
X175621766Y-92982886D01*
X175643474Y-92981179D01*
X175643477Y-92981178D01*
X175649889Y-92980674D01*
X175656063Y-92978880D01*
X175656070Y-92978879D01*
X175789847Y-92940012D01*
X175860153Y-92940012D01*
X175993925Y-92978877D01*
X175993927Y-92978877D01*
X176000111Y-92980674D01*
X176012762Y-92981670D01*
X176033562Y-92983307D01*
X176033575Y-92983308D01*
X176036021Y-92983500D01*
X176224885Y-92983500D01*
X176413978Y-92983499D01*
X176421766Y-92982886D01*
X176443474Y-92981179D01*
X176443477Y-92981178D01*
X176449889Y-92980674D01*
X176456063Y-92978880D01*
X176456070Y-92978879D01*
X176589847Y-92940012D01*
X176660153Y-92940012D01*
X176793925Y-92978877D01*
X176793927Y-92978877D01*
X176800111Y-92980674D01*
X176812762Y-92981670D01*
X176833562Y-92983307D01*
X176833575Y-92983308D01*
X176836021Y-92983500D01*
X177024885Y-92983500D01*
X177213978Y-92983499D01*
X177221766Y-92982886D01*
X177243474Y-92981179D01*
X177243477Y-92981178D01*
X177249889Y-92980674D01*
X177403593Y-92936018D01*
X177428216Y-92921456D01*
X177534543Y-92858576D01*
X177534547Y-92858573D01*
X177541363Y-92854542D01*
X177654542Y-92741363D01*
X177658573Y-92734547D01*
X177658576Y-92734543D01*
X177731984Y-92610414D01*
X177736018Y-92603593D01*
X177738229Y-92595983D01*
X177778878Y-92456072D01*
X177778879Y-92456067D01*
X177780674Y-92449889D01*
X177783035Y-92419892D01*
X177783307Y-92416438D01*
X177783308Y-92416425D01*
X177783500Y-92413979D01*
X177783499Y-91184500D01*
X177803501Y-91116379D01*
X177857157Y-91069886D01*
X177909499Y-91058500D01*
X178294806Y-91058500D01*
X178329959Y-91063503D01*
X178468925Y-91103877D01*
X178468927Y-91103877D01*
X178475111Y-91105674D01*
X178487762Y-91106670D01*
X178508562Y-91108307D01*
X178508575Y-91108308D01*
X178511021Y-91108500D01*
X179199582Y-91108500D01*
X179888978Y-91108499D01*
X179896766Y-91107886D01*
X179918474Y-91106179D01*
X179918477Y-91106178D01*
X179924889Y-91105674D01*
X179931063Y-91103880D01*
X179931070Y-91103879D01*
X180070041Y-91063503D01*
X180105194Y-91058500D01*
X181804340Y-91058500D01*
X181872461Y-91078502D01*
X181893435Y-91095405D01*
X182222483Y-91424453D01*
X182256509Y-91486765D01*
X182251444Y-91557580D01*
X182208897Y-91614416D01*
X182142377Y-91639227D01*
X182093721Y-91633141D01*
X182081285Y-91629016D01*
X182081283Y-91629016D01*
X182074757Y-91626851D01*
X182067920Y-91626151D01*
X182067918Y-91626150D01*
X182026599Y-91621917D01*
X181973732Y-91616500D01*
X181426268Y-91616500D01*
X181423022Y-91616837D01*
X181423018Y-91616837D01*
X181388917Y-91620375D01*
X181323981Y-91627113D01*
X181317440Y-91629295D01*
X181317441Y-91629295D01*
X181168676Y-91678927D01*
X181168674Y-91678928D01*
X181161732Y-91681244D01*
X181016287Y-91771248D01*
X180895448Y-91892298D01*
X180805698Y-92037899D01*
X180751851Y-92200243D01*
X180751151Y-92207080D01*
X180751150Y-92207082D01*
X180746917Y-92248401D01*
X180741500Y-92301268D01*
X180741500Y-92898732D01*
X180741837Y-92901978D01*
X180741837Y-92901982D01*
X180745369Y-92936018D01*
X180752113Y-93001019D01*
X180806244Y-93163268D01*
X180810096Y-93169492D01*
X180810096Y-93169493D01*
X180874889Y-93274197D01*
X180893727Y-93342649D01*
X180872566Y-93410419D01*
X180818125Y-93455990D01*
X180767745Y-93466500D01*
X179478763Y-93466500D01*
X179467579Y-93465973D01*
X179460091Y-93464299D01*
X179452168Y-93464548D01*
X179392033Y-93466438D01*
X179388075Y-93466500D01*
X179360144Y-93466500D01*
X179356229Y-93466995D01*
X179356225Y-93466995D01*
X179356167Y-93467003D01*
X179356138Y-93467006D01*
X179344296Y-93467939D01*
X179300110Y-93469327D01*
X179282744Y-93474372D01*
X179280658Y-93474978D01*
X179261306Y-93478986D01*
X179249068Y-93480532D01*
X179249066Y-93480533D01*
X179241203Y-93481526D01*
X179200086Y-93497806D01*
X179188885Y-93501641D01*
X179146406Y-93513982D01*
X179139587Y-93518015D01*
X179139582Y-93518017D01*
X179128971Y-93524293D01*
X179111221Y-93532990D01*
X179092383Y-93540448D01*
X179085967Y-93545109D01*
X179085966Y-93545110D01*
X179056625Y-93566428D01*
X179046701Y-93572947D01*
X179015460Y-93591422D01*
X179015455Y-93591426D01*
X179008637Y-93595458D01*
X178994313Y-93609782D01*
X178979281Y-93622621D01*
X178962893Y-93634528D01*
X178934712Y-93668593D01*
X178926722Y-93677373D01*
X178607747Y-93996348D01*
X178599461Y-94003888D01*
X178592982Y-94008000D01*
X178587557Y-94013777D01*
X178546357Y-94057651D01*
X178543602Y-94060493D01*
X178523865Y-94080230D01*
X178521385Y-94083427D01*
X178513682Y-94092447D01*
X178483414Y-94124679D01*
X178479595Y-94131625D01*
X178479593Y-94131628D01*
X178473652Y-94142434D01*
X178462801Y-94158953D01*
X178450386Y-94174959D01*
X178447241Y-94182228D01*
X178447238Y-94182232D01*
X178432826Y-94215537D01*
X178427609Y-94226187D01*
X178406305Y-94264940D01*
X178404334Y-94272615D01*
X178404334Y-94272616D01*
X178401267Y-94284562D01*
X178394864Y-94303264D01*
X178387472Y-94320347D01*
X178342063Y-94374922D01*
X178274356Y-94396284D01*
X178254750Y-94394705D01*
X178253831Y-94394438D01*
X178247415Y-94393933D01*
X178218958Y-94391693D01*
X178218950Y-94391693D01*
X178216502Y-94391500D01*
X177783498Y-94391500D01*
X177781050Y-94391693D01*
X177781042Y-94391693D01*
X177752579Y-94393933D01*
X177752574Y-94393934D01*
X177746169Y-94394438D01*
X177646231Y-94423472D01*
X177594012Y-94438643D01*
X177594010Y-94438644D01*
X177586399Y-94440855D01*
X177579572Y-94444892D01*
X177579573Y-94444892D01*
X177450020Y-94521509D01*
X177450017Y-94521511D01*
X177443193Y-94525547D01*
X177325547Y-94643193D01*
X177321511Y-94650017D01*
X177321509Y-94650020D01*
X177311885Y-94666294D01*
X177240855Y-94786399D01*
X177194438Y-94946169D01*
X177193934Y-94952574D01*
X177193933Y-94952579D01*
X177192616Y-94969313D01*
X177191500Y-94983498D01*
X177191500Y-96366502D01*
X177191693Y-96368950D01*
X177191693Y-96368958D01*
X177192943Y-96384834D01*
X177194438Y-96403831D01*
X177240855Y-96563601D01*
X177244890Y-96570423D01*
X177244891Y-96570425D01*
X177266276Y-96606586D01*
X177283735Y-96675402D01*
X177261217Y-96742734D01*
X177205872Y-96787202D01*
X177144980Y-96796068D01*
X177100400Y-96791500D01*
X176299600Y-96791500D01*
X176296354Y-96791837D01*
X176296350Y-96791837D01*
X176200692Y-96801762D01*
X176200688Y-96801763D01*
X176193834Y-96802474D01*
X176187298Y-96804655D01*
X176187296Y-96804655D01*
X176085252Y-96838700D01*
X176026054Y-96858450D01*
X175875652Y-96951522D01*
X175750695Y-97076697D01*
X175746855Y-97082927D01*
X175746854Y-97082928D01*
X175713458Y-97137107D01*
X175657885Y-97227262D01*
X175655581Y-97234209D01*
X175619978Y-97341550D01*
X175602203Y-97395139D01*
X175601503Y-97401975D01*
X175601502Y-97401978D01*
X175600834Y-97408500D01*
X175591500Y-97499600D01*
X175591500Y-98900400D01*
X175602474Y-99006166D01*
X175604655Y-99012702D01*
X175604655Y-99012704D01*
X175624684Y-99072738D01*
X175658450Y-99173946D01*
X175751522Y-99324348D01*
X175756704Y-99329521D01*
X175775694Y-99348478D01*
X175876697Y-99449305D01*
X175882927Y-99453145D01*
X175882928Y-99453146D01*
X176020090Y-99537694D01*
X176027262Y-99542115D01*
X176088800Y-99562526D01*
X176188611Y-99595632D01*
X176188613Y-99595632D01*
X176195139Y-99597797D01*
X176201975Y-99598497D01*
X176201978Y-99598498D01*
X176232695Y-99601645D01*
X176299600Y-99608500D01*
X177100400Y-99608500D01*
X177103646Y-99608163D01*
X177103650Y-99608163D01*
X177199308Y-99598238D01*
X177199312Y-99598237D01*
X177206166Y-99597526D01*
X177212702Y-99595345D01*
X177212704Y-99595345D01*
X177359115Y-99546498D01*
X177373946Y-99541550D01*
X177524348Y-99448478D01*
X177649305Y-99323303D01*
X177671453Y-99287373D01*
X177738275Y-99178968D01*
X177738276Y-99178966D01*
X177742115Y-99172738D01*
X177797797Y-99004861D01*
X177808500Y-98900400D01*
X177808500Y-97499600D01*
X177807660Y-97491500D01*
X177798238Y-97400692D01*
X177798237Y-97400688D01*
X177797526Y-97393834D01*
X177793496Y-97381753D01*
X177743868Y-97233002D01*
X177741550Y-97226054D01*
X177694983Y-97150803D01*
X177676145Y-97082351D01*
X177697306Y-97014582D01*
X177751747Y-96969010D01*
X177802127Y-96958500D01*
X178216502Y-96958500D01*
X178218950Y-96958307D01*
X178218958Y-96958307D01*
X178247421Y-96956067D01*
X178247426Y-96956066D01*
X178253831Y-96955562D01*
X178366872Y-96922721D01*
X178405988Y-96911357D01*
X178405990Y-96911356D01*
X178413601Y-96909145D01*
X178420894Y-96904832D01*
X178435863Y-96895980D01*
X178504679Y-96878522D01*
X178564137Y-96895980D01*
X178579106Y-96904832D01*
X178586399Y-96909145D01*
X178594010Y-96911356D01*
X178594012Y-96911357D01*
X178633128Y-96922721D01*
X178746169Y-96955562D01*
X178752574Y-96956066D01*
X178752579Y-96956067D01*
X178781042Y-96958307D01*
X178781050Y-96958307D01*
X178783498Y-96958500D01*
X178983784Y-96958500D01*
X179051905Y-96978502D01*
X179098398Y-97032158D01*
X179108502Y-97102432D01*
X179107971Y-97105416D01*
X179106458Y-97110072D01*
X179086496Y-97300000D01*
X179087186Y-97306565D01*
X179103009Y-97457108D01*
X179106458Y-97489928D01*
X179165473Y-97671556D01*
X179260960Y-97836944D01*
X179265378Y-97841851D01*
X179265379Y-97841852D01*
X179367476Y-97955242D01*
X179388747Y-97978866D01*
X179543248Y-98091118D01*
X179549276Y-98093802D01*
X179549278Y-98093803D01*
X179711679Y-98166108D01*
X179717712Y-98168794D01*
X179811112Y-98188647D01*
X179898056Y-98207128D01*
X179898061Y-98207128D01*
X179904513Y-98208500D01*
X180095487Y-98208500D01*
X180101939Y-98207128D01*
X180101944Y-98207128D01*
X180188888Y-98188647D01*
X180282288Y-98168794D01*
X180288321Y-98166108D01*
X180450722Y-98093803D01*
X180450724Y-98093802D01*
X180456752Y-98091118D01*
X180611253Y-97978866D01*
X180632524Y-97955242D01*
X180734621Y-97841852D01*
X180734622Y-97841851D01*
X180739040Y-97836944D01*
X180834527Y-97671556D01*
X180893542Y-97489928D01*
X180896992Y-97457108D01*
X180912814Y-97306565D01*
X180913504Y-97300000D01*
X180905077Y-97219824D01*
X180894232Y-97116635D01*
X180894232Y-97116633D01*
X180893542Y-97110072D01*
X180834527Y-96928444D01*
X180821241Y-96905431D01*
X180782713Y-96838700D01*
X180739040Y-96763056D01*
X180734616Y-96758143D01*
X180733363Y-96756418D01*
X180709505Y-96689550D01*
X180726845Y-96618217D01*
X180734018Y-96606088D01*
X180759145Y-96563601D01*
X180805562Y-96403831D01*
X180807058Y-96384834D01*
X180808307Y-96368958D01*
X180808307Y-96368950D01*
X180808500Y-96366502D01*
X180808500Y-94983498D01*
X180807384Y-94969313D01*
X180806067Y-94952579D01*
X180806066Y-94952574D01*
X180805562Y-94946169D01*
X180803768Y-94939992D01*
X180795504Y-94911550D01*
X180790595Y-94894652D01*
X180790798Y-94823657D01*
X180829351Y-94764041D01*
X180894016Y-94734732D01*
X180911592Y-94733500D01*
X181088408Y-94733500D01*
X181156529Y-94753502D01*
X181203022Y-94807158D01*
X181213126Y-94877432D01*
X181209406Y-94894648D01*
X181204496Y-94911550D01*
X181196233Y-94939992D01*
X181194438Y-94946169D01*
X181193934Y-94952574D01*
X181193933Y-94952579D01*
X181192616Y-94969313D01*
X181191500Y-94983498D01*
X181191500Y-96366502D01*
X181191693Y-96368950D01*
X181191693Y-96368958D01*
X181192943Y-96384834D01*
X181194438Y-96403831D01*
X181240855Y-96563601D01*
X181244890Y-96570423D01*
X181244892Y-96570427D01*
X181321509Y-96699980D01*
X181321511Y-96699983D01*
X181325547Y-96706807D01*
X181332451Y-96713711D01*
X181333142Y-96714976D01*
X181336011Y-96718675D01*
X181335414Y-96719138D01*
X181366477Y-96776023D01*
X181367486Y-96784191D01*
X181367837Y-96784135D01*
X181369078Y-96791969D01*
X181369327Y-96799889D01*
X181373050Y-96812703D01*
X181374978Y-96819339D01*
X181378987Y-96838700D01*
X181381526Y-96858797D01*
X181384445Y-96866168D01*
X181384445Y-96866170D01*
X181397804Y-96899912D01*
X181401649Y-96911142D01*
X181411771Y-96945983D01*
X181413982Y-96953593D01*
X181418015Y-96960412D01*
X181418017Y-96960417D01*
X181424293Y-96971028D01*
X181432988Y-96988776D01*
X181440448Y-97007617D01*
X181445110Y-97014033D01*
X181445110Y-97014034D01*
X181466436Y-97043387D01*
X181472952Y-97053307D01*
X181490129Y-97082351D01*
X181495458Y-97091362D01*
X181509779Y-97105683D01*
X181522619Y-97120716D01*
X181534528Y-97137107D01*
X181540634Y-97142158D01*
X181568605Y-97165298D01*
X181577384Y-97173288D01*
X181652878Y-97248782D01*
X181686904Y-97311094D01*
X181689092Y-97324703D01*
X181695505Y-97385716D01*
X181703009Y-97457108D01*
X181706458Y-97489928D01*
X181765473Y-97671556D01*
X181860960Y-97836944D01*
X181865378Y-97841851D01*
X181865379Y-97841852D01*
X181967476Y-97955242D01*
X181988747Y-97978866D01*
X182143248Y-98091118D01*
X182149276Y-98093802D01*
X182149278Y-98093803D01*
X182311679Y-98166108D01*
X182317712Y-98168794D01*
X182411112Y-98188647D01*
X182498056Y-98207128D01*
X182498061Y-98207128D01*
X182504513Y-98208500D01*
X182695487Y-98208500D01*
X182701939Y-98207128D01*
X182701944Y-98207128D01*
X182788888Y-98188647D01*
X182882288Y-98168794D01*
X182888315Y-98166111D01*
X182888323Y-98166108D01*
X183014252Y-98110041D01*
X183084619Y-98100607D01*
X183148916Y-98130714D01*
X183186729Y-98190803D01*
X183191500Y-98225148D01*
X183191500Y-98900400D01*
X183202474Y-99006166D01*
X183204655Y-99012702D01*
X183204655Y-99012704D01*
X183224684Y-99072738D01*
X183258450Y-99173946D01*
X183351522Y-99324348D01*
X183356704Y-99329521D01*
X183375694Y-99348478D01*
X183476697Y-99449305D01*
X183482927Y-99453145D01*
X183482928Y-99453146D01*
X183620090Y-99537694D01*
X183627262Y-99542115D01*
X183688800Y-99562526D01*
X183788611Y-99595632D01*
X183788613Y-99595632D01*
X183795139Y-99597797D01*
X183801975Y-99598497D01*
X183801978Y-99598498D01*
X183832695Y-99601645D01*
X183899600Y-99608500D01*
X184700400Y-99608500D01*
X184703646Y-99608163D01*
X184703650Y-99608163D01*
X184799308Y-99598238D01*
X184799312Y-99598237D01*
X184806166Y-99597526D01*
X184812702Y-99595345D01*
X184812704Y-99595345D01*
X184959115Y-99546498D01*
X184973946Y-99541550D01*
X185124348Y-99448478D01*
X185249305Y-99323303D01*
X185271453Y-99287373D01*
X185338275Y-99178968D01*
X185338276Y-99178966D01*
X185342115Y-99172738D01*
X185397797Y-99004861D01*
X185408500Y-98900400D01*
X185408500Y-97860667D01*
X185428502Y-97792546D01*
X185482158Y-97746053D01*
X185552432Y-97735949D01*
X185565549Y-97738568D01*
X185572509Y-97741282D01*
X185635859Y-97749622D01*
X185642350Y-97750649D01*
X185660264Y-97753970D01*
X185726317Y-97788686D01*
X185792298Y-97854552D01*
X185798528Y-97858392D01*
X185798529Y-97858393D01*
X185919282Y-97932826D01*
X185937899Y-97944302D01*
X186100243Y-97998149D01*
X186107080Y-97998849D01*
X186107082Y-97998850D01*
X186148401Y-98003083D01*
X186201268Y-98008500D01*
X186798732Y-98008500D01*
X186801973Y-98008164D01*
X186801987Y-98008163D01*
X186818918Y-98006406D01*
X186888739Y-98019271D01*
X186940520Y-98067843D01*
X186957822Y-98136699D01*
X186951753Y-98170669D01*
X186906458Y-98310072D01*
X186886496Y-98500000D01*
X186887186Y-98506565D01*
X186897016Y-98600088D01*
X186906458Y-98689928D01*
X186965473Y-98871556D01*
X186968776Y-98877278D01*
X186968777Y-98877279D01*
X186984702Y-98904861D01*
X187060960Y-99036944D01*
X187065378Y-99041851D01*
X187065379Y-99041852D01*
X187147899Y-99133500D01*
X187188747Y-99178866D01*
X187343248Y-99291118D01*
X187349276Y-99293802D01*
X187349278Y-99293803D01*
X187424786Y-99327421D01*
X187478882Y-99373401D01*
X187499531Y-99441328D01*
X187480179Y-99509637D01*
X187426968Y-99556638D01*
X187377496Y-99568466D01*
X187358030Y-99569078D01*
X187350110Y-99569327D01*
X187332454Y-99574456D01*
X187330658Y-99574978D01*
X187311306Y-99578986D01*
X187304235Y-99579880D01*
X187291203Y-99581526D01*
X187283834Y-99584443D01*
X187283832Y-99584444D01*
X187250097Y-99597800D01*
X187238869Y-99601645D01*
X187196407Y-99613982D01*
X187189584Y-99618017D01*
X187189582Y-99618018D01*
X187178972Y-99624293D01*
X187161224Y-99632988D01*
X187142383Y-99640448D01*
X187135967Y-99645110D01*
X187135966Y-99645110D01*
X187106613Y-99666436D01*
X187096693Y-99672952D01*
X187065465Y-99691420D01*
X187065462Y-99691422D01*
X187058638Y-99695458D01*
X187044317Y-99709779D01*
X187029284Y-99722619D01*
X187012893Y-99734528D01*
X187001884Y-99747836D01*
X186984712Y-99768593D01*
X186976722Y-99777374D01*
X186774499Y-99979596D01*
X186712187Y-100013621D01*
X186685404Y-100016500D01*
X165814595Y-100016500D01*
X165746474Y-99996498D01*
X165725499Y-99979595D01*
X165678907Y-99933002D01*
X165610488Y-99864583D01*
X165591131Y-99839628D01*
X165583578Y-99826856D01*
X165583574Y-99826851D01*
X165579542Y-99820033D01*
X165570405Y-99810896D01*
X165536379Y-99748584D01*
X165533500Y-99721801D01*
X165533500Y-98878767D01*
X165534027Y-98867584D01*
X165535702Y-98860091D01*
X165533725Y-98797183D01*
X165533562Y-98792014D01*
X165533500Y-98788055D01*
X165533500Y-98760144D01*
X165532995Y-98756144D01*
X165532062Y-98744301D01*
X165530922Y-98708030D01*
X165530673Y-98700111D01*
X165525021Y-98680657D01*
X165521013Y-98661300D01*
X165519468Y-98649070D01*
X165519468Y-98649069D01*
X165518474Y-98641203D01*
X165515555Y-98633830D01*
X165502196Y-98600088D01*
X165498351Y-98588858D01*
X165488229Y-98554017D01*
X165488229Y-98554016D01*
X165486018Y-98546407D01*
X165481985Y-98539588D01*
X165481983Y-98539583D01*
X165475707Y-98528972D01*
X165467012Y-98511224D01*
X165459552Y-98492383D01*
X165433564Y-98456613D01*
X165427048Y-98446693D01*
X165408578Y-98415463D01*
X165404542Y-98408638D01*
X165398936Y-98403031D01*
X165390220Y-98394315D01*
X165377379Y-98379281D01*
X165370131Y-98369305D01*
X165370130Y-98369304D01*
X165365472Y-98362893D01*
X165331407Y-98334712D01*
X165322626Y-98326722D01*
X165103647Y-98107742D01*
X165096113Y-98099463D01*
X165092000Y-98092982D01*
X165042347Y-98046355D01*
X165039506Y-98043601D01*
X165019770Y-98023865D01*
X165016573Y-98021385D01*
X165007551Y-98013680D01*
X164981100Y-97988841D01*
X164975321Y-97983414D01*
X164968375Y-97979595D01*
X164968372Y-97979593D01*
X164957566Y-97973652D01*
X164941047Y-97962801D01*
X164940583Y-97962441D01*
X164925041Y-97950386D01*
X164917772Y-97947241D01*
X164917768Y-97947238D01*
X164884463Y-97932826D01*
X164873813Y-97927609D01*
X164835060Y-97906305D01*
X164815437Y-97901267D01*
X164796734Y-97894863D01*
X164785420Y-97889967D01*
X164785419Y-97889967D01*
X164778145Y-97886819D01*
X164770322Y-97885580D01*
X164770312Y-97885577D01*
X164734476Y-97879901D01*
X164722856Y-97877495D01*
X164687711Y-97868472D01*
X164687710Y-97868472D01*
X164680030Y-97866500D01*
X164659776Y-97866500D01*
X164640065Y-97864949D01*
X164627886Y-97863020D01*
X164620057Y-97861780D01*
X164612165Y-97862526D01*
X164576039Y-97865941D01*
X164564181Y-97866500D01*
X164274899Y-97866500D01*
X164212350Y-97848134D01*
X166736198Y-97848134D01*
X166742953Y-97910316D01*
X166794083Y-98046705D01*
X166881437Y-98163261D01*
X166997993Y-98250615D01*
X167134382Y-98301745D01*
X167196564Y-98308500D01*
X168892832Y-98308500D01*
X168955014Y-98301745D01*
X169091403Y-98250615D01*
X169207959Y-98163261D01*
X169295313Y-98046705D01*
X169346443Y-97910316D01*
X169353198Y-97848134D01*
X169353198Y-96151866D01*
X169346443Y-96089684D01*
X169295313Y-95953295D01*
X169207959Y-95836739D01*
X169091403Y-95749385D01*
X168955014Y-95698255D01*
X168892832Y-95691500D01*
X167196564Y-95691500D01*
X167134382Y-95698255D01*
X166997993Y-95749385D01*
X166881437Y-95836739D01*
X166794083Y-95953295D01*
X166742953Y-96089684D01*
X166736198Y-96151866D01*
X166736198Y-97848134D01*
X164212350Y-97848134D01*
X164206778Y-97846498D01*
X164167755Y-97806803D01*
X164152332Y-97781880D01*
X164148478Y-97775652D01*
X164023303Y-97650695D01*
X163991686Y-97631206D01*
X163878968Y-97561725D01*
X163878966Y-97561724D01*
X163872738Y-97557885D01*
X163729677Y-97510434D01*
X163711389Y-97504368D01*
X163711387Y-97504368D01*
X163704861Y-97502203D01*
X163698025Y-97501503D01*
X163698022Y-97501502D01*
X163648243Y-97496402D01*
X163600400Y-97491500D01*
X160499600Y-97491500D01*
X160496354Y-97491837D01*
X160496350Y-97491837D01*
X160421533Y-97499600D01*
X160393834Y-97502474D01*
X160387301Y-97504654D01*
X160386095Y-97504914D01*
X160315288Y-97499741D01*
X160258517Y-97457108D01*
X160233807Y-97390550D01*
X160233500Y-97381753D01*
X160233500Y-91086869D01*
X160253502Y-91018748D01*
X160307158Y-90972255D01*
X160377432Y-90962151D01*
X160442012Y-90991645D01*
X160460326Y-91011304D01*
X160531053Y-91105674D01*
X160536739Y-91113261D01*
X160653295Y-91200615D01*
X160789684Y-91251745D01*
X160851866Y-91258500D01*
X164448134Y-91258500D01*
X164510316Y-91251745D01*
X164646705Y-91200615D01*
X164763261Y-91113261D01*
X164850615Y-90996705D01*
X164901745Y-90860316D01*
X164908500Y-90798134D01*
X164908500Y-88408596D01*
X164928502Y-88340475D01*
X164982158Y-88293982D01*
X165052432Y-88283878D01*
X165117012Y-88313372D01*
G37*
%TD.AperFunction*%
%TA.AperFunction,Conductor*%
G36*
X169229344Y-72528502D02*
G01*
X169275837Y-72582158D01*
X169285941Y-72652432D01*
X169273532Y-72689537D01*
X169273963Y-72689722D01*
X169271718Y-72694961D01*
X169271637Y-72695202D01*
X169271534Y-72695389D01*
X169271532Y-72695394D01*
X169268567Y-72700787D01*
X169266706Y-72706654D01*
X169266705Y-72706656D01*
X169213883Y-72873172D01*
X169208765Y-72889306D01*
X169186719Y-73085851D01*
X169187235Y-73091995D01*
X169197140Y-73209957D01*
X169182908Y-73279513D01*
X169133331Y-73330332D01*
X169071582Y-73346500D01*
X167817329Y-73346500D01*
X167749208Y-73326498D01*
X167725668Y-73304593D01*
X167724992Y-73305269D01*
X167718642Y-73298919D01*
X167713261Y-73291739D01*
X167596705Y-73204385D01*
X167460316Y-73153255D01*
X167398134Y-73146500D01*
X166901866Y-73146500D01*
X166839684Y-73153255D01*
X166703295Y-73204385D01*
X166586739Y-73291739D01*
X166499385Y-73408295D01*
X166448255Y-73544684D01*
X166441500Y-73606866D01*
X166441500Y-74046238D01*
X166441498Y-74046898D01*
X166441026Y-74137031D01*
X166441390Y-74138548D01*
X166441500Y-74140450D01*
X166441500Y-74503134D01*
X166448255Y-74565316D01*
X166499385Y-74701705D01*
X166586739Y-74818261D01*
X166703295Y-74905615D01*
X166839684Y-74956745D01*
X166901866Y-74963500D01*
X167398134Y-74963500D01*
X167460316Y-74956745D01*
X167596705Y-74905615D01*
X167713261Y-74818261D01*
X167718642Y-74811081D01*
X167724992Y-74804731D01*
X167726627Y-74806366D01*
X167773359Y-74771421D01*
X167817329Y-74763500D01*
X169509339Y-74763500D01*
X169577460Y-74783502D01*
X169598435Y-74800405D01*
X169654596Y-74856567D01*
X169688621Y-74918880D01*
X169691500Y-74945662D01*
X169691500Y-75960500D01*
X169671498Y-76028621D01*
X169617842Y-76075114D01*
X169565500Y-76086500D01*
X169539673Y-76086500D01*
X169473558Y-76067760D01*
X169462101Y-76060698D01*
X169448390Y-76056150D01*
X169306284Y-76009016D01*
X169306285Y-76009016D01*
X169299757Y-76006851D01*
X169292920Y-76006151D01*
X169292918Y-76006150D01*
X169251599Y-76001917D01*
X169198732Y-75996500D01*
X168601268Y-75996500D01*
X168598022Y-75996837D01*
X168598018Y-75996837D01*
X168567535Y-76000000D01*
X168498981Y-76007113D01*
X168492440Y-76009295D01*
X168492441Y-76009295D01*
X168343676Y-76058927D01*
X168343674Y-76058928D01*
X168336732Y-76061244D01*
X168326389Y-76067645D01*
X168260087Y-76086500D01*
X168015823Y-76086500D01*
X167974839Y-76091636D01*
X167892998Y-76101893D01*
X167892994Y-76101894D01*
X167889106Y-76102381D01*
X167865493Y-76108394D01*
X167832650Y-76116757D01*
X167832645Y-76116758D01*
X167828842Y-76117727D01*
X167825190Y-76119160D01*
X167825185Y-76119162D01*
X167717818Y-76161303D01*
X167717816Y-76161304D01*
X167709959Y-76164388D01*
X167691615Y-76178089D01*
X167625068Y-76202826D01*
X167571988Y-76195119D01*
X167550963Y-76187237D01*
X167460316Y-76153255D01*
X167398134Y-76146500D01*
X166901866Y-76146500D01*
X166839684Y-76153255D01*
X166832288Y-76156027D01*
X166832282Y-76156029D01*
X166719229Y-76198411D01*
X166648422Y-76203594D01*
X166630771Y-76198411D01*
X166517718Y-76156029D01*
X166517712Y-76156027D01*
X166510316Y-76153255D01*
X166448134Y-76146500D01*
X165951866Y-76146500D01*
X165889684Y-76153255D01*
X165882288Y-76156027D01*
X165882282Y-76156029D01*
X165769229Y-76198411D01*
X165698422Y-76203594D01*
X165680771Y-76198411D01*
X165567718Y-76156029D01*
X165567712Y-76156027D01*
X165560316Y-76153255D01*
X165498134Y-76146500D01*
X165001866Y-76146500D01*
X164939684Y-76153255D01*
X164803295Y-76204385D01*
X164775000Y-76225591D01*
X164713976Y-76271326D01*
X164647470Y-76296174D01*
X164638411Y-76296500D01*
X164356049Y-76296500D01*
X164287928Y-76276498D01*
X164267032Y-76259674D01*
X164212883Y-76205620D01*
X164207702Y-76200448D01*
X164192566Y-76191118D01*
X164068331Y-76114538D01*
X164068329Y-76114537D01*
X164062101Y-76110698D01*
X163899757Y-76056851D01*
X163892920Y-76056151D01*
X163892918Y-76056150D01*
X163851599Y-76051917D01*
X163798732Y-76046500D01*
X163201268Y-76046500D01*
X163198022Y-76046837D01*
X163198018Y-76046837D01*
X163163917Y-76050375D01*
X163098981Y-76057113D01*
X163092440Y-76059295D01*
X163092441Y-76059295D01*
X162943676Y-76108927D01*
X162943674Y-76108928D01*
X162936732Y-76111244D01*
X162930508Y-76115096D01*
X162930507Y-76115096D01*
X162870221Y-76152402D01*
X162791287Y-76201248D01*
X162670448Y-76322298D01*
X162668856Y-76320709D01*
X162619868Y-76355446D01*
X162548945Y-76358683D01*
X162527652Y-76351403D01*
X162482288Y-76331206D01*
X162432904Y-76320709D01*
X162301944Y-76292872D01*
X162301939Y-76292872D01*
X162295487Y-76291500D01*
X162104513Y-76291500D01*
X162098061Y-76292872D01*
X162098056Y-76292872D01*
X162011113Y-76311353D01*
X161917712Y-76331206D01*
X161911682Y-76333891D01*
X161911681Y-76333891D01*
X161876881Y-76349385D01*
X161751248Y-76405320D01*
X161680882Y-76414754D01*
X161648753Y-76405320D01*
X161523119Y-76349385D01*
X161488319Y-76333891D01*
X161488318Y-76333891D01*
X161482288Y-76331206D01*
X161388887Y-76311353D01*
X161301944Y-76292872D01*
X161301939Y-76292872D01*
X161295487Y-76291500D01*
X161104513Y-76291500D01*
X161098061Y-76292872D01*
X161098056Y-76292872D01*
X161011113Y-76311353D01*
X160917712Y-76331206D01*
X160911682Y-76333891D01*
X160911681Y-76333891D01*
X160749278Y-76406197D01*
X160749276Y-76406198D01*
X160743248Y-76408882D01*
X160737907Y-76412762D01*
X160737906Y-76412763D01*
X160695024Y-76443919D01*
X160588747Y-76521134D01*
X160584326Y-76526044D01*
X160584325Y-76526045D01*
X160475230Y-76647208D01*
X160460960Y-76663056D01*
X160365473Y-76828444D01*
X160306458Y-77010072D01*
X160305768Y-77016633D01*
X160305768Y-77016635D01*
X160288075Y-77184978D01*
X160286496Y-77200000D01*
X160287186Y-77206565D01*
X160302828Y-77355386D01*
X160306458Y-77389928D01*
X160365473Y-77571556D01*
X160368776Y-77577278D01*
X160368777Y-77577279D01*
X160377856Y-77593004D01*
X160460960Y-77736944D01*
X160534137Y-77818215D01*
X160564853Y-77882221D01*
X160566500Y-77902524D01*
X160566500Y-78885405D01*
X160546498Y-78953526D01*
X160529595Y-78974500D01*
X158958237Y-80545858D01*
X158895925Y-80579884D01*
X158825110Y-80574819D01*
X158768274Y-80532272D01*
X158754947Y-80510013D01*
X158702912Y-80398423D01*
X158702910Y-80398420D01*
X158700589Y-80393442D01*
X158579301Y-80220224D01*
X158429776Y-80070699D01*
X158256558Y-79949411D01*
X158251580Y-79947090D01*
X158251577Y-79947088D01*
X158069892Y-79862367D01*
X158069891Y-79862366D01*
X158064910Y-79860044D01*
X158059602Y-79858622D01*
X158059600Y-79858621D01*
X157865970Y-79806738D01*
X157865968Y-79806738D01*
X157860655Y-79805314D01*
X157650000Y-79786884D01*
X157439345Y-79805314D01*
X157434032Y-79806738D01*
X157434030Y-79806738D01*
X157240400Y-79858621D01*
X157240398Y-79858622D01*
X157235090Y-79860044D01*
X157230109Y-79862366D01*
X157230108Y-79862367D01*
X157048423Y-79947088D01*
X157048420Y-79947090D01*
X157043442Y-79949411D01*
X156870224Y-80070699D01*
X156720699Y-80220224D01*
X156599411Y-80393442D01*
X156597090Y-80398420D01*
X156597088Y-80398423D01*
X156512367Y-80580108D01*
X156510044Y-80585090D01*
X156508622Y-80590398D01*
X156508621Y-80590400D01*
X156473591Y-80721134D01*
X156455314Y-80789345D01*
X156436884Y-81000000D01*
X156455314Y-81210655D01*
X156510044Y-81414910D01*
X156512366Y-81419891D01*
X156512367Y-81419892D01*
X156594584Y-81596206D01*
X156599411Y-81606558D01*
X156720699Y-81779776D01*
X156870224Y-81929301D01*
X157043442Y-82050589D01*
X157048420Y-82052910D01*
X157048423Y-82052912D01*
X157228077Y-82136686D01*
X157235090Y-82139956D01*
X157240398Y-82141378D01*
X157240400Y-82141379D01*
X157434030Y-82193262D01*
X157434032Y-82193262D01*
X157439345Y-82194686D01*
X157650000Y-82213116D01*
X157860655Y-82194686D01*
X157865968Y-82193262D01*
X157865970Y-82193262D01*
X158059600Y-82141379D01*
X158059602Y-82141378D01*
X158064910Y-82139956D01*
X158071923Y-82136686D01*
X158251577Y-82052912D01*
X158251580Y-82052910D01*
X158256558Y-82050589D01*
X158268230Y-82042416D01*
X158335502Y-82019728D01*
X158404363Y-82037012D01*
X158452947Y-82088782D01*
X158466500Y-82145629D01*
X158466500Y-90854371D01*
X158446498Y-90922492D01*
X158392842Y-90968985D01*
X158322568Y-90979089D01*
X158268230Y-90957584D01*
X158256558Y-90949411D01*
X158251580Y-90947090D01*
X158251577Y-90947088D01*
X158069892Y-90862367D01*
X158069891Y-90862366D01*
X158064910Y-90860044D01*
X158059602Y-90858622D01*
X158059600Y-90858621D01*
X157865970Y-90806738D01*
X157865968Y-90806738D01*
X157860655Y-90805314D01*
X157650000Y-90786884D01*
X157439345Y-90805314D01*
X157434032Y-90806738D01*
X157434030Y-90806738D01*
X157240400Y-90858621D01*
X157240398Y-90858622D01*
X157235090Y-90860044D01*
X157230109Y-90862366D01*
X157230108Y-90862367D01*
X157048423Y-90947088D01*
X157048420Y-90947090D01*
X157043442Y-90949411D01*
X156870224Y-91070699D01*
X156720699Y-91220224D01*
X156599411Y-91393442D01*
X156510044Y-91585090D01*
X156508622Y-91590398D01*
X156508621Y-91590400D01*
X156456738Y-91784030D01*
X156455314Y-91789345D01*
X156436884Y-92000000D01*
X156455314Y-92210655D01*
X156510044Y-92414910D01*
X156512366Y-92419891D01*
X156512367Y-92419892D01*
X156594480Y-92595983D01*
X156599411Y-92606558D01*
X156720699Y-92779776D01*
X156870224Y-92929301D01*
X157043442Y-93050589D01*
X157048420Y-93052910D01*
X157048423Y-93052912D01*
X157125347Y-93088782D01*
X157235090Y-93139956D01*
X157240398Y-93141378D01*
X157240400Y-93141379D01*
X157434030Y-93193262D01*
X157434032Y-93193262D01*
X157439345Y-93194686D01*
X157650000Y-93213116D01*
X157860655Y-93194686D01*
X157865968Y-93193262D01*
X157865970Y-93193262D01*
X158059600Y-93141379D01*
X158059602Y-93141378D01*
X158064910Y-93139956D01*
X158174653Y-93088782D01*
X158251577Y-93052912D01*
X158251580Y-93052910D01*
X158256558Y-93050589D01*
X158268230Y-93042416D01*
X158335502Y-93019728D01*
X158404363Y-93037012D01*
X158452947Y-93088782D01*
X158466500Y-93145629D01*
X158466500Y-94989652D01*
X158446498Y-95057773D01*
X158392842Y-95104266D01*
X158322568Y-95114370D01*
X158257988Y-95084876D01*
X158251482Y-95078825D01*
X158228483Y-95055866D01*
X158223303Y-95050695D01*
X158215703Y-95046010D01*
X158078968Y-94961725D01*
X158078966Y-94961724D01*
X158072738Y-94957885D01*
X157992995Y-94931436D01*
X157911389Y-94904368D01*
X157911387Y-94904368D01*
X157904861Y-94902203D01*
X157898025Y-94901503D01*
X157898022Y-94901502D01*
X157854969Y-94897091D01*
X157800400Y-94891500D01*
X154799600Y-94891500D01*
X154796354Y-94891837D01*
X154796350Y-94891837D01*
X154700693Y-94901762D01*
X154700689Y-94901763D01*
X154693835Y-94902474D01*
X154687299Y-94904655D01*
X154687297Y-94904655D01*
X154674376Y-94908966D01*
X154603426Y-94911550D01*
X154542343Y-94875366D01*
X154510518Y-94811902D01*
X154508500Y-94789442D01*
X154508500Y-75632703D01*
X155390743Y-75632703D01*
X155428268Y-75917734D01*
X155504129Y-76195036D01*
X155508989Y-76206430D01*
X155607225Y-76436739D01*
X155616923Y-76459476D01*
X155668772Y-76546109D01*
X155754700Y-76689684D01*
X155764561Y-76706161D01*
X155944313Y-76930528D01*
X156026056Y-77008099D01*
X156124199Y-77101233D01*
X156152851Y-77128423D01*
X156252461Y-77200000D01*
X156367618Y-77282749D01*
X156386317Y-77296186D01*
X156390112Y-77298195D01*
X156390113Y-77298196D01*
X156411149Y-77309334D01*
X156640392Y-77430712D01*
X156661802Y-77438547D01*
X156900451Y-77525880D01*
X156910373Y-77529511D01*
X157191264Y-77590755D01*
X157219841Y-77593004D01*
X157414282Y-77608307D01*
X157414291Y-77608307D01*
X157416739Y-77608500D01*
X157572271Y-77608500D01*
X157574407Y-77608354D01*
X157574418Y-77608354D01*
X157782548Y-77594165D01*
X157782554Y-77594164D01*
X157786825Y-77593873D01*
X157791020Y-77593004D01*
X157791022Y-77593004D01*
X158021415Y-77545292D01*
X158068342Y-77535574D01*
X158339343Y-77439607D01*
X158448310Y-77383365D01*
X158591005Y-77309715D01*
X158591006Y-77309715D01*
X158594812Y-77307750D01*
X158598313Y-77305289D01*
X158598317Y-77305287D01*
X158825165Y-77145855D01*
X158830023Y-77142441D01*
X158995939Y-76988262D01*
X159037479Y-76949661D01*
X159037481Y-76949658D01*
X159040622Y-76946740D01*
X159222713Y-76724268D01*
X159372927Y-76479142D01*
X159461882Y-76276498D01*
X159486757Y-76219830D01*
X159488483Y-76215898D01*
X159492661Y-76201233D01*
X159541830Y-76028621D01*
X159567244Y-75939406D01*
X159607751Y-75654784D01*
X159607845Y-75636951D01*
X159609235Y-75371583D01*
X159609235Y-75371576D01*
X159609257Y-75367297D01*
X159571732Y-75082266D01*
X159495871Y-74804964D01*
X159462841Y-74727526D01*
X159384763Y-74544476D01*
X159384761Y-74544472D01*
X159383077Y-74540524D01*
X159360700Y-74503134D01*
X164541500Y-74503134D01*
X164548255Y-74565316D01*
X164599385Y-74701705D01*
X164686739Y-74818261D01*
X164803295Y-74905615D01*
X164939684Y-74956745D01*
X165001866Y-74963500D01*
X165498134Y-74963500D01*
X165560316Y-74956745D01*
X165696705Y-74905615D01*
X165813261Y-74818261D01*
X165900615Y-74701705D01*
X165951745Y-74565316D01*
X165958500Y-74503134D01*
X165958500Y-73606866D01*
X165951745Y-73544684D01*
X165900615Y-73408295D01*
X165813261Y-73291739D01*
X165696705Y-73204385D01*
X165560316Y-73153255D01*
X165498134Y-73146500D01*
X165001866Y-73146500D01*
X164939684Y-73153255D01*
X164803295Y-73204385D01*
X164686739Y-73291739D01*
X164599385Y-73408295D01*
X164548255Y-73544684D01*
X164541500Y-73606866D01*
X164541500Y-74503134D01*
X159360700Y-74503134D01*
X159246010Y-74311502D01*
X159237643Y-74297521D01*
X159237640Y-74297517D01*
X159235439Y-74293839D01*
X159055687Y-74069472D01*
X158912402Y-73933500D01*
X158850258Y-73874527D01*
X158850255Y-73874525D01*
X158847149Y-73871577D01*
X158613683Y-73703814D01*
X158591843Y-73692250D01*
X158568654Y-73679972D01*
X158359608Y-73569288D01*
X158089627Y-73470489D01*
X157808736Y-73409245D01*
X157777685Y-73406801D01*
X157585718Y-73391693D01*
X157585709Y-73391693D01*
X157583261Y-73391500D01*
X157427729Y-73391500D01*
X157425593Y-73391646D01*
X157425582Y-73391646D01*
X157217452Y-73405835D01*
X157217446Y-73405836D01*
X157213175Y-73406127D01*
X157208980Y-73406996D01*
X157208978Y-73406996D01*
X157162433Y-73416635D01*
X156931658Y-73464426D01*
X156660657Y-73560393D01*
X156405188Y-73692250D01*
X156401687Y-73694711D01*
X156401683Y-73694713D01*
X156391594Y-73701804D01*
X156169977Y-73857559D01*
X156154892Y-73871577D01*
X155966935Y-74046238D01*
X155959378Y-74053260D01*
X155777287Y-74275732D01*
X155627073Y-74520858D01*
X155625347Y-74524791D01*
X155625346Y-74524792D01*
X155519346Y-74766267D01*
X155511517Y-74784102D01*
X155510342Y-74788229D01*
X155510341Y-74788230D01*
X155500868Y-74821486D01*
X155432756Y-75060594D01*
X155392249Y-75345216D01*
X155392227Y-75349505D01*
X155392226Y-75349512D01*
X155390783Y-75625008D01*
X155390743Y-75632703D01*
X154508500Y-75632703D01*
X154508500Y-72853250D01*
X154510246Y-72832345D01*
X154512770Y-72817344D01*
X154512770Y-72817341D01*
X154513576Y-72812552D01*
X154513650Y-72806445D01*
X154513670Y-72804864D01*
X154513670Y-72804860D01*
X154513729Y-72800000D01*
X154513038Y-72795177D01*
X154512852Y-72792320D01*
X154514136Y-72764417D01*
X154519645Y-72729631D01*
X154531827Y-72692141D01*
X154555113Y-72646440D01*
X154578285Y-72614548D01*
X154614548Y-72578285D01*
X154646440Y-72555113D01*
X154692141Y-72531827D01*
X154729631Y-72519646D01*
X154766025Y-72513881D01*
X154785750Y-72512449D01*
X154793724Y-72513691D01*
X154825286Y-72509564D01*
X154841621Y-72508500D01*
X169161223Y-72508500D01*
X169229344Y-72528502D01*
G37*
%TD.AperFunction*%
%TA.AperFunction,Conductor*%
G36*
X171751427Y-82146818D02*
G01*
X171881301Y-82225472D01*
X171888548Y-82227743D01*
X171888550Y-82227744D01*
X171945076Y-82245458D01*
X172044938Y-82276753D01*
X172118365Y-82283500D01*
X172218993Y-82283500D01*
X172287114Y-82303502D01*
X172333607Y-82357158D01*
X172343711Y-82427432D01*
X172327446Y-82473639D01*
X172319475Y-82487118D01*
X172313982Y-82496407D01*
X172311772Y-82504014D01*
X172311771Y-82504017D01*
X172277745Y-82621134D01*
X172269326Y-82650111D01*
X172268821Y-82656530D01*
X172266693Y-82683562D01*
X172266692Y-82683575D01*
X172266500Y-82686021D01*
X172266501Y-84063978D01*
X172266695Y-84066443D01*
X172267730Y-84079595D01*
X172269326Y-84099889D01*
X172313982Y-84253593D01*
X172318016Y-84260414D01*
X172391424Y-84384543D01*
X172391427Y-84384547D01*
X172395458Y-84391363D01*
X172508637Y-84504542D01*
X172515453Y-84508573D01*
X172515457Y-84508576D01*
X172608324Y-84563496D01*
X172646407Y-84586018D01*
X172654017Y-84588229D01*
X172793928Y-84628878D01*
X172793931Y-84628879D01*
X172800111Y-84630674D01*
X172812762Y-84631670D01*
X172833562Y-84633307D01*
X172833575Y-84633308D01*
X172836021Y-84633500D01*
X173024885Y-84633500D01*
X173213978Y-84633499D01*
X173221766Y-84632886D01*
X173243474Y-84631179D01*
X173243477Y-84631178D01*
X173249889Y-84630674D01*
X173256063Y-84628880D01*
X173256070Y-84628879D01*
X173389847Y-84590012D01*
X173460153Y-84590012D01*
X173593925Y-84628877D01*
X173593927Y-84628877D01*
X173600111Y-84630674D01*
X173612762Y-84631670D01*
X173633562Y-84633307D01*
X173633575Y-84633308D01*
X173636021Y-84633500D01*
X173824885Y-84633500D01*
X174013978Y-84633499D01*
X174021766Y-84632886D01*
X174043474Y-84631179D01*
X174043477Y-84631178D01*
X174049889Y-84630674D01*
X174056063Y-84628880D01*
X174056070Y-84628879D01*
X174189847Y-84590012D01*
X174260153Y-84590012D01*
X174393925Y-84628877D01*
X174393927Y-84628877D01*
X174400111Y-84630674D01*
X174412762Y-84631670D01*
X174433562Y-84633307D01*
X174433575Y-84633308D01*
X174436021Y-84633500D01*
X174624885Y-84633500D01*
X174813978Y-84633499D01*
X174821766Y-84632886D01*
X174843474Y-84631179D01*
X174843477Y-84631178D01*
X174849889Y-84630674D01*
X174856063Y-84628880D01*
X174856070Y-84628879D01*
X174989847Y-84590012D01*
X175060153Y-84590012D01*
X175193925Y-84628877D01*
X175193927Y-84628877D01*
X175200111Y-84630674D01*
X175212762Y-84631670D01*
X175233562Y-84633307D01*
X175233575Y-84633308D01*
X175236021Y-84633500D01*
X175424885Y-84633500D01*
X175613978Y-84633499D01*
X175621766Y-84632886D01*
X175643474Y-84631179D01*
X175643477Y-84631178D01*
X175649889Y-84630674D01*
X175656063Y-84628880D01*
X175656070Y-84628879D01*
X175789847Y-84590012D01*
X175860153Y-84590012D01*
X175993925Y-84628877D01*
X175993927Y-84628877D01*
X176000111Y-84630674D01*
X176012762Y-84631670D01*
X176033562Y-84633307D01*
X176033575Y-84633308D01*
X176036021Y-84633500D01*
X176224885Y-84633500D01*
X176413978Y-84633499D01*
X176421766Y-84632886D01*
X176443474Y-84631179D01*
X176443477Y-84631178D01*
X176449889Y-84630674D01*
X176456063Y-84628880D01*
X176456070Y-84628879D01*
X176589847Y-84590012D01*
X176660153Y-84590012D01*
X176793925Y-84628877D01*
X176793927Y-84628877D01*
X176800111Y-84630674D01*
X176812762Y-84631670D01*
X176833562Y-84633307D01*
X176833575Y-84633308D01*
X176836021Y-84633500D01*
X177024885Y-84633500D01*
X177213978Y-84633499D01*
X177221766Y-84632886D01*
X177243474Y-84631179D01*
X177243477Y-84631178D01*
X177249889Y-84630674D01*
X177256063Y-84628880D01*
X177256070Y-84628879D01*
X177389847Y-84590012D01*
X177460153Y-84590012D01*
X177593925Y-84628877D01*
X177593927Y-84628877D01*
X177600111Y-84630674D01*
X177612762Y-84631670D01*
X177633562Y-84633307D01*
X177633575Y-84633308D01*
X177636021Y-84633500D01*
X177641894Y-84633500D01*
X177815500Y-84633499D01*
X177883620Y-84653501D01*
X177930113Y-84707156D01*
X177941500Y-84759498D01*
X177941501Y-84933095D01*
X177941501Y-84938978D01*
X177944326Y-84974889D01*
X177946120Y-84981063D01*
X177946121Y-84981070D01*
X177984988Y-85114847D01*
X177984988Y-85185153D01*
X177946123Y-85318925D01*
X177944326Y-85325111D01*
X177943821Y-85331530D01*
X177941693Y-85358562D01*
X177941692Y-85358575D01*
X177941500Y-85361021D01*
X177941501Y-85738978D01*
X177941695Y-85741443D01*
X177943804Y-85768249D01*
X177944326Y-85774889D01*
X177946120Y-85781063D01*
X177946121Y-85781070D01*
X177984988Y-85914847D01*
X177984988Y-85985153D01*
X177948731Y-86109948D01*
X177944326Y-86125111D01*
X177943821Y-86131530D01*
X177941693Y-86158562D01*
X177941692Y-86158575D01*
X177941500Y-86161021D01*
X177941501Y-86538978D01*
X177944326Y-86574889D01*
X177946120Y-86581063D01*
X177946121Y-86581070D01*
X177984988Y-86714847D01*
X177984988Y-86785153D01*
X177947086Y-86915610D01*
X177944326Y-86925111D01*
X177943821Y-86931530D01*
X177941693Y-86958562D01*
X177941692Y-86958575D01*
X177941500Y-86961021D01*
X177941501Y-87338978D01*
X177944326Y-87374889D01*
X177946120Y-87381063D01*
X177946121Y-87381070D01*
X177984988Y-87514847D01*
X177984988Y-87585153D01*
X177946123Y-87718925D01*
X177944326Y-87725111D01*
X177943821Y-87731530D01*
X177941693Y-87758562D01*
X177941692Y-87758575D01*
X177941500Y-87761021D01*
X177941500Y-87830668D01*
X177921498Y-87898789D01*
X177867842Y-87945282D01*
X177797568Y-87955386D01*
X177731681Y-87924744D01*
X177688830Y-87886565D01*
X177683554Y-87881584D01*
X177271450Y-87469480D01*
X177265596Y-87463215D01*
X177265201Y-87462762D01*
X177227561Y-87419615D01*
X177175280Y-87382871D01*
X177169986Y-87378939D01*
X177125693Y-87344209D01*
X177119718Y-87339524D01*
X177112802Y-87336401D01*
X177110516Y-87335017D01*
X177095835Y-87326643D01*
X177093475Y-87325378D01*
X177087261Y-87321010D01*
X177080182Y-87318250D01*
X177080180Y-87318249D01*
X177027725Y-87297798D01*
X177021656Y-87295247D01*
X176963427Y-87268955D01*
X176955960Y-87267571D01*
X176953405Y-87266770D01*
X176937152Y-87262141D01*
X176934572Y-87261478D01*
X176927491Y-87258718D01*
X176919960Y-87257727D01*
X176919958Y-87257726D01*
X176890339Y-87253827D01*
X176864139Y-87250378D01*
X176857641Y-87249348D01*
X176794814Y-87237704D01*
X176787234Y-87238141D01*
X176787233Y-87238141D01*
X176732608Y-87241291D01*
X176725354Y-87241500D01*
X173136857Y-87241500D01*
X173068736Y-87221498D01*
X173022243Y-87167842D01*
X173012139Y-87097568D01*
X173034862Y-87041584D01*
X173039040Y-87036944D01*
X173050843Y-87016501D01*
X173131223Y-86877279D01*
X173131224Y-86877278D01*
X173134527Y-86871556D01*
X173193542Y-86689928D01*
X173201080Y-86618213D01*
X173212814Y-86506565D01*
X173213504Y-86500000D01*
X173193542Y-86310072D01*
X173134527Y-86128444D01*
X173039040Y-85963056D01*
X173027285Y-85950000D01*
X172915675Y-85826045D01*
X172915674Y-85826044D01*
X172911253Y-85821134D01*
X172801568Y-85741443D01*
X172762094Y-85712763D01*
X172762093Y-85712762D01*
X172756752Y-85708882D01*
X172750724Y-85706198D01*
X172750722Y-85706197D01*
X172588319Y-85633891D01*
X172588318Y-85633891D01*
X172582288Y-85631206D01*
X172473687Y-85608122D01*
X172401944Y-85592872D01*
X172401939Y-85592872D01*
X172395487Y-85591500D01*
X172234499Y-85591500D01*
X172166378Y-85571498D01*
X172119885Y-85517842D01*
X172108499Y-85465500D01*
X172108499Y-85361022D01*
X172107777Y-85351843D01*
X172106179Y-85331526D01*
X172106178Y-85331523D01*
X172105674Y-85325111D01*
X172103880Y-85318937D01*
X172103879Y-85318930D01*
X172065012Y-85185153D01*
X172065012Y-85114847D01*
X172103877Y-84981075D01*
X172103878Y-84981070D01*
X172105674Y-84974889D01*
X172106670Y-84962238D01*
X172108307Y-84941438D01*
X172108308Y-84941425D01*
X172108500Y-84938979D01*
X172108499Y-84561022D01*
X172107748Y-84551473D01*
X172106179Y-84531526D01*
X172106178Y-84531523D01*
X172105674Y-84525111D01*
X172068445Y-84396969D01*
X172063229Y-84379017D01*
X172061018Y-84371407D01*
X171991344Y-84253593D01*
X171983576Y-84240457D01*
X171983573Y-84240453D01*
X171979542Y-84233637D01*
X171866363Y-84120458D01*
X171859547Y-84116427D01*
X171859543Y-84116424D01*
X171735414Y-84043016D01*
X171735415Y-84043016D01*
X171728593Y-84038982D01*
X171720983Y-84036771D01*
X171649346Y-84015958D01*
X171589511Y-83977744D01*
X171559834Y-83913248D01*
X171558500Y-83894961D01*
X171558500Y-82278912D01*
X171558792Y-82270341D01*
X171558898Y-82268794D01*
X171560450Y-82246024D01*
X171585039Y-82179422D01*
X171641734Y-82136686D01*
X171712532Y-82131386D01*
X171751427Y-82146818D01*
G37*
%TD.AperFunction*%
%TA.AperFunction,Conductor*%
G36*
X164483621Y-77733502D02*
G01*
X164530114Y-77787158D01*
X164541500Y-77839500D01*
X164541500Y-80621088D01*
X164541208Y-80629658D01*
X164537275Y-80687352D01*
X164538580Y-80694829D01*
X164538580Y-80694830D01*
X164548261Y-80750299D01*
X164549223Y-80756821D01*
X164556898Y-80820242D01*
X164559581Y-80827343D01*
X164560222Y-80829952D01*
X164564685Y-80846262D01*
X164565450Y-80848798D01*
X164566757Y-80856284D01*
X164569811Y-80863241D01*
X164592442Y-80914795D01*
X164594933Y-80920899D01*
X164617513Y-80980656D01*
X164621817Y-80986919D01*
X164623054Y-80989285D01*
X164631299Y-81004097D01*
X164632632Y-81006351D01*
X164635685Y-81013305D01*
X164665072Y-81051601D01*
X164674579Y-81063991D01*
X164678459Y-81069332D01*
X164710339Y-81115720D01*
X164710344Y-81115725D01*
X164714643Y-81121981D01*
X164720313Y-81127032D01*
X164720314Y-81127034D01*
X164761161Y-81163427D01*
X164766438Y-81168408D01*
X165353565Y-81755536D01*
X165359418Y-81761801D01*
X165397439Y-81805385D01*
X165403653Y-81809752D01*
X165403656Y-81809755D01*
X165427516Y-81826524D01*
X165462207Y-81863304D01*
X165521248Y-81958713D01*
X165642298Y-82079552D01*
X165648526Y-82083391D01*
X165648529Y-82083393D01*
X165752465Y-82147460D01*
X165787899Y-82169302D01*
X165950243Y-82223149D01*
X165957080Y-82223849D01*
X165957082Y-82223850D01*
X165988931Y-82227113D01*
X166051268Y-82233500D01*
X166648732Y-82233500D01*
X166651978Y-82233163D01*
X166651982Y-82233163D01*
X166686083Y-82229625D01*
X166751019Y-82222887D01*
X166788336Y-82210437D01*
X166906324Y-82171073D01*
X166906326Y-82171072D01*
X166913268Y-82168756D01*
X166933087Y-82156492D01*
X167052485Y-82082606D01*
X167058713Y-82078752D01*
X167063886Y-82073570D01*
X167063891Y-82073566D01*
X167116881Y-82020483D01*
X167179163Y-81986403D01*
X167206054Y-81983500D01*
X167243951Y-81983500D01*
X167312072Y-82003502D01*
X167332968Y-82020326D01*
X167381530Y-82068803D01*
X167392298Y-82079552D01*
X167416699Y-82094593D01*
X167464191Y-82147363D01*
X167475615Y-82217434D01*
X167447342Y-82282559D01*
X167416884Y-82308996D01*
X167316287Y-82371248D01*
X167195448Y-82492298D01*
X167191608Y-82498528D01*
X167191607Y-82498529D01*
X167186881Y-82506197D01*
X167105698Y-82637899D01*
X167051851Y-82800243D01*
X167041500Y-82901268D01*
X167041500Y-83498732D01*
X167052113Y-83601019D01*
X167106244Y-83763268D01*
X167110096Y-83769492D01*
X167110096Y-83769493D01*
X167169508Y-83865501D01*
X167196248Y-83908713D01*
X167201430Y-83913886D01*
X167205975Y-83919620D01*
X167204055Y-83921142D01*
X167232545Y-83973206D01*
X167227544Y-84044026D01*
X167204118Y-84080552D01*
X167205157Y-84081372D01*
X167200619Y-84087118D01*
X167195448Y-84092298D01*
X167191608Y-84098528D01*
X167191607Y-84098529D01*
X167180530Y-84116500D01*
X167105698Y-84237899D01*
X167051851Y-84400243D01*
X167051151Y-84407080D01*
X167051150Y-84407082D01*
X167046917Y-84448401D01*
X167041500Y-84501268D01*
X167041500Y-85098732D01*
X167052113Y-85201019D01*
X167054295Y-85207559D01*
X167098052Y-85338713D01*
X167106244Y-85363268D01*
X167110096Y-85369492D01*
X167110096Y-85369493D01*
X167167995Y-85463056D01*
X167196248Y-85508713D01*
X167201430Y-85513886D01*
X167205975Y-85519620D01*
X167204055Y-85521142D01*
X167232545Y-85573206D01*
X167227544Y-85644026D01*
X167204118Y-85680552D01*
X167205157Y-85681372D01*
X167200619Y-85687118D01*
X167195448Y-85692298D01*
X167191608Y-85698528D01*
X167191607Y-85698529D01*
X167118426Y-85817251D01*
X167105698Y-85837899D01*
X167051851Y-86000243D01*
X167041500Y-86101268D01*
X167041500Y-86698732D01*
X167052113Y-86801019D01*
X167095656Y-86931530D01*
X167098055Y-86938722D01*
X167100640Y-87009672D01*
X167064457Y-87070756D01*
X167000993Y-87102581D01*
X166930398Y-87095042D01*
X166913261Y-87086375D01*
X166900197Y-87078463D01*
X166900195Y-87078462D01*
X166893699Y-87074528D01*
X166886452Y-87072257D01*
X166886450Y-87072256D01*
X166806917Y-87047332D01*
X166730062Y-87023247D01*
X166656635Y-87016500D01*
X166653737Y-87016500D01*
X166399335Y-87016501D01*
X166143366Y-87016501D01*
X166140508Y-87016764D01*
X166140499Y-87016764D01*
X166104996Y-87020026D01*
X166069938Y-87023247D01*
X166063561Y-87025245D01*
X166063558Y-87025246D01*
X165997179Y-87046048D01*
X165926194Y-87047332D01*
X165865783Y-87010035D01*
X165835127Y-86945998D01*
X165833500Y-86925814D01*
X165833500Y-86702524D01*
X165853502Y-86634403D01*
X165865858Y-86618221D01*
X165939040Y-86536944D01*
X166034527Y-86371556D01*
X166093542Y-86189928D01*
X166100355Y-86125111D01*
X166112814Y-86006565D01*
X166113504Y-86000000D01*
X166108249Y-85950000D01*
X166094232Y-85816635D01*
X166094232Y-85816633D01*
X166093542Y-85810072D01*
X166034527Y-85628444D01*
X166013990Y-85592872D01*
X165964058Y-85506389D01*
X165939040Y-85463056D01*
X165847168Y-85361021D01*
X165815675Y-85326045D01*
X165815674Y-85326044D01*
X165811253Y-85321134D01*
X165656752Y-85208882D01*
X165650724Y-85206198D01*
X165650722Y-85206197D01*
X165488319Y-85133891D01*
X165488318Y-85133891D01*
X165482288Y-85131206D01*
X165388888Y-85111353D01*
X165301944Y-85092872D01*
X165301939Y-85092872D01*
X165295487Y-85091500D01*
X165104513Y-85091500D01*
X165098061Y-85092872D01*
X165098056Y-85092872D01*
X165011112Y-85111353D01*
X164917712Y-85131206D01*
X164911682Y-85133891D01*
X164911681Y-85133891D01*
X164749278Y-85206197D01*
X164749276Y-85206198D01*
X164743248Y-85208882D01*
X164588747Y-85321134D01*
X164584326Y-85326044D01*
X164584325Y-85326045D01*
X164552833Y-85361021D01*
X164460960Y-85463056D01*
X164435942Y-85506389D01*
X164386011Y-85592872D01*
X164365473Y-85628444D01*
X164306458Y-85810072D01*
X164305768Y-85816633D01*
X164305768Y-85816635D01*
X164291751Y-85950000D01*
X164286496Y-86000000D01*
X164287186Y-86006565D01*
X164299646Y-86125111D01*
X164306458Y-86189928D01*
X164365473Y-86371556D01*
X164460960Y-86536944D01*
X164465126Y-86541571D01*
X164488938Y-86608307D01*
X164472857Y-86677459D01*
X164421943Y-86726939D01*
X164363143Y-86741500D01*
X160851866Y-86741500D01*
X160789684Y-86748255D01*
X160653295Y-86799385D01*
X160536739Y-86886739D01*
X160531358Y-86893919D01*
X160531357Y-86893920D01*
X160460326Y-86988696D01*
X160403467Y-87031211D01*
X160332648Y-87036237D01*
X160270355Y-87002177D01*
X160236365Y-86939845D01*
X160233500Y-86913131D01*
X160233500Y-82014594D01*
X160253502Y-81946473D01*
X160270405Y-81925499D01*
X162592247Y-79603657D01*
X162600537Y-79596113D01*
X162607018Y-79592000D01*
X162653659Y-79542332D01*
X162656413Y-79539491D01*
X162676134Y-79519770D01*
X162678612Y-79516575D01*
X162686318Y-79507553D01*
X162697479Y-79495668D01*
X162716586Y-79475321D01*
X162726346Y-79457568D01*
X162737199Y-79441045D01*
X162738356Y-79439553D01*
X162749613Y-79425041D01*
X162767176Y-79384457D01*
X162772383Y-79373827D01*
X162793695Y-79335060D01*
X162795666Y-79327383D01*
X162795668Y-79327378D01*
X162798732Y-79315442D01*
X162805138Y-79296730D01*
X162810033Y-79285419D01*
X162813181Y-79278145D01*
X162814421Y-79270317D01*
X162814423Y-79270310D01*
X162820099Y-79234476D01*
X162822505Y-79222856D01*
X162831528Y-79187711D01*
X162831528Y-79187710D01*
X162833500Y-79180030D01*
X162833500Y-79159776D01*
X162835051Y-79140065D01*
X162836980Y-79127886D01*
X162838220Y-79120057D01*
X162834059Y-79076038D01*
X162833500Y-79064181D01*
X162833500Y-78039217D01*
X162853502Y-77971096D01*
X162907158Y-77924603D01*
X162977432Y-77914499D01*
X162999167Y-77919624D01*
X163093715Y-77950984D01*
X163093717Y-77950984D01*
X163100243Y-77953149D01*
X163107080Y-77953849D01*
X163107082Y-77953850D01*
X163148401Y-77958083D01*
X163201268Y-77963500D01*
X163798732Y-77963500D01*
X163801978Y-77963163D01*
X163801982Y-77963163D01*
X163836083Y-77959625D01*
X163901019Y-77952887D01*
X164000720Y-77919624D01*
X164056324Y-77901073D01*
X164056326Y-77901072D01*
X164063268Y-77898756D01*
X164180799Y-77826026D01*
X164202485Y-77812606D01*
X164208713Y-77808752D01*
X164213886Y-77803570D01*
X164213891Y-77803566D01*
X164266881Y-77750483D01*
X164329163Y-77716403D01*
X164356054Y-77713500D01*
X164415500Y-77713500D01*
X164483621Y-77733502D01*
G37*
%TD.AperFunction*%
%TA.AperFunction,Conductor*%
G36*
X166328621Y-77983502D02*
G01*
X166375114Y-78037158D01*
X166386500Y-78089500D01*
X166386500Y-78099962D01*
X166386496Y-78100000D01*
X166386500Y-78100038D01*
X166386500Y-78374000D01*
X166386860Y-78377346D01*
X166386860Y-78377351D01*
X166397103Y-78472626D01*
X166398234Y-78483149D01*
X166398952Y-78486449D01*
X166398952Y-78486450D01*
X166402589Y-78503167D01*
X166409620Y-78535491D01*
X166444290Y-78639657D01*
X166523308Y-78762612D01*
X166526250Y-78766007D01*
X166526252Y-78766010D01*
X166544577Y-78787158D01*
X166569801Y-78816268D01*
X166573194Y-78819208D01*
X166673450Y-78906081D01*
X166673453Y-78906083D01*
X166680261Y-78911982D01*
X166688459Y-78915726D01*
X166707700Y-78924513D01*
X166813210Y-78972698D01*
X166836964Y-78979673D01*
X166877008Y-78991431D01*
X166877012Y-78991432D01*
X166881331Y-78992700D01*
X166885780Y-78993340D01*
X166885786Y-78993341D01*
X167021553Y-79012861D01*
X167021558Y-79012861D01*
X167026000Y-79013500D01*
X169150268Y-79013500D01*
X169218389Y-79033502D01*
X169262334Y-79081905D01*
X169285965Y-79127886D01*
X169339114Y-79231301D01*
X169348187Y-79248956D01*
X169471035Y-79403953D01*
X169475728Y-79407947D01*
X169475729Y-79407948D01*
X169605856Y-79518694D01*
X169621650Y-79532136D01*
X169794294Y-79628624D01*
X169982392Y-79689740D01*
X170178777Y-79713158D01*
X170184912Y-79712686D01*
X170184914Y-79712686D01*
X170369830Y-79698457D01*
X170369834Y-79698456D01*
X170375972Y-79697984D01*
X170566463Y-79644798D01*
X170571967Y-79642018D01*
X170571969Y-79642017D01*
X170737495Y-79558404D01*
X170737497Y-79558403D01*
X170742996Y-79555625D01*
X170898847Y-79433861D01*
X171008335Y-79307018D01*
X171024049Y-79288813D01*
X171024050Y-79288811D01*
X171028078Y-79284145D01*
X171125769Y-79112179D01*
X171188197Y-78924513D01*
X171209601Y-78755083D01*
X171212016Y-78735966D01*
X171240398Y-78670889D01*
X171299457Y-78631488D01*
X171370444Y-78630271D01*
X171401157Y-78643303D01*
X171436399Y-78664145D01*
X171444010Y-78666356D01*
X171444012Y-78666357D01*
X171479204Y-78676581D01*
X171596169Y-78710562D01*
X171602582Y-78711067D01*
X171602589Y-78711068D01*
X171625388Y-78712863D01*
X171691729Y-78738149D01*
X171733868Y-78795288D01*
X171741500Y-78838474D01*
X171741500Y-78904290D01*
X171721498Y-78972411D01*
X171704595Y-78993385D01*
X171613361Y-79084619D01*
X171524528Y-79231301D01*
X171522257Y-79238548D01*
X171522256Y-79238550D01*
X171515505Y-79260094D01*
X171473247Y-79394938D01*
X171466500Y-79468365D01*
X171466501Y-80131634D01*
X171466764Y-80134492D01*
X171466764Y-80134501D01*
X171470026Y-80170004D01*
X171473247Y-80205062D01*
X171475246Y-80211440D01*
X171475246Y-80211441D01*
X171511496Y-80327113D01*
X171524528Y-80368699D01*
X171586634Y-80471248D01*
X171594798Y-80484729D01*
X171612977Y-80553358D01*
X171594798Y-80615270D01*
X171524528Y-80731301D01*
X171522257Y-80738548D01*
X171522256Y-80738550D01*
X171516529Y-80756825D01*
X171473247Y-80894938D01*
X171466500Y-80968365D01*
X171466501Y-81287594D01*
X171466501Y-81560341D01*
X171446499Y-81628462D01*
X171392843Y-81674955D01*
X171322570Y-81685059D01*
X171257989Y-81655566D01*
X171251406Y-81649436D01*
X170809665Y-81207695D01*
X170775639Y-81145383D01*
X170773450Y-81131770D01*
X170769232Y-81091637D01*
X170768542Y-81085072D01*
X170752185Y-81034729D01*
X170711569Y-80909729D01*
X170709527Y-80903444D01*
X170614040Y-80738056D01*
X170598804Y-80721134D01*
X170490675Y-80601045D01*
X170490674Y-80601044D01*
X170486253Y-80596134D01*
X170385892Y-80523217D01*
X170337094Y-80487763D01*
X170337093Y-80487762D01*
X170331752Y-80483882D01*
X170325724Y-80481198D01*
X170325722Y-80481197D01*
X170163319Y-80408891D01*
X170163318Y-80408891D01*
X170157288Y-80406206D01*
X170039852Y-80381244D01*
X169976944Y-80367872D01*
X169976939Y-80367872D01*
X169970487Y-80366500D01*
X169779513Y-80366500D01*
X169773061Y-80367872D01*
X169773056Y-80367872D01*
X169710148Y-80381244D01*
X169592712Y-80406206D01*
X169586682Y-80408891D01*
X169586681Y-80408891D01*
X169424278Y-80481197D01*
X169424276Y-80481198D01*
X169418248Y-80483882D01*
X169412907Y-80487762D01*
X169412906Y-80487763D01*
X169337656Y-80542436D01*
X169270789Y-80566294D01*
X169263595Y-80566500D01*
X168956049Y-80566500D01*
X168887928Y-80546498D01*
X168867032Y-80529674D01*
X168812883Y-80475620D01*
X168807702Y-80470448D01*
X168801471Y-80466607D01*
X168668331Y-80384538D01*
X168668329Y-80384537D01*
X168662101Y-80380698D01*
X168499757Y-80326851D01*
X168492920Y-80326151D01*
X168492918Y-80326150D01*
X168451599Y-80321917D01*
X168398732Y-80316500D01*
X167801268Y-80316500D01*
X167798022Y-80316837D01*
X167798018Y-80316837D01*
X167763917Y-80320375D01*
X167698981Y-80327113D01*
X167692440Y-80329295D01*
X167692441Y-80329295D01*
X167543676Y-80378927D01*
X167543674Y-80378928D01*
X167536732Y-80381244D01*
X167391287Y-80471248D01*
X167386114Y-80476430D01*
X167386109Y-80476434D01*
X167333119Y-80529517D01*
X167270837Y-80563597D01*
X167243946Y-80566500D01*
X167206049Y-80566500D01*
X167137928Y-80546498D01*
X167117032Y-80529674D01*
X167062883Y-80475620D01*
X167057702Y-80470448D01*
X167051471Y-80466607D01*
X166918331Y-80384538D01*
X166918329Y-80384537D01*
X166912101Y-80380698D01*
X166749757Y-80326851D01*
X166742920Y-80326151D01*
X166742918Y-80326150D01*
X166701599Y-80321917D01*
X166648732Y-80316500D01*
X166084500Y-80316500D01*
X166016379Y-80296498D01*
X165969886Y-80242842D01*
X165958500Y-80190500D01*
X165958500Y-78089500D01*
X165978502Y-78021379D01*
X166032158Y-77974886D01*
X166084500Y-77963500D01*
X166260500Y-77963500D01*
X166328621Y-77983502D01*
G37*
%TD.AperFunction*%
%TD*%
%TA.AperFunction,Conductor*%
%TO.N,+5V*%
G36*
X169258390Y-101753502D02*
G01*
X169304883Y-101807158D01*
X169314987Y-101877432D01*
X169285493Y-101942012D01*
X169275606Y-101951476D01*
X169275652Y-101951522D01*
X169150695Y-102076697D01*
X169057885Y-102227262D01*
X169002203Y-102395139D01*
X168991500Y-102499600D01*
X168991500Y-105600400D01*
X168991837Y-105603644D01*
X168991837Y-105603652D01*
X168997787Y-105660997D01*
X168984922Y-105730818D01*
X168936351Y-105782600D01*
X168872460Y-105800000D01*
X166738362Y-105800000D01*
X166670241Y-105779998D01*
X166644731Y-105758315D01*
X166611253Y-105721134D01*
X166456752Y-105608882D01*
X166450724Y-105606198D01*
X166450722Y-105606197D01*
X166288319Y-105533891D01*
X166288318Y-105533891D01*
X166282288Y-105531206D01*
X166179247Y-105509304D01*
X166099803Y-105492417D01*
X166037329Y-105458688D01*
X166003008Y-105396539D01*
X166000000Y-105369170D01*
X166000000Y-101859500D01*
X166020002Y-101791379D01*
X166073658Y-101744886D01*
X166126000Y-101733500D01*
X169190269Y-101733500D01*
X169258390Y-101753502D01*
G37*
%TD.AperFunction*%
%TD*%
M02*
