%TF.GenerationSoftware,KiCad,Pcbnew,6.0.11-2627ca5db0~126~ubuntu20.04.1*%
%TF.CreationDate,2023-02-21T17:10:03+08:00*%
%TF.ProjectId,cityscope-can-module,63697479-7363-46f7-9065-2d63616e2d6d,v1.0*%
%TF.SameCoordinates,Original*%
%TF.FileFunction,Soldermask,Top*%
%TF.FilePolarity,Negative*%
%FSLAX46Y46*%
G04 Gerber Fmt 4.6, Leading zero omitted, Abs format (unit mm)*
G04 Created by KiCad (PCBNEW 6.0.11-2627ca5db0~126~ubuntu20.04.1) date 2023-02-21 17:10:03*
%MOMM*%
%LPD*%
G01*
G04 APERTURE LIST*
G04 Aperture macros list*
%AMRoundRect*
0 Rectangle with rounded corners*
0 $1 Rounding radius*
0 $2 $3 $4 $5 $6 $7 $8 $9 X,Y pos of 4 corners*
0 Add a 4 corners polygon primitive as box body*
4,1,4,$2,$3,$4,$5,$6,$7,$8,$9,$2,$3,0*
0 Add four circle primitives for the rounded corners*
1,1,$1+$1,$2,$3*
1,1,$1+$1,$4,$5*
1,1,$1+$1,$6,$7*
1,1,$1+$1,$8,$9*
0 Add four rect primitives between the rounded corners*
20,1,$1+$1,$2,$3,$4,$5,0*
20,1,$1+$1,$4,$5,$6,$7,0*
20,1,$1+$1,$6,$7,$8,$9,0*
20,1,$1+$1,$8,$9,$2,$3,0*%
G04 Aperture macros list end*
%ADD10RoundRect,0.200000X-0.200000X-0.275000X0.200000X-0.275000X0.200000X0.275000X-0.200000X0.275000X0*%
%ADD11RoundRect,0.225000X0.225000X0.250000X-0.225000X0.250000X-0.225000X-0.250000X0.225000X-0.250000X0*%
%ADD12RoundRect,0.225000X-0.250000X0.225000X-0.250000X-0.225000X0.250000X-0.225000X0.250000X0.225000X0*%
%ADD13C,1.400000*%
%ADD14R,3.500000X3.500000*%
%ADD15C,3.500000*%
%ADD16R,0.400000X0.800000*%
%ADD17R,2.500000X1.750000*%
%ADD18C,3.200000*%
%ADD19C,1.000000*%
%ADD20RoundRect,0.125000X-0.625000X-0.125000X0.625000X-0.125000X0.625000X0.125000X-0.625000X0.125000X0*%
%ADD21RoundRect,0.125000X-0.125000X-0.625000X0.125000X-0.625000X0.125000X0.625000X-0.125000X0.625000X0*%
%ADD22RoundRect,0.250000X-1.500000X0.250000X-1.500000X-0.250000X1.500000X-0.250000X1.500000X0.250000X0*%
%ADD23RoundRect,0.250001X-1.449999X0.499999X-1.449999X-0.499999X1.449999X-0.499999X1.449999X0.499999X0*%
%ADD24C,1.500000*%
%ADD25RoundRect,0.225000X-0.225000X-0.250000X0.225000X-0.250000X0.225000X0.250000X-0.225000X0.250000X0*%
%ADD26RoundRect,0.150000X0.150000X0.625000X-0.150000X0.625000X-0.150000X-0.625000X0.150000X-0.625000X0*%
%ADD27RoundRect,0.250000X0.350000X0.650000X-0.350000X0.650000X-0.350000X-0.650000X0.350000X-0.650000X0*%
%ADD28RoundRect,0.250000X-0.250000X-1.500000X0.250000X-1.500000X0.250000X1.500000X-0.250000X1.500000X0*%
%ADD29RoundRect,0.250001X-0.499999X-1.449999X0.499999X-1.449999X0.499999X1.449999X-0.499999X1.449999X0*%
%ADD30R,1.600000X1.400000*%
%ADD31RoundRect,0.250000X1.500000X-0.250000X1.500000X0.250000X-1.500000X0.250000X-1.500000X-0.250000X0*%
%ADD32RoundRect,0.250001X1.449999X-0.499999X1.449999X0.499999X-1.449999X0.499999X-1.449999X-0.499999X0*%
%ADD33RoundRect,0.200000X0.275000X-0.200000X0.275000X0.200000X-0.275000X0.200000X-0.275000X-0.200000X0*%
%ADD34RoundRect,0.225000X0.250000X-0.225000X0.250000X0.225000X-0.250000X0.225000X-0.250000X-0.225000X0*%
%ADD35RoundRect,0.150000X0.825000X0.150000X-0.825000X0.150000X-0.825000X-0.150000X0.825000X-0.150000X0*%
%ADD36R,1.600000X1.600000*%
%ADD37C,1.600000*%
%ADD38RoundRect,0.218750X-0.256250X0.218750X-0.256250X-0.218750X0.256250X-0.218750X0.256250X0.218750X0*%
G04 APERTURE END LIST*
D10*
%TO.C,R1*%
X172375000Y-81300000D03*
X174025000Y-81300000D03*
%TD*%
D11*
%TO.C,C1*%
X168000000Y-83200000D03*
X166450000Y-83200000D03*
%TD*%
D12*
%TO.C,C2*%
X168100000Y-79725000D03*
X168100000Y-81275000D03*
%TD*%
D13*
%TO.C,J3*%
X157650000Y-92000000D03*
X157650000Y-81000000D03*
D14*
X162650000Y-89000000D03*
D15*
X162650000Y-84000000D03*
%TD*%
D16*
%TO.C,PS1*%
X167150000Y-74055000D03*
X166200000Y-74055000D03*
X165250000Y-74055000D03*
X165250000Y-77055000D03*
X166200000Y-77055000D03*
X167150000Y-77055000D03*
D17*
X166200000Y-75555000D03*
%TD*%
D18*
%TO.C,H2*%
X157500000Y-75500000D03*
%TD*%
D19*
%TO.C,TP1*%
X170200000Y-78700000D03*
%TD*%
D13*
%TO.C,J2*%
X195325000Y-92000000D03*
X195325000Y-81000000D03*
D14*
X185325000Y-89000000D03*
D15*
X185325000Y-84000000D03*
%TD*%
D20*
%TO.C,U1*%
X170850000Y-84750000D03*
X170850000Y-85550000D03*
X170850000Y-86350000D03*
X170850000Y-87150000D03*
X170850000Y-87950000D03*
X170850000Y-88750000D03*
X170850000Y-89550000D03*
X170850000Y-90350000D03*
D21*
X172225000Y-91725000D03*
X173025000Y-91725000D03*
X173825000Y-91725000D03*
X174625000Y-91725000D03*
X175425000Y-91725000D03*
X176225000Y-91725000D03*
X177025000Y-91725000D03*
X177825000Y-91725000D03*
D20*
X179200000Y-90350000D03*
X179200000Y-89550000D03*
X179200000Y-88750000D03*
X179200000Y-87950000D03*
X179200000Y-87150000D03*
X179200000Y-86350000D03*
X179200000Y-85550000D03*
X179200000Y-84750000D03*
D21*
X177825000Y-83375000D03*
X177025000Y-83375000D03*
X176225000Y-83375000D03*
X175425000Y-83375000D03*
X174625000Y-83375000D03*
X173825000Y-83375000D03*
X173025000Y-83375000D03*
X172225000Y-83375000D03*
%TD*%
D19*
%TO.C,TP3*%
X161800000Y-73400000D03*
%TD*%
D22*
%TO.C,J6*%
X162050000Y-98500000D03*
X162050000Y-100500000D03*
D23*
X156300000Y-96150000D03*
X156300000Y-102850000D03*
%TD*%
D19*
%TO.C,TP2*%
X170200000Y-73100000D03*
%TD*%
D24*
%TO.C,FID1*%
X162000000Y-105500000D03*
%TD*%
D25*
%TO.C,C4*%
X180150000Y-92600000D03*
X181700000Y-92600000D03*
%TD*%
D12*
%TO.C,C5*%
X168900000Y-75405000D03*
X168900000Y-76955000D03*
%TD*%
D26*
%TO.C,J1*%
X183000000Y-95675000D03*
X182000000Y-95675000D03*
X181000000Y-95675000D03*
X180000000Y-95675000D03*
X179000000Y-95675000D03*
X178000000Y-95675000D03*
D27*
X184300000Y-98200000D03*
X176700000Y-98200000D03*
%TD*%
D12*
%TO.C,C3*%
X166350000Y-79725000D03*
X166350000Y-81275000D03*
%TD*%
D10*
%TO.C,R4*%
X166400000Y-88000000D03*
X168050000Y-88000000D03*
%TD*%
D12*
%TO.C,C6*%
X163500000Y-75455000D03*
X163500000Y-77005000D03*
%TD*%
D28*
%TO.C,J5*%
X179250000Y-104050000D03*
X181250000Y-104050000D03*
X183250000Y-104050000D03*
X185250000Y-104050000D03*
D29*
X187600000Y-109800000D03*
X176900000Y-109800000D03*
%TD*%
D18*
%TO.C,H1*%
X195500000Y-108500000D03*
%TD*%
%TO.C,H4*%
X195500000Y-75500000D03*
%TD*%
D25*
%TO.C,C7*%
X166450000Y-86400000D03*
X168000000Y-86400000D03*
%TD*%
D10*
%TO.C,R3*%
X172375000Y-79800000D03*
X174025000Y-79800000D03*
%TD*%
D30*
%TO.C,SW1*%
X188100000Y-74500000D03*
X180900000Y-74500000D03*
X188100000Y-77500000D03*
X180900000Y-77500000D03*
%TD*%
D24*
%TO.C,FID2*%
X190500000Y-78000000D03*
%TD*%
D31*
%TO.C,J7*%
X191150000Y-100500000D03*
X191150000Y-98500000D03*
D32*
X196900000Y-96150000D03*
X196900000Y-102850000D03*
%TD*%
D25*
%TO.C,C8*%
X166450000Y-84800000D03*
X168000000Y-84800000D03*
%TD*%
D33*
%TO.C,R2*%
X176025000Y-81375000D03*
X176025000Y-79725000D03*
%TD*%
D28*
%TO.C,J4*%
X168000000Y-104050000D03*
X170000000Y-104050000D03*
X172000000Y-104050000D03*
D29*
X174350000Y-109800000D03*
X165650000Y-109800000D03*
%TD*%
D34*
%TO.C,C9*%
X186500000Y-97050000D03*
X186500000Y-95500000D03*
%TD*%
D35*
%TO.C,U2*%
X177475000Y-77905000D03*
X177475000Y-76635000D03*
X177475000Y-75365000D03*
X177475000Y-74095000D03*
X172525000Y-74095000D03*
X172525000Y-75365000D03*
X172525000Y-76635000D03*
X172525000Y-77905000D03*
%TD*%
D36*
%TO.C,C10*%
X168044698Y-97000000D03*
D37*
X171544698Y-97000000D03*
%TD*%
D18*
%TO.C,H3*%
X157500000Y-108500000D03*
%TD*%
D38*
%TO.C,D1*%
X177625000Y-79782500D03*
X177625000Y-81357500D03*
%TD*%
M02*
